%TF.GenerationSoftware,KiCad,Pcbnew,9.0.1*%
%TF.CreationDate,2025-11-06T23:09:58+01:00*%
%TF.ProjectId,Air_pump_controler,4169725f-7075-46d7-905f-636f6e74726f,0.2*%
%TF.SameCoordinates,Original*%
%TF.FileFunction,Legend,Bot*%
%TF.FilePolarity,Positive*%
%FSLAX46Y46*%
G04 Gerber Fmt 4.6, Leading zero omitted, Abs format (unit mm)*
G04 Created by KiCad (PCBNEW 9.0.1) date 2025-11-06 23:09:58*
%MOMM*%
%LPD*%
G01*
G04 APERTURE LIST*
%ADD10C,0.150000*%
%ADD11C,0.160000*%
%ADD12C,0.200000*%
%ADD13C,0.010000*%
G04 APERTURE END LIST*
D10*
G36*
X149659835Y-81980437D02*
G01*
X149756482Y-82036237D01*
X149501847Y-82639778D01*
X149420607Y-82592874D01*
X149355095Y-82520764D01*
X149327356Y-82437217D01*
X149324853Y-82365712D01*
X149348873Y-82221307D01*
X149386568Y-82131961D01*
X149468263Y-82024037D01*
X149513743Y-81986622D01*
X149577874Y-81964771D01*
X149659835Y-81980437D01*
G37*
G36*
X151576141Y-82810971D02*
G01*
X151012251Y-83787656D01*
X150126440Y-83276233D01*
X150516084Y-83276233D01*
X150516862Y-83279674D01*
X150516853Y-83281091D01*
X150517595Y-83282918D01*
X150519327Y-83290573D01*
X150537395Y-83344993D01*
X150543373Y-83358426D01*
X150543977Y-83359124D01*
X150544290Y-83359995D01*
X150553062Y-83371794D01*
X150637112Y-83464309D01*
X150641980Y-83468710D01*
X150643172Y-83470264D01*
X150645707Y-83472081D01*
X150648018Y-83474170D01*
X150649786Y-83475003D01*
X150655123Y-83478828D01*
X150721107Y-83516924D01*
X150728809Y-83520414D01*
X150730425Y-83521476D01*
X150732513Y-83522092D01*
X150734499Y-83522992D01*
X150736417Y-83523244D01*
X150744527Y-83525638D01*
X150858425Y-83547408D01*
X150873067Y-83548740D01*
X150877676Y-83547787D01*
X150882377Y-83548090D01*
X150896692Y-83544735D01*
X150992522Y-83512086D01*
X151002304Y-83507640D01*
X151003770Y-83507194D01*
X151004788Y-83506511D01*
X151005908Y-83506003D01*
X151007062Y-83504988D01*
X151015985Y-83499011D01*
X151078824Y-83447313D01*
X151080225Y-83445907D01*
X151080993Y-83445458D01*
X151085023Y-83441098D01*
X151089207Y-83436904D01*
X151089624Y-83436120D01*
X151090973Y-83434662D01*
X151183659Y-83312219D01*
X151185107Y-83309855D01*
X151185946Y-83309028D01*
X151188520Y-83304286D01*
X151191342Y-83299683D01*
X151191639Y-83298542D01*
X151192962Y-83296107D01*
X151237733Y-83189990D01*
X151238321Y-83188094D01*
X151238792Y-83187340D01*
X151240330Y-83181623D01*
X151242093Y-83175949D01*
X151242098Y-83175056D01*
X151242614Y-83173143D01*
X151269318Y-83012605D01*
X151269329Y-83012432D01*
X151269361Y-83012348D01*
X151269820Y-83005086D01*
X151270298Y-82997935D01*
X151270278Y-82997848D01*
X151270289Y-82997675D01*
X151267145Y-82907883D01*
X151266486Y-82902966D01*
X151266613Y-82901215D01*
X151265727Y-82897298D01*
X151265193Y-82893310D01*
X151264463Y-82891709D01*
X151263370Y-82886875D01*
X151227234Y-82778035D01*
X151221256Y-82764602D01*
X151220651Y-82763903D01*
X151220339Y-82763033D01*
X151211567Y-82751234D01*
X151127517Y-82658719D01*
X151122648Y-82654316D01*
X151121456Y-82652763D01*
X151118919Y-82650945D01*
X151116611Y-82648858D01*
X151114843Y-82648024D01*
X151109505Y-82644199D01*
X151010530Y-82587056D01*
X150997138Y-82580988D01*
X150993482Y-82580506D01*
X150990127Y-82578983D01*
X150975552Y-82577050D01*
X150894646Y-82574328D01*
X150879974Y-82575277D01*
X150852576Y-82585560D01*
X150831200Y-82605545D01*
X150819099Y-82632189D01*
X150818115Y-82661436D01*
X150828398Y-82688834D01*
X150848383Y-82710210D01*
X150875027Y-82722311D01*
X150889602Y-82724244D01*
X150951768Y-82726335D01*
X151024366Y-82768249D01*
X151089875Y-82840356D01*
X151117614Y-82923905D01*
X151120117Y-82995410D01*
X151096097Y-83139815D01*
X151058402Y-83229161D01*
X150976704Y-83337087D01*
X150931226Y-83374502D01*
X150867096Y-83396351D01*
X150785136Y-83380685D01*
X150740261Y-83354776D01*
X150674753Y-83282669D01*
X150670577Y-83270093D01*
X150731048Y-83126765D01*
X150789437Y-83160477D01*
X150802829Y-83166545D01*
X150831843Y-83170365D01*
X150860108Y-83162791D01*
X150883325Y-83144977D01*
X150897957Y-83119633D01*
X150901777Y-83090620D01*
X150894203Y-83062354D01*
X150876389Y-83039138D01*
X150864438Y-83030574D01*
X150732472Y-82954382D01*
X150719080Y-82948314D01*
X150714418Y-82947700D01*
X150710085Y-82945872D01*
X150700029Y-82945806D01*
X150690067Y-82944495D01*
X150685525Y-82945711D01*
X150680822Y-82945681D01*
X150671509Y-82949466D01*
X150661801Y-82952068D01*
X150658070Y-82954930D01*
X150653713Y-82956702D01*
X150646557Y-82963764D01*
X150638584Y-82969883D01*
X150636232Y-82973955D01*
X150632886Y-82977259D01*
X150625870Y-82990180D01*
X150521404Y-83237787D01*
X150519075Y-83245284D01*
X150518193Y-83247045D01*
X150518091Y-83248456D01*
X150517044Y-83251828D01*
X150516964Y-83264050D01*
X150516084Y-83276233D01*
X150126440Y-83276233D01*
X149545029Y-82940555D01*
X149792893Y-82940555D01*
X149794222Y-82946116D01*
X149794185Y-82951836D01*
X149797592Y-82960218D01*
X149799696Y-82969017D01*
X149803052Y-82973645D01*
X149805206Y-82978944D01*
X149811562Y-82985384D01*
X149816873Y-82992709D01*
X149821745Y-82995701D01*
X149825763Y-82999772D01*
X149834101Y-83003290D01*
X149841809Y-83008024D01*
X149847453Y-83008923D01*
X149852725Y-83011148D01*
X149861775Y-83011207D01*
X149870707Y-83012631D01*
X149876268Y-83011301D01*
X149881988Y-83011339D01*
X149890370Y-83007931D01*
X149899169Y-83005828D01*
X149907440Y-83000991D01*
X149909096Y-83000318D01*
X149909829Y-82999593D01*
X149911861Y-82998406D01*
X150403551Y-82641923D01*
X150194633Y-83137103D01*
X150190273Y-83151144D01*
X150190082Y-83180407D01*
X150201103Y-83207515D01*
X150221660Y-83228343D01*
X150248622Y-83239719D01*
X150277885Y-83239910D01*
X150304993Y-83228889D01*
X150325821Y-83208332D01*
X150332837Y-83195411D01*
X150646235Y-82452591D01*
X150646933Y-82450340D01*
X150647471Y-82449466D01*
X150647751Y-82447707D01*
X150650595Y-82438549D01*
X150650654Y-82429499D01*
X150652078Y-82420568D01*
X150650748Y-82415006D01*
X150650786Y-82409286D01*
X150647377Y-82400902D01*
X150645275Y-82392106D01*
X150641919Y-82387478D01*
X150639765Y-82382178D01*
X150633406Y-82375736D01*
X150628098Y-82368414D01*
X150623225Y-82365421D01*
X150619208Y-82361351D01*
X150610869Y-82357832D01*
X150603162Y-82353099D01*
X150597517Y-82352199D01*
X150592246Y-82349975D01*
X150583195Y-82349915D01*
X150574264Y-82348492D01*
X150568702Y-82349821D01*
X150562983Y-82349784D01*
X150554600Y-82353191D01*
X150545802Y-82355295D01*
X150537530Y-82360131D01*
X150535875Y-82360805D01*
X150535141Y-82361529D01*
X150533110Y-82362717D01*
X150041420Y-82719198D01*
X150250338Y-82224020D01*
X150254698Y-82209978D01*
X150254889Y-82180715D01*
X150243868Y-82153607D01*
X150223311Y-82132780D01*
X150196349Y-82121404D01*
X150167086Y-82121213D01*
X150139978Y-82132234D01*
X150119150Y-82152790D01*
X150112135Y-82165712D01*
X149798736Y-82908532D01*
X149798037Y-82910782D01*
X149797500Y-82911657D01*
X149797219Y-82913415D01*
X149794376Y-82922573D01*
X149794316Y-82931623D01*
X149792893Y-82940555D01*
X149545029Y-82940555D01*
X148868831Y-82550152D01*
X148976775Y-82363188D01*
X149174673Y-82363188D01*
X149174692Y-82363274D01*
X149174682Y-82363448D01*
X149177826Y-82453240D01*
X149178484Y-82458156D01*
X149178358Y-82459908D01*
X149179243Y-82463824D01*
X149179778Y-82467813D01*
X149180507Y-82469413D01*
X149181601Y-82474248D01*
X149217737Y-82583088D01*
X149223715Y-82596521D01*
X149224319Y-82597219D01*
X149224632Y-82598090D01*
X149233404Y-82609889D01*
X149317455Y-82702404D01*
X149322323Y-82706806D01*
X149323516Y-82708360D01*
X149326052Y-82710177D01*
X149328361Y-82712265D01*
X149330128Y-82713098D01*
X149335467Y-82716924D01*
X149500424Y-82812162D01*
X149513816Y-82818230D01*
X149518477Y-82818843D01*
X149522811Y-82820672D01*
X149532867Y-82820737D01*
X149542830Y-82822049D01*
X149547371Y-82820832D01*
X149552074Y-82820863D01*
X149561384Y-82817077D01*
X149571095Y-82814476D01*
X149574826Y-82811612D01*
X149579182Y-82809842D01*
X149586335Y-82802781D01*
X149594312Y-82796661D01*
X149596663Y-82792587D01*
X149600010Y-82789285D01*
X149607026Y-82776364D01*
X149920423Y-82033544D01*
X149921582Y-82029810D01*
X149922340Y-82028498D01*
X149922597Y-82026540D01*
X149924783Y-82019503D01*
X149924848Y-82009444D01*
X149926160Y-81999485D01*
X149924943Y-81994944D01*
X149924974Y-81990240D01*
X149921186Y-81980924D01*
X149918586Y-81971219D01*
X149915724Y-81967489D01*
X149913953Y-81963132D01*
X149906891Y-81955976D01*
X149900772Y-81948002D01*
X149894786Y-81943712D01*
X149893396Y-81942304D01*
X149891996Y-81941713D01*
X149888821Y-81939438D01*
X149723864Y-81844199D01*
X149716161Y-81840708D01*
X149714546Y-81839647D01*
X149712457Y-81839030D01*
X149710472Y-81838131D01*
X149708553Y-81837878D01*
X149700444Y-81835485D01*
X149586546Y-81813715D01*
X149571904Y-81812383D01*
X149567290Y-81813336D01*
X149562593Y-81813034D01*
X149548278Y-81816388D01*
X149452448Y-81849038D01*
X149442669Y-81853481D01*
X149441202Y-81853929D01*
X149440181Y-81854612D01*
X149439063Y-81855121D01*
X149437909Y-81856135D01*
X149428987Y-81862113D01*
X149366148Y-81913809D01*
X149364747Y-81915213D01*
X149363978Y-81915664D01*
X149359947Y-81920024D01*
X149355764Y-81924218D01*
X149355345Y-81925003D01*
X149353998Y-81926461D01*
X149261312Y-82048903D01*
X149259862Y-82051268D01*
X149259025Y-82052095D01*
X149256450Y-82056836D01*
X149253630Y-82061439D01*
X149253332Y-82062578D01*
X149252009Y-82065016D01*
X149207238Y-82171133D01*
X149206649Y-82173028D01*
X149206179Y-82173783D01*
X149204640Y-82179499D01*
X149202878Y-82185174D01*
X149202872Y-82186066D01*
X149202357Y-82187980D01*
X149175653Y-82348517D01*
X149175641Y-82348691D01*
X149175610Y-82348775D01*
X149175151Y-82356026D01*
X149174673Y-82363188D01*
X148976775Y-82363188D01*
X149432721Y-81573467D01*
X151576141Y-82810971D01*
G37*
D11*
X162597620Y-79939293D02*
X162216668Y-79939293D01*
X162702382Y-80167865D02*
X162335715Y-79367865D01*
X162335715Y-79367865D02*
X162169049Y-80167865D01*
X161902382Y-80167865D02*
X161835716Y-79634531D01*
X161802382Y-79367865D02*
X161845239Y-79405960D01*
X161845239Y-79405960D02*
X161811906Y-79444055D01*
X161811906Y-79444055D02*
X161769049Y-79405960D01*
X161769049Y-79405960D02*
X161802382Y-79367865D01*
X161802382Y-79367865D02*
X161811906Y-79444055D01*
X161521430Y-80167865D02*
X161454764Y-79634531D01*
X161473811Y-79786912D02*
X161426192Y-79710722D01*
X161426192Y-79710722D02*
X161383335Y-79672627D01*
X161383335Y-79672627D02*
X161302383Y-79634531D01*
X161302383Y-79634531D02*
X161226192Y-79634531D01*
X160350002Y-79634531D02*
X160450002Y-80434531D01*
X160354763Y-79672627D02*
X160273811Y-79634531D01*
X160273811Y-79634531D02*
X160121430Y-79634531D01*
X160121430Y-79634531D02*
X160050002Y-79672627D01*
X160050002Y-79672627D02*
X160016668Y-79710722D01*
X160016668Y-79710722D02*
X159988097Y-79786912D01*
X159988097Y-79786912D02*
X160016668Y-80015484D01*
X160016668Y-80015484D02*
X160064287Y-80091674D01*
X160064287Y-80091674D02*
X160107144Y-80129770D01*
X160107144Y-80129770D02*
X160188097Y-80167865D01*
X160188097Y-80167865D02*
X160340478Y-80167865D01*
X160340478Y-80167865D02*
X160411906Y-80129770D01*
X159283334Y-79634531D02*
X159350001Y-80167865D01*
X159626192Y-79634531D02*
X159678573Y-80053579D01*
X159678573Y-80053579D02*
X159650001Y-80129770D01*
X159650001Y-80129770D02*
X159578573Y-80167865D01*
X159578573Y-80167865D02*
X159464287Y-80167865D01*
X159464287Y-80167865D02*
X159383334Y-80129770D01*
X159383334Y-80129770D02*
X159340477Y-80091674D01*
X158969048Y-80167865D02*
X158902382Y-79634531D01*
X158911905Y-79710722D02*
X158869048Y-79672627D01*
X158869048Y-79672627D02*
X158788096Y-79634531D01*
X158788096Y-79634531D02*
X158673810Y-79634531D01*
X158673810Y-79634531D02*
X158602382Y-79672627D01*
X158602382Y-79672627D02*
X158573810Y-79748817D01*
X158573810Y-79748817D02*
X158626191Y-80167865D01*
X158573810Y-79748817D02*
X158526191Y-79672627D01*
X158526191Y-79672627D02*
X158445239Y-79634531D01*
X158445239Y-79634531D02*
X158330953Y-79634531D01*
X158330953Y-79634531D02*
X158259524Y-79672627D01*
X158259524Y-79672627D02*
X158230953Y-79748817D01*
X158230953Y-79748817D02*
X158283334Y-80167865D01*
X157835715Y-79634531D02*
X157935715Y-80434531D01*
X157840476Y-79672627D02*
X157759524Y-79634531D01*
X157759524Y-79634531D02*
X157607143Y-79634531D01*
X157607143Y-79634531D02*
X157535715Y-79672627D01*
X157535715Y-79672627D02*
X157502381Y-79710722D01*
X157502381Y-79710722D02*
X157473810Y-79786912D01*
X157473810Y-79786912D02*
X157502381Y-80015484D01*
X157502381Y-80015484D02*
X157550000Y-80091674D01*
X157550000Y-80091674D02*
X157592857Y-80129770D01*
X157592857Y-80129770D02*
X157673810Y-80167865D01*
X157673810Y-80167865D02*
X157826191Y-80167865D01*
X157826191Y-80167865D02*
X157897619Y-80129770D01*
X156221428Y-80129770D02*
X156302381Y-80167865D01*
X156302381Y-80167865D02*
X156454762Y-80167865D01*
X156454762Y-80167865D02*
X156526190Y-80129770D01*
X156526190Y-80129770D02*
X156559523Y-80091674D01*
X156559523Y-80091674D02*
X156588095Y-80015484D01*
X156588095Y-80015484D02*
X156559523Y-79786912D01*
X156559523Y-79786912D02*
X156511904Y-79710722D01*
X156511904Y-79710722D02*
X156469047Y-79672627D01*
X156469047Y-79672627D02*
X156388095Y-79634531D01*
X156388095Y-79634531D02*
X156235714Y-79634531D01*
X156235714Y-79634531D02*
X156164285Y-79672627D01*
X155769048Y-80167865D02*
X155840476Y-80129770D01*
X155840476Y-80129770D02*
X155873809Y-80091674D01*
X155873809Y-80091674D02*
X155902381Y-80015484D01*
X155902381Y-80015484D02*
X155873809Y-79786912D01*
X155873809Y-79786912D02*
X155826190Y-79710722D01*
X155826190Y-79710722D02*
X155783333Y-79672627D01*
X155783333Y-79672627D02*
X155702381Y-79634531D01*
X155702381Y-79634531D02*
X155588095Y-79634531D01*
X155588095Y-79634531D02*
X155516667Y-79672627D01*
X155516667Y-79672627D02*
X155483333Y-79710722D01*
X155483333Y-79710722D02*
X155454762Y-79786912D01*
X155454762Y-79786912D02*
X155483333Y-80015484D01*
X155483333Y-80015484D02*
X155530952Y-80091674D01*
X155530952Y-80091674D02*
X155573809Y-80129770D01*
X155573809Y-80129770D02*
X155654762Y-80167865D01*
X155654762Y-80167865D02*
X155769048Y-80167865D01*
X155092857Y-79634531D02*
X155159523Y-80167865D01*
X155102380Y-79710722D02*
X155059523Y-79672627D01*
X155059523Y-79672627D02*
X154978571Y-79634531D01*
X154978571Y-79634531D02*
X154864285Y-79634531D01*
X154864285Y-79634531D02*
X154792857Y-79672627D01*
X154792857Y-79672627D02*
X154764285Y-79748817D01*
X154764285Y-79748817D02*
X154816666Y-80167865D01*
X154483332Y-79634531D02*
X154178570Y-79634531D01*
X154335713Y-79367865D02*
X154421428Y-80053579D01*
X154421428Y-80053579D02*
X154392856Y-80129770D01*
X154392856Y-80129770D02*
X154321428Y-80167865D01*
X154321428Y-80167865D02*
X154245237Y-80167865D01*
X153978570Y-80167865D02*
X153911904Y-79634531D01*
X153930951Y-79786912D02*
X153883332Y-79710722D01*
X153883332Y-79710722D02*
X153840475Y-79672627D01*
X153840475Y-79672627D02*
X153759523Y-79634531D01*
X153759523Y-79634531D02*
X153683332Y-79634531D01*
X153369047Y-80167865D02*
X153440475Y-80129770D01*
X153440475Y-80129770D02*
X153473808Y-80091674D01*
X153473808Y-80091674D02*
X153502380Y-80015484D01*
X153502380Y-80015484D02*
X153473808Y-79786912D01*
X153473808Y-79786912D02*
X153426189Y-79710722D01*
X153426189Y-79710722D02*
X153383332Y-79672627D01*
X153383332Y-79672627D02*
X153302380Y-79634531D01*
X153302380Y-79634531D02*
X153188094Y-79634531D01*
X153188094Y-79634531D02*
X153116666Y-79672627D01*
X153116666Y-79672627D02*
X153083332Y-79710722D01*
X153083332Y-79710722D02*
X153054761Y-79786912D01*
X153054761Y-79786912D02*
X153083332Y-80015484D01*
X153083332Y-80015484D02*
X153130951Y-80091674D01*
X153130951Y-80091674D02*
X153173808Y-80129770D01*
X153173808Y-80129770D02*
X153254761Y-80167865D01*
X153254761Y-80167865D02*
X153369047Y-80167865D01*
X152645237Y-80167865D02*
X152716665Y-80129770D01*
X152716665Y-80129770D02*
X152745237Y-80053579D01*
X152745237Y-80053579D02*
X152659522Y-79367865D01*
X163864286Y-81455820D02*
X163764286Y-80655820D01*
X163764286Y-80655820D02*
X163573810Y-80655820D01*
X163573810Y-80655820D02*
X163464286Y-80693915D01*
X163464286Y-80693915D02*
X163397620Y-80770105D01*
X163397620Y-80770105D02*
X163369048Y-80846296D01*
X163369048Y-80846296D02*
X163350001Y-80998677D01*
X163350001Y-80998677D02*
X163364286Y-81112963D01*
X163364286Y-81112963D02*
X163421429Y-81265344D01*
X163421429Y-81265344D02*
X163469048Y-81341534D01*
X163469048Y-81341534D02*
X163554762Y-81417725D01*
X163554762Y-81417725D02*
X163673810Y-81455820D01*
X163673810Y-81455820D02*
X163864286Y-81455820D01*
X162754762Y-81417725D02*
X162835715Y-81455820D01*
X162835715Y-81455820D02*
X162988096Y-81455820D01*
X162988096Y-81455820D02*
X163059524Y-81417725D01*
X163059524Y-81417725D02*
X163088096Y-81341534D01*
X163088096Y-81341534D02*
X163050001Y-81036772D01*
X163050001Y-81036772D02*
X163002381Y-80960582D01*
X163002381Y-80960582D02*
X162921429Y-80922486D01*
X162921429Y-80922486D02*
X162769048Y-80922486D01*
X162769048Y-80922486D02*
X162697620Y-80960582D01*
X162697620Y-80960582D02*
X162669048Y-81036772D01*
X162669048Y-81036772D02*
X162678572Y-81112963D01*
X162678572Y-81112963D02*
X163069048Y-81189153D01*
X162411906Y-81417725D02*
X162340477Y-81455820D01*
X162340477Y-81455820D02*
X162188096Y-81455820D01*
X162188096Y-81455820D02*
X162107144Y-81417725D01*
X162107144Y-81417725D02*
X162059525Y-81341534D01*
X162059525Y-81341534D02*
X162054763Y-81303439D01*
X162054763Y-81303439D02*
X162083334Y-81227248D01*
X162083334Y-81227248D02*
X162154763Y-81189153D01*
X162154763Y-81189153D02*
X162269048Y-81189153D01*
X162269048Y-81189153D02*
X162340477Y-81151058D01*
X162340477Y-81151058D02*
X162369048Y-81074867D01*
X162369048Y-81074867D02*
X162364287Y-81036772D01*
X162364287Y-81036772D02*
X162316667Y-80960582D01*
X162316667Y-80960582D02*
X162235715Y-80922486D01*
X162235715Y-80922486D02*
X162121429Y-80922486D01*
X162121429Y-80922486D02*
X162050001Y-80960582D01*
X161730953Y-81455820D02*
X161664287Y-80922486D01*
X161630953Y-80655820D02*
X161673810Y-80693915D01*
X161673810Y-80693915D02*
X161640477Y-80732010D01*
X161640477Y-80732010D02*
X161597620Y-80693915D01*
X161597620Y-80693915D02*
X161630953Y-80655820D01*
X161630953Y-80655820D02*
X161640477Y-80732010D01*
X160940477Y-80922486D02*
X161021430Y-81570105D01*
X161021430Y-81570105D02*
X161069049Y-81646296D01*
X161069049Y-81646296D02*
X161111906Y-81684391D01*
X161111906Y-81684391D02*
X161192858Y-81722486D01*
X161192858Y-81722486D02*
X161307144Y-81722486D01*
X161307144Y-81722486D02*
X161378573Y-81684391D01*
X161002382Y-81417725D02*
X161083335Y-81455820D01*
X161083335Y-81455820D02*
X161235716Y-81455820D01*
X161235716Y-81455820D02*
X161307144Y-81417725D01*
X161307144Y-81417725D02*
X161340477Y-81379629D01*
X161340477Y-81379629D02*
X161369049Y-81303439D01*
X161369049Y-81303439D02*
X161340477Y-81074867D01*
X161340477Y-81074867D02*
X161292858Y-80998677D01*
X161292858Y-80998677D02*
X161250001Y-80960582D01*
X161250001Y-80960582D02*
X161169049Y-80922486D01*
X161169049Y-80922486D02*
X161016668Y-80922486D01*
X161016668Y-80922486D02*
X160945239Y-80960582D01*
X160559525Y-80922486D02*
X160626191Y-81455820D01*
X160569048Y-80998677D02*
X160526191Y-80960582D01*
X160526191Y-80960582D02*
X160445239Y-80922486D01*
X160445239Y-80922486D02*
X160330953Y-80922486D01*
X160330953Y-80922486D02*
X160259525Y-80960582D01*
X160259525Y-80960582D02*
X160230953Y-81036772D01*
X160230953Y-81036772D02*
X160283334Y-81455820D01*
X159592857Y-81417725D02*
X159673810Y-81455820D01*
X159673810Y-81455820D02*
X159826191Y-81455820D01*
X159826191Y-81455820D02*
X159897619Y-81417725D01*
X159897619Y-81417725D02*
X159926191Y-81341534D01*
X159926191Y-81341534D02*
X159888096Y-81036772D01*
X159888096Y-81036772D02*
X159840476Y-80960582D01*
X159840476Y-80960582D02*
X159759524Y-80922486D01*
X159759524Y-80922486D02*
X159607143Y-80922486D01*
X159607143Y-80922486D02*
X159535715Y-80960582D01*
X159535715Y-80960582D02*
X159507143Y-81036772D01*
X159507143Y-81036772D02*
X159516667Y-81112963D01*
X159516667Y-81112963D02*
X159907143Y-81189153D01*
X158873810Y-81455820D02*
X158773810Y-80655820D01*
X158869048Y-81417725D02*
X158950001Y-81455820D01*
X158950001Y-81455820D02*
X159102382Y-81455820D01*
X159102382Y-81455820D02*
X159173810Y-81417725D01*
X159173810Y-81417725D02*
X159207143Y-81379629D01*
X159207143Y-81379629D02*
X159235715Y-81303439D01*
X159235715Y-81303439D02*
X159207143Y-81074867D01*
X159207143Y-81074867D02*
X159159524Y-80998677D01*
X159159524Y-80998677D02*
X159116667Y-80960582D01*
X159116667Y-80960582D02*
X159035715Y-80922486D01*
X159035715Y-80922486D02*
X158883334Y-80922486D01*
X158883334Y-80922486D02*
X158811905Y-80960582D01*
X157883333Y-81455820D02*
X157783333Y-80655820D01*
X157821428Y-80960582D02*
X157740476Y-80922486D01*
X157740476Y-80922486D02*
X157588095Y-80922486D01*
X157588095Y-80922486D02*
X157516667Y-80960582D01*
X157516667Y-80960582D02*
X157483333Y-80998677D01*
X157483333Y-80998677D02*
X157454762Y-81074867D01*
X157454762Y-81074867D02*
X157483333Y-81303439D01*
X157483333Y-81303439D02*
X157530952Y-81379629D01*
X157530952Y-81379629D02*
X157573809Y-81417725D01*
X157573809Y-81417725D02*
X157654762Y-81455820D01*
X157654762Y-81455820D02*
X157807143Y-81455820D01*
X157807143Y-81455820D02*
X157878571Y-81417725D01*
X157169047Y-80922486D02*
X157045238Y-81455820D01*
X156788095Y-80922486D02*
X157045238Y-81455820D01*
X157045238Y-81455820D02*
X157145238Y-81646296D01*
X157145238Y-81646296D02*
X157188095Y-81684391D01*
X157188095Y-81684391D02*
X157269047Y-81722486D01*
X156540475Y-81379629D02*
X156507142Y-81417725D01*
X156507142Y-81417725D02*
X156549999Y-81455820D01*
X156549999Y-81455820D02*
X156583333Y-81417725D01*
X156583333Y-81417725D02*
X156540475Y-81379629D01*
X156540475Y-81379629D02*
X156549999Y-81455820D01*
X156488094Y-80960582D02*
X156454761Y-80998677D01*
X156454761Y-80998677D02*
X156497618Y-81036772D01*
X156497618Y-81036772D02*
X156530952Y-80998677D01*
X156530952Y-80998677D02*
X156488094Y-80960582D01*
X156488094Y-80960582D02*
X156497618Y-81036772D01*
X155573809Y-80655820D02*
X155116666Y-80655820D01*
X155445238Y-81455820D02*
X155345238Y-80655820D01*
X154949999Y-81455820D02*
X154883333Y-80922486D01*
X154849999Y-80655820D02*
X154892856Y-80693915D01*
X154892856Y-80693915D02*
X154859523Y-80732010D01*
X154859523Y-80732010D02*
X154816666Y-80693915D01*
X154816666Y-80693915D02*
X154849999Y-80655820D01*
X154849999Y-80655820D02*
X154859523Y-80732010D01*
X154502381Y-80922486D02*
X154569047Y-81455820D01*
X154511904Y-80998677D02*
X154469047Y-80960582D01*
X154469047Y-80960582D02*
X154388095Y-80922486D01*
X154388095Y-80922486D02*
X154273809Y-80922486D01*
X154273809Y-80922486D02*
X154202381Y-80960582D01*
X154202381Y-80960582D02*
X154173809Y-81036772D01*
X154173809Y-81036772D02*
X154226190Y-81455820D01*
X153892856Y-80922486D02*
X153588094Y-80922486D01*
X153745237Y-80655820D02*
X153830952Y-81341534D01*
X153830952Y-81341534D02*
X153802380Y-81417725D01*
X153802380Y-81417725D02*
X153730952Y-81455820D01*
X153730952Y-81455820D02*
X153654761Y-81455820D01*
X153045237Y-81455820D02*
X152992856Y-81036772D01*
X152992856Y-81036772D02*
X153021428Y-80960582D01*
X153021428Y-80960582D02*
X153092856Y-80922486D01*
X153092856Y-80922486D02*
X153245237Y-80922486D01*
X153245237Y-80922486D02*
X153326189Y-80960582D01*
X153040475Y-81417725D02*
X153121428Y-81455820D01*
X153121428Y-81455820D02*
X153311904Y-81455820D01*
X153311904Y-81455820D02*
X153383332Y-81417725D01*
X153383332Y-81417725D02*
X153411904Y-81341534D01*
X153411904Y-81341534D02*
X153402380Y-81265344D01*
X153402380Y-81265344D02*
X153354761Y-81189153D01*
X153354761Y-81189153D02*
X153273809Y-81151058D01*
X153273809Y-81151058D02*
X153083332Y-81151058D01*
X153083332Y-81151058D02*
X153002380Y-81112963D01*
X152069046Y-80655820D02*
X151611903Y-80655820D01*
X151940475Y-81455820D02*
X151840475Y-80655820D01*
X151435712Y-81379629D02*
X151402379Y-81417725D01*
X151402379Y-81417725D02*
X151445236Y-81455820D01*
X151445236Y-81455820D02*
X151478570Y-81417725D01*
X151478570Y-81417725D02*
X151435712Y-81379629D01*
X151435712Y-81379629D02*
X151445236Y-81455820D01*
X161345238Y-81943775D02*
X161192857Y-81943775D01*
X161192857Y-81943775D02*
X161121429Y-81981870D01*
X161121429Y-81981870D02*
X161054762Y-82058060D01*
X161054762Y-82058060D02*
X161035714Y-82210441D01*
X161035714Y-82210441D02*
X161069048Y-82477108D01*
X161069048Y-82477108D02*
X161126191Y-82629489D01*
X161126191Y-82629489D02*
X161211905Y-82705680D01*
X161211905Y-82705680D02*
X161292857Y-82743775D01*
X161292857Y-82743775D02*
X161445238Y-82743775D01*
X161445238Y-82743775D02*
X161516667Y-82705680D01*
X161516667Y-82705680D02*
X161583334Y-82629489D01*
X161583334Y-82629489D02*
X161602381Y-82477108D01*
X161602381Y-82477108D02*
X161569048Y-82210441D01*
X161569048Y-82210441D02*
X161511905Y-82058060D01*
X161511905Y-82058060D02*
X161426191Y-81981870D01*
X161426191Y-81981870D02*
X161345238Y-81943775D01*
X160411905Y-82705680D02*
X160492858Y-82743775D01*
X160492858Y-82743775D02*
X160645239Y-82743775D01*
X160645239Y-82743775D02*
X160716667Y-82705680D01*
X160716667Y-82705680D02*
X160750000Y-82667584D01*
X160750000Y-82667584D02*
X160778572Y-82591394D01*
X160778572Y-82591394D02*
X160750000Y-82362822D01*
X160750000Y-82362822D02*
X160702381Y-82286632D01*
X160702381Y-82286632D02*
X160659524Y-82248537D01*
X160659524Y-82248537D02*
X160578572Y-82210441D01*
X160578572Y-82210441D02*
X160426191Y-82210441D01*
X160426191Y-82210441D02*
X160354762Y-82248537D01*
X160121429Y-82210441D02*
X159816667Y-82210441D01*
X159973810Y-81943775D02*
X160059525Y-82629489D01*
X160059525Y-82629489D02*
X160030953Y-82705680D01*
X160030953Y-82705680D02*
X159959525Y-82743775D01*
X159959525Y-82743775D02*
X159883334Y-82743775D01*
X159502382Y-82743775D02*
X159573810Y-82705680D01*
X159573810Y-82705680D02*
X159607143Y-82667584D01*
X159607143Y-82667584D02*
X159635715Y-82591394D01*
X159635715Y-82591394D02*
X159607143Y-82362822D01*
X159607143Y-82362822D02*
X159559524Y-82286632D01*
X159559524Y-82286632D02*
X159516667Y-82248537D01*
X159516667Y-82248537D02*
X159435715Y-82210441D01*
X159435715Y-82210441D02*
X159321429Y-82210441D01*
X159321429Y-82210441D02*
X159250001Y-82248537D01*
X159250001Y-82248537D02*
X159216667Y-82286632D01*
X159216667Y-82286632D02*
X159188096Y-82362822D01*
X159188096Y-82362822D02*
X159216667Y-82591394D01*
X159216667Y-82591394D02*
X159264286Y-82667584D01*
X159264286Y-82667584D02*
X159307143Y-82705680D01*
X159307143Y-82705680D02*
X159388096Y-82743775D01*
X159388096Y-82743775D02*
X159502382Y-82743775D01*
X158892857Y-82743775D02*
X158792857Y-81943775D01*
X158830952Y-82248537D02*
X158750000Y-82210441D01*
X158750000Y-82210441D02*
X158597619Y-82210441D01*
X158597619Y-82210441D02*
X158526191Y-82248537D01*
X158526191Y-82248537D02*
X158492857Y-82286632D01*
X158492857Y-82286632D02*
X158464286Y-82362822D01*
X158464286Y-82362822D02*
X158492857Y-82591394D01*
X158492857Y-82591394D02*
X158540476Y-82667584D01*
X158540476Y-82667584D02*
X158583333Y-82705680D01*
X158583333Y-82705680D02*
X158664286Y-82743775D01*
X158664286Y-82743775D02*
X158816667Y-82743775D01*
X158816667Y-82743775D02*
X158888095Y-82705680D01*
X157859523Y-82705680D02*
X157940476Y-82743775D01*
X157940476Y-82743775D02*
X158092857Y-82743775D01*
X158092857Y-82743775D02*
X158164285Y-82705680D01*
X158164285Y-82705680D02*
X158192857Y-82629489D01*
X158192857Y-82629489D02*
X158154762Y-82324727D01*
X158154762Y-82324727D02*
X158107142Y-82248537D01*
X158107142Y-82248537D02*
X158026190Y-82210441D01*
X158026190Y-82210441D02*
X157873809Y-82210441D01*
X157873809Y-82210441D02*
X157802381Y-82248537D01*
X157802381Y-82248537D02*
X157773809Y-82324727D01*
X157773809Y-82324727D02*
X157783333Y-82400918D01*
X157783333Y-82400918D02*
X158173809Y-82477108D01*
X157483333Y-82743775D02*
X157416667Y-82210441D01*
X157435714Y-82362822D02*
X157388095Y-82286632D01*
X157388095Y-82286632D02*
X157345238Y-82248537D01*
X157345238Y-82248537D02*
X157264286Y-82210441D01*
X157264286Y-82210441D02*
X157188095Y-82210441D01*
X156326190Y-82019965D02*
X156283333Y-81981870D01*
X156283333Y-81981870D02*
X156202381Y-81943775D01*
X156202381Y-81943775D02*
X156011905Y-81943775D01*
X156011905Y-81943775D02*
X155940476Y-81981870D01*
X155940476Y-81981870D02*
X155907143Y-82019965D01*
X155907143Y-82019965D02*
X155878571Y-82096156D01*
X155878571Y-82096156D02*
X155888095Y-82172346D01*
X155888095Y-82172346D02*
X155940476Y-82286632D01*
X155940476Y-82286632D02*
X156454762Y-82743775D01*
X156454762Y-82743775D02*
X155959524Y-82743775D01*
X155364285Y-81943775D02*
X155288095Y-81943775D01*
X155288095Y-81943775D02*
X155216666Y-81981870D01*
X155216666Y-81981870D02*
X155183333Y-82019965D01*
X155183333Y-82019965D02*
X155154761Y-82096156D01*
X155154761Y-82096156D02*
X155135714Y-82248537D01*
X155135714Y-82248537D02*
X155159523Y-82439013D01*
X155159523Y-82439013D02*
X155216666Y-82591394D01*
X155216666Y-82591394D02*
X155264285Y-82667584D01*
X155264285Y-82667584D02*
X155307142Y-82705680D01*
X155307142Y-82705680D02*
X155388095Y-82743775D01*
X155388095Y-82743775D02*
X155464285Y-82743775D01*
X155464285Y-82743775D02*
X155535714Y-82705680D01*
X155535714Y-82705680D02*
X155569047Y-82667584D01*
X155569047Y-82667584D02*
X155597619Y-82591394D01*
X155597619Y-82591394D02*
X155616666Y-82439013D01*
X155616666Y-82439013D02*
X155592857Y-82248537D01*
X155592857Y-82248537D02*
X155535714Y-82096156D01*
X155535714Y-82096156D02*
X155488095Y-82019965D01*
X155488095Y-82019965D02*
X155445238Y-81981870D01*
X155445238Y-81981870D02*
X155364285Y-81943775D01*
X154802380Y-82019965D02*
X154759523Y-81981870D01*
X154759523Y-81981870D02*
X154678571Y-81943775D01*
X154678571Y-81943775D02*
X154488095Y-81943775D01*
X154488095Y-81943775D02*
X154416666Y-81981870D01*
X154416666Y-81981870D02*
X154383333Y-82019965D01*
X154383333Y-82019965D02*
X154354761Y-82096156D01*
X154354761Y-82096156D02*
X154364285Y-82172346D01*
X154364285Y-82172346D02*
X154416666Y-82286632D01*
X154416666Y-82286632D02*
X154930952Y-82743775D01*
X154930952Y-82743775D02*
X154435714Y-82743775D01*
X153611904Y-81943775D02*
X153992856Y-81943775D01*
X153992856Y-81943775D02*
X154078571Y-82324727D01*
X154078571Y-82324727D02*
X154035713Y-82286632D01*
X154035713Y-82286632D02*
X153954761Y-82248537D01*
X153954761Y-82248537D02*
X153764285Y-82248537D01*
X153764285Y-82248537D02*
X153692856Y-82286632D01*
X153692856Y-82286632D02*
X153659523Y-82324727D01*
X153659523Y-82324727D02*
X153630951Y-82400918D01*
X153630951Y-82400918D02*
X153654761Y-82591394D01*
X153654761Y-82591394D02*
X153702380Y-82667584D01*
X153702380Y-82667584D02*
X153745237Y-82705680D01*
X153745237Y-82705680D02*
X153826190Y-82743775D01*
X153826190Y-82743775D02*
X154016666Y-82743775D01*
X154016666Y-82743775D02*
X154088094Y-82705680D01*
X154088094Y-82705680D02*
X154121428Y-82667584D01*
D12*
X162094612Y-83567219D02*
X162094612Y-84281504D01*
X162094612Y-84281504D02*
X162142231Y-84424361D01*
X162142231Y-84424361D02*
X162237469Y-84519600D01*
X162237469Y-84519600D02*
X162380326Y-84567219D01*
X162380326Y-84567219D02*
X162475564Y-84567219D01*
X161142231Y-84567219D02*
X161618421Y-84567219D01*
X161618421Y-84567219D02*
X161618421Y-83567219D01*
X160237469Y-84471980D02*
X160285088Y-84519600D01*
X160285088Y-84519600D02*
X160427945Y-84567219D01*
X160427945Y-84567219D02*
X160523183Y-84567219D01*
X160523183Y-84567219D02*
X160666040Y-84519600D01*
X160666040Y-84519600D02*
X160761278Y-84424361D01*
X160761278Y-84424361D02*
X160808897Y-84329123D01*
X160808897Y-84329123D02*
X160856516Y-84138647D01*
X160856516Y-84138647D02*
X160856516Y-83995790D01*
X160856516Y-83995790D02*
X160808897Y-83805314D01*
X160808897Y-83805314D02*
X160761278Y-83710076D01*
X160761278Y-83710076D02*
X160666040Y-83614838D01*
X160666040Y-83614838D02*
X160523183Y-83567219D01*
X160523183Y-83567219D02*
X160427945Y-83567219D01*
X160427945Y-83567219D02*
X160285088Y-83614838D01*
X160285088Y-83614838D02*
X160237469Y-83662457D01*
X159523183Y-83567219D02*
X159523183Y-84281504D01*
X159523183Y-84281504D02*
X159570802Y-84424361D01*
X159570802Y-84424361D02*
X159666040Y-84519600D01*
X159666040Y-84519600D02*
X159808897Y-84567219D01*
X159808897Y-84567219D02*
X159904135Y-84567219D01*
X158570802Y-84567219D02*
X159046992Y-84567219D01*
X159046992Y-84567219D02*
X159046992Y-83567219D01*
X157666040Y-84471980D02*
X157713659Y-84519600D01*
X157713659Y-84519600D02*
X157856516Y-84567219D01*
X157856516Y-84567219D02*
X157951754Y-84567219D01*
X157951754Y-84567219D02*
X158094611Y-84519600D01*
X158094611Y-84519600D02*
X158189849Y-84424361D01*
X158189849Y-84424361D02*
X158237468Y-84329123D01*
X158237468Y-84329123D02*
X158285087Y-84138647D01*
X158285087Y-84138647D02*
X158285087Y-83995790D01*
X158285087Y-83995790D02*
X158237468Y-83805314D01*
X158237468Y-83805314D02*
X158189849Y-83710076D01*
X158189849Y-83710076D02*
X158094611Y-83614838D01*
X158094611Y-83614838D02*
X157951754Y-83567219D01*
X157951754Y-83567219D02*
X157856516Y-83567219D01*
X157856516Y-83567219D02*
X157713659Y-83614838D01*
X157713659Y-83614838D02*
X157666040Y-83662457D01*
X156951754Y-83567219D02*
X156951754Y-84281504D01*
X156951754Y-84281504D02*
X156999373Y-84424361D01*
X156999373Y-84424361D02*
X157094611Y-84519600D01*
X157094611Y-84519600D02*
X157237468Y-84567219D01*
X157237468Y-84567219D02*
X157332706Y-84567219D01*
X155999373Y-84567219D02*
X156475563Y-84567219D01*
X156475563Y-84567219D02*
X156475563Y-83567219D01*
X155094611Y-84471980D02*
X155142230Y-84519600D01*
X155142230Y-84519600D02*
X155285087Y-84567219D01*
X155285087Y-84567219D02*
X155380325Y-84567219D01*
X155380325Y-84567219D02*
X155523182Y-84519600D01*
X155523182Y-84519600D02*
X155618420Y-84424361D01*
X155618420Y-84424361D02*
X155666039Y-84329123D01*
X155666039Y-84329123D02*
X155713658Y-84138647D01*
X155713658Y-84138647D02*
X155713658Y-83995790D01*
X155713658Y-83995790D02*
X155666039Y-83805314D01*
X155666039Y-83805314D02*
X155618420Y-83710076D01*
X155618420Y-83710076D02*
X155523182Y-83614838D01*
X155523182Y-83614838D02*
X155380325Y-83567219D01*
X155380325Y-83567219D02*
X155285087Y-83567219D01*
X155285087Y-83567219D02*
X155142230Y-83614838D01*
X155142230Y-83614838D02*
X155094611Y-83662457D01*
X154380325Y-83567219D02*
X154380325Y-84281504D01*
X154380325Y-84281504D02*
X154427944Y-84424361D01*
X154427944Y-84424361D02*
X154523182Y-84519600D01*
X154523182Y-84519600D02*
X154666039Y-84567219D01*
X154666039Y-84567219D02*
X154761277Y-84567219D01*
X153427944Y-84567219D02*
X153904134Y-84567219D01*
X153904134Y-84567219D02*
X153904134Y-83567219D01*
X152523182Y-84471980D02*
X152570801Y-84519600D01*
X152570801Y-84519600D02*
X152713658Y-84567219D01*
X152713658Y-84567219D02*
X152808896Y-84567219D01*
X152808896Y-84567219D02*
X152951753Y-84519600D01*
X152951753Y-84519600D02*
X153046991Y-84424361D01*
X153046991Y-84424361D02*
X153094610Y-84329123D01*
X153094610Y-84329123D02*
X153142229Y-84138647D01*
X153142229Y-84138647D02*
X153142229Y-83995790D01*
X153142229Y-83995790D02*
X153094610Y-83805314D01*
X153094610Y-83805314D02*
X153046991Y-83710076D01*
X153046991Y-83710076D02*
X152951753Y-83614838D01*
X152951753Y-83614838D02*
X152808896Y-83567219D01*
X152808896Y-83567219D02*
X152713658Y-83567219D01*
X152713658Y-83567219D02*
X152570801Y-83614838D01*
X152570801Y-83614838D02*
X152523182Y-83662457D01*
D10*
G36*
X148453222Y-83616812D02*
G01*
X148554429Y-83675244D01*
X148589741Y-83726052D01*
X148616614Y-83806994D01*
X148594406Y-83940502D01*
X148497017Y-84171335D01*
X148423855Y-84267984D01*
X148362764Y-84288798D01*
X148314313Y-84287167D01*
X148213104Y-84228735D01*
X148177793Y-84177926D01*
X148150920Y-84096987D01*
X148173128Y-83963480D01*
X148270518Y-83732644D01*
X148343679Y-83635995D01*
X148404771Y-83615181D01*
X148453222Y-83616812D01*
G37*
G36*
X150858679Y-84729758D02*
G01*
X150294790Y-85706442D01*
X149275350Y-85117868D01*
X149828391Y-85117868D01*
X149831535Y-85207660D01*
X149832192Y-85212571D01*
X149832066Y-85214326D01*
X149832953Y-85218251D01*
X149833487Y-85222233D01*
X149834215Y-85223830D01*
X149835309Y-85228667D01*
X149853376Y-85283087D01*
X149855424Y-85287690D01*
X149855802Y-85289421D01*
X149857738Y-85292889D01*
X149859354Y-85296520D01*
X149860512Y-85297859D01*
X149862969Y-85302259D01*
X149914029Y-85375727D01*
X149923563Y-85386920D01*
X149925073Y-85387889D01*
X149926165Y-85389312D01*
X149938116Y-85397876D01*
X150103073Y-85493114D01*
X150110776Y-85496604D01*
X150112391Y-85497666D01*
X150114479Y-85498282D01*
X150116465Y-85499182D01*
X150118382Y-85499434D01*
X150126492Y-85501828D01*
X150240390Y-85523599D01*
X150255032Y-85524931D01*
X150283690Y-85519007D01*
X150307899Y-85502568D01*
X150323975Y-85478115D01*
X150329469Y-85449372D01*
X150323545Y-85420714D01*
X150307106Y-85396505D01*
X150282653Y-85380429D01*
X150268552Y-85376267D01*
X150167100Y-85356875D01*
X150027634Y-85276354D01*
X149992323Y-85225545D01*
X149981065Y-85191636D01*
X149978877Y-85129154D01*
X149995111Y-85090678D01*
X150033138Y-85059393D01*
X150055141Y-85051896D01*
X150113392Y-85053857D01*
X150251662Y-85092280D01*
X150253777Y-85092649D01*
X150254644Y-85093043D01*
X150260413Y-85093808D01*
X150266145Y-85094809D01*
X150267089Y-85094693D01*
X150269219Y-85094976D01*
X150350126Y-85097699D01*
X150361050Y-85096993D01*
X150362522Y-85097088D01*
X150363641Y-85096825D01*
X150364799Y-85096751D01*
X150366191Y-85096228D01*
X150376837Y-85093734D01*
X150424752Y-85077409D01*
X150434530Y-85072965D01*
X150435998Y-85072518D01*
X150437018Y-85071834D01*
X150438137Y-85071326D01*
X150439289Y-85070312D01*
X150448213Y-85064335D01*
X150511052Y-85012638D01*
X150521436Y-85002229D01*
X150523049Y-84999202D01*
X150525489Y-84996794D01*
X150532505Y-84983873D01*
X150562352Y-84913128D01*
X150566712Y-84899087D01*
X150566722Y-84897504D01*
X150567276Y-84896023D01*
X150568204Y-84881350D01*
X150565060Y-84791558D01*
X150564401Y-84786641D01*
X150564528Y-84784890D01*
X150563642Y-84780973D01*
X150563108Y-84776985D01*
X150562378Y-84775384D01*
X150561285Y-84770550D01*
X150543217Y-84716130D01*
X150541169Y-84711529D01*
X150540792Y-84709797D01*
X150538853Y-84706324D01*
X150537239Y-84702697D01*
X150536080Y-84701357D01*
X150533625Y-84696960D01*
X150482566Y-84623492D01*
X150473033Y-84612299D01*
X150471521Y-84611328D01*
X150470430Y-84609906D01*
X150458479Y-84601342D01*
X150293522Y-84506104D01*
X150285819Y-84502613D01*
X150284204Y-84501552D01*
X150282115Y-84500935D01*
X150280130Y-84500036D01*
X150278211Y-84499783D01*
X150270102Y-84497390D01*
X150156204Y-84475620D01*
X150141562Y-84474288D01*
X150112904Y-84480212D01*
X150088695Y-84496652D01*
X150072620Y-84521104D01*
X150067126Y-84549848D01*
X150073050Y-84578506D01*
X150089490Y-84602715D01*
X150113942Y-84618790D01*
X150128044Y-84622952D01*
X150229494Y-84642342D01*
X150368960Y-84722863D01*
X150404271Y-84773672D01*
X150415529Y-84807580D01*
X150417717Y-84870063D01*
X150401483Y-84908541D01*
X150363456Y-84939825D01*
X150341453Y-84947321D01*
X150283202Y-84945360D01*
X150144933Y-84906938D01*
X150142817Y-84906568D01*
X150141951Y-84906175D01*
X150136181Y-84905409D01*
X150130450Y-84904409D01*
X150129505Y-84904524D01*
X150127376Y-84904242D01*
X150046469Y-84901519D01*
X150035552Y-84902224D01*
X150034073Y-84902129D01*
X150032948Y-84902392D01*
X150031797Y-84902467D01*
X150030410Y-84902987D01*
X150019759Y-84905484D01*
X149971843Y-84921809D01*
X149962064Y-84926252D01*
X149960597Y-84926700D01*
X149959576Y-84927383D01*
X149958458Y-84927892D01*
X149957304Y-84928906D01*
X149948382Y-84934884D01*
X149885543Y-84986580D01*
X149875159Y-84996989D01*
X149873545Y-85000016D01*
X149871105Y-85002425D01*
X149864090Y-85015346D01*
X149834243Y-85086090D01*
X149829883Y-85100132D01*
X149829872Y-85101713D01*
X149829319Y-85103195D01*
X149828391Y-85117868D01*
X149275350Y-85117868D01*
X148858776Y-84877359D01*
X149108837Y-84877359D01*
X149111229Y-84888189D01*
X149112568Y-84899189D01*
X149114360Y-84902366D01*
X149115149Y-84905934D01*
X149121502Y-84915023D01*
X149126949Y-84924675D01*
X149129823Y-84926925D01*
X149131915Y-84929918D01*
X149141264Y-84935884D01*
X149149990Y-84942717D01*
X149153504Y-84943695D01*
X149156584Y-84945661D01*
X149167505Y-84947595D01*
X149178181Y-84950569D01*
X149181803Y-84950128D01*
X149185399Y-84950765D01*
X149196229Y-84948372D01*
X149207229Y-84947034D01*
X149210406Y-84945241D01*
X149213974Y-84944453D01*
X149223063Y-84938099D01*
X149232715Y-84932653D01*
X149236455Y-84928737D01*
X149237958Y-84927687D01*
X149238963Y-84926112D01*
X149242871Y-84922021D01*
X149422760Y-84692296D01*
X149373598Y-85016932D01*
X149373292Y-85022785D01*
X149372835Y-85024626D01*
X149373102Y-85026408D01*
X149372831Y-85031615D01*
X149375520Y-85042490D01*
X149377185Y-85053564D01*
X149379007Y-85056591D01*
X149379856Y-85060023D01*
X149386501Y-85069041D01*
X149392277Y-85078635D01*
X149395118Y-85080734D01*
X149397216Y-85083580D01*
X149406808Y-85089368D01*
X149415816Y-85096023D01*
X149419245Y-85096875D01*
X149422271Y-85098701D01*
X149433345Y-85100378D01*
X149444216Y-85103079D01*
X149447710Y-85102553D01*
X149451205Y-85103083D01*
X149462080Y-85100393D01*
X149473154Y-85098729D01*
X149476181Y-85096906D01*
X149479613Y-85096058D01*
X149488631Y-85089412D01*
X149498225Y-85083637D01*
X149501718Y-85079767D01*
X149503170Y-85078698D01*
X149504149Y-85077075D01*
X149508078Y-85072724D01*
X149986433Y-84425142D01*
X149993968Y-84412516D01*
X150001024Y-84384116D01*
X149996674Y-84355178D01*
X149981582Y-84330106D01*
X149958043Y-84312719D01*
X149929643Y-84305663D01*
X149900705Y-84310013D01*
X149875634Y-84325105D01*
X149865781Y-84336018D01*
X149567214Y-84740208D01*
X149613796Y-84432616D01*
X149614009Y-84428537D01*
X149614430Y-84427026D01*
X149614190Y-84425059D01*
X149614563Y-84417934D01*
X149612123Y-84408070D01*
X149610896Y-84397978D01*
X149608639Y-84393978D01*
X149607538Y-84389526D01*
X149601512Y-84381349D01*
X149596514Y-84372492D01*
X149592898Y-84369661D01*
X149590178Y-84365969D01*
X149581479Y-84360719D01*
X149573473Y-84354450D01*
X149569050Y-84353218D01*
X149565123Y-84350848D01*
X149555081Y-84349327D01*
X149545283Y-84346598D01*
X149540723Y-84347152D01*
X149536189Y-84346466D01*
X149526329Y-84348903D01*
X149516234Y-84350132D01*
X149512234Y-84352388D01*
X149507781Y-84353490D01*
X149499602Y-84359517D01*
X149490748Y-84364514D01*
X149485814Y-84369679D01*
X149484224Y-84370851D01*
X149483416Y-84372189D01*
X149480592Y-84375146D01*
X149310098Y-84592872D01*
X149406112Y-84050803D01*
X149407245Y-84036144D01*
X149400933Y-84007569D01*
X149384167Y-83983586D01*
X149359498Y-83967843D01*
X149330683Y-83962739D01*
X149302108Y-83969051D01*
X149278124Y-83985817D01*
X149262381Y-84010486D01*
X149258411Y-84024642D01*
X149109971Y-84862700D01*
X149109534Y-84868339D01*
X149109033Y-84870141D01*
X149109254Y-84871961D01*
X149108837Y-84877359D01*
X148858776Y-84877359D01*
X148451663Y-84642312D01*
X148681279Y-84642312D01*
X148692300Y-84669420D01*
X148712857Y-84690248D01*
X148739819Y-84701624D01*
X148769082Y-84701815D01*
X148796190Y-84690794D01*
X148817018Y-84670237D01*
X148824034Y-84657316D01*
X149137431Y-83914496D01*
X149141791Y-83900455D01*
X149141982Y-83871192D01*
X149130961Y-83844084D01*
X149110404Y-83823256D01*
X149083442Y-83811881D01*
X149054179Y-83811689D01*
X149027070Y-83822711D01*
X149006243Y-83843267D01*
X148999227Y-83856188D01*
X148685830Y-84599008D01*
X148681470Y-84613049D01*
X148681279Y-84642312D01*
X148451663Y-84642312D01*
X147714686Y-84216818D01*
X147779036Y-84105361D01*
X147998928Y-84105361D01*
X147999722Y-84108785D01*
X147999469Y-84112289D01*
X148002712Y-84126629D01*
X148038848Y-84235469D01*
X148040895Y-84240070D01*
X148041273Y-84241801D01*
X148043209Y-84245270D01*
X148044826Y-84248902D01*
X148045985Y-84250241D01*
X148048440Y-84254639D01*
X148099499Y-84328107D01*
X148109032Y-84339300D01*
X148110543Y-84340270D01*
X148111635Y-84341693D01*
X148123586Y-84350257D01*
X148255552Y-84426447D01*
X148268945Y-84432515D01*
X148272598Y-84432995D01*
X148275954Y-84434520D01*
X148290529Y-84436453D01*
X148371435Y-84439176D01*
X148382351Y-84438470D01*
X148383830Y-84438566D01*
X148384954Y-84438302D01*
X148386108Y-84438228D01*
X148387497Y-84437706D01*
X148398145Y-84435211D01*
X148493976Y-84402562D01*
X148494228Y-84402447D01*
X148494361Y-84402429D01*
X148494679Y-84402242D01*
X148507361Y-84396479D01*
X148513060Y-84391469D01*
X148519608Y-84387632D01*
X148529060Y-84377406D01*
X148529341Y-84377160D01*
X148529400Y-84377038D01*
X148529588Y-84376836D01*
X148622274Y-84254393D01*
X148623722Y-84252029D01*
X148624561Y-84251202D01*
X148627135Y-84246460D01*
X148629957Y-84241857D01*
X148630254Y-84240716D01*
X148631577Y-84238281D01*
X148736043Y-83990674D01*
X148736632Y-83988776D01*
X148737102Y-83988023D01*
X148738641Y-83982304D01*
X148740403Y-83976633D01*
X148740408Y-83975742D01*
X148740925Y-83973826D01*
X148767628Y-83813289D01*
X148768607Y-83798619D01*
X148767813Y-83795197D01*
X148768067Y-83791692D01*
X148764824Y-83777352D01*
X148728689Y-83668511D01*
X148726639Y-83663906D01*
X148726263Y-83662178D01*
X148724327Y-83658711D01*
X148722711Y-83655079D01*
X148721551Y-83653738D01*
X148719096Y-83649341D01*
X148668036Y-83575872D01*
X148658502Y-83564680D01*
X148656992Y-83563711D01*
X148655900Y-83562287D01*
X148643949Y-83553723D01*
X148511984Y-83477533D01*
X148498592Y-83471465D01*
X148494937Y-83470983D01*
X148491582Y-83469460D01*
X148477007Y-83467527D01*
X148396100Y-83464804D01*
X148385183Y-83465509D01*
X148383705Y-83465414D01*
X148382580Y-83465677D01*
X148381428Y-83465752D01*
X148380040Y-83466272D01*
X148369390Y-83468769D01*
X148273560Y-83501418D01*
X148273310Y-83501531D01*
X148273175Y-83501550D01*
X148272848Y-83501741D01*
X148260174Y-83507501D01*
X148254476Y-83512509D01*
X148247928Y-83516347D01*
X148238474Y-83526574D01*
X148238195Y-83526820D01*
X148238135Y-83526941D01*
X148237948Y-83527144D01*
X148145262Y-83649586D01*
X148143812Y-83651951D01*
X148142975Y-83652778D01*
X148140400Y-83657519D01*
X148137580Y-83662122D01*
X148137282Y-83663261D01*
X148135959Y-83665699D01*
X148031493Y-83913306D01*
X148030904Y-83915201D01*
X148030434Y-83915956D01*
X148028895Y-83921672D01*
X148027133Y-83927347D01*
X148027127Y-83928239D01*
X148026612Y-83930153D01*
X147999908Y-84090690D01*
X147998928Y-84105361D01*
X147779036Y-84105361D01*
X148278575Y-83240134D01*
X150858679Y-84729758D01*
G37*
X154284649Y-95694295D02*
X154665601Y-95694295D01*
X154665601Y-95694295D02*
X154751316Y-96075247D01*
X154751316Y-96075247D02*
X154708458Y-96037152D01*
X154708458Y-96037152D02*
X154627506Y-95999057D01*
X154627506Y-95999057D02*
X154437030Y-95999057D01*
X154437030Y-95999057D02*
X154365601Y-96037152D01*
X154365601Y-96037152D02*
X154332268Y-96075247D01*
X154332268Y-96075247D02*
X154303696Y-96151438D01*
X154303696Y-96151438D02*
X154327506Y-96341914D01*
X154327506Y-96341914D02*
X154375125Y-96418104D01*
X154375125Y-96418104D02*
X154417982Y-96456200D01*
X154417982Y-96456200D02*
X154498935Y-96494295D01*
X154498935Y-96494295D02*
X154689411Y-96494295D01*
X154689411Y-96494295D02*
X154760839Y-96456200D01*
X154760839Y-96456200D02*
X154794173Y-96418104D01*
X154017982Y-95694295D02*
X153851315Y-96494295D01*
X153851315Y-96494295D02*
X153484649Y-95694295D01*
X154701316Y-98382390D02*
X154772744Y-98344295D01*
X154772744Y-98344295D02*
X154887030Y-98344295D01*
X154887030Y-98344295D02*
X155006077Y-98382390D01*
X155006077Y-98382390D02*
X155091792Y-98458580D01*
X155091792Y-98458580D02*
X155139411Y-98534771D01*
X155139411Y-98534771D02*
X155196554Y-98687152D01*
X155196554Y-98687152D02*
X155210839Y-98801438D01*
X155210839Y-98801438D02*
X155191792Y-98953819D01*
X155191792Y-98953819D02*
X155163220Y-99030009D01*
X155163220Y-99030009D02*
X155096554Y-99106200D01*
X155096554Y-99106200D02*
X154987030Y-99144295D01*
X154987030Y-99144295D02*
X154910839Y-99144295D01*
X154910839Y-99144295D02*
X154791792Y-99106200D01*
X154791792Y-99106200D02*
X154748935Y-99068104D01*
X154748935Y-99068104D02*
X154715601Y-98801438D01*
X154715601Y-98801438D02*
X154867982Y-98801438D01*
X154415601Y-99144295D02*
X154315601Y-98344295D01*
X154315601Y-98344295D02*
X153958458Y-99144295D01*
X153958458Y-99144295D02*
X153858458Y-98344295D01*
X153577506Y-99144295D02*
X153477506Y-98344295D01*
X153477506Y-98344295D02*
X153287030Y-98344295D01*
X153287030Y-98344295D02*
X153177506Y-98382390D01*
X153177506Y-98382390D02*
X153110840Y-98458580D01*
X153110840Y-98458580D02*
X153082268Y-98534771D01*
X153082268Y-98534771D02*
X153063221Y-98687152D01*
X153063221Y-98687152D02*
X153077506Y-98801438D01*
X153077506Y-98801438D02*
X153134649Y-98953819D01*
X153134649Y-98953819D02*
X153182268Y-99030009D01*
X153182268Y-99030009D02*
X153267982Y-99106200D01*
X153267982Y-99106200D02*
X153387030Y-99144295D01*
X153387030Y-99144295D02*
X153577506Y-99144295D01*
G36*
X149696193Y-86343681D02*
G01*
X149132304Y-87320366D01*
X147317573Y-86272630D01*
X147870613Y-86272630D01*
X147873757Y-86362422D01*
X147874415Y-86367338D01*
X147874289Y-86369090D01*
X147875174Y-86373006D01*
X147875709Y-86376995D01*
X147876438Y-86378595D01*
X147877532Y-86383430D01*
X147895600Y-86437850D01*
X147897647Y-86442451D01*
X147898025Y-86444182D01*
X147899961Y-86447651D01*
X147901578Y-86451283D01*
X147902737Y-86452622D01*
X147905192Y-86457020D01*
X147956251Y-86530488D01*
X147965784Y-86541681D01*
X147967295Y-86542651D01*
X147968387Y-86544074D01*
X147980338Y-86552638D01*
X148145295Y-86647876D01*
X148158687Y-86653944D01*
X148162341Y-86654425D01*
X148165697Y-86655949D01*
X148180272Y-86657882D01*
X148261179Y-86660605D01*
X148272103Y-86659899D01*
X148273575Y-86659994D01*
X148274694Y-86659731D01*
X148275852Y-86659657D01*
X148277244Y-86659134D01*
X148287890Y-86656640D01*
X148335805Y-86640315D01*
X148349190Y-86634232D01*
X148371170Y-86614912D01*
X148384083Y-86588652D01*
X148385965Y-86559449D01*
X148377097Y-86533422D01*
X148623243Y-86533422D01*
X148630816Y-86561687D01*
X148648631Y-86584904D01*
X148660582Y-86593468D01*
X148867174Y-86712744D01*
X148773522Y-86934722D01*
X148769162Y-86948763D01*
X148768971Y-86978026D01*
X148779992Y-87005134D01*
X148800549Y-87025962D01*
X148827511Y-87037338D01*
X148856774Y-87037529D01*
X148883882Y-87026508D01*
X148904710Y-87005951D01*
X148911726Y-86993030D01*
X148998090Y-86788328D01*
X149188445Y-86898230D01*
X149201837Y-86904298D01*
X149230851Y-86908117D01*
X149259117Y-86900544D01*
X149282333Y-86882729D01*
X149296965Y-86857386D01*
X149300785Y-86828373D01*
X149293211Y-86800107D01*
X149275396Y-86776890D01*
X149263445Y-86768326D01*
X149056852Y-86649049D01*
X149150505Y-86427072D01*
X149154865Y-86413031D01*
X149155056Y-86383768D01*
X149144035Y-86356659D01*
X149123478Y-86335832D01*
X149096516Y-86324456D01*
X149067253Y-86324265D01*
X149040145Y-86335286D01*
X149019317Y-86355843D01*
X149012301Y-86368764D01*
X148925936Y-86573465D01*
X148735582Y-86463564D01*
X148722190Y-86457496D01*
X148693176Y-86453677D01*
X148664911Y-86461250D01*
X148641694Y-86479065D01*
X148627062Y-86504408D01*
X148623243Y-86533422D01*
X148377097Y-86533422D01*
X148376527Y-86531749D01*
X148357207Y-86509769D01*
X148330948Y-86496856D01*
X148301744Y-86494974D01*
X148287430Y-86498329D01*
X148252506Y-86510227D01*
X148204056Y-86508596D01*
X148069856Y-86431116D01*
X148034545Y-86380307D01*
X148023287Y-86346399D01*
X148021099Y-86283917D01*
X148082105Y-86139322D01*
X148120132Y-86108037D01*
X148142134Y-86100541D01*
X148190584Y-86102172D01*
X148324783Y-86179652D01*
X148360095Y-86230461D01*
X148374750Y-86274602D01*
X148380728Y-86288035D01*
X148384740Y-86292672D01*
X148387587Y-86298099D01*
X148394221Y-86303630D01*
X148399875Y-86310165D01*
X148405354Y-86312913D01*
X148410063Y-86316839D01*
X148418310Y-86319410D01*
X148426033Y-86323284D01*
X148432147Y-86323726D01*
X148438000Y-86325551D01*
X148446601Y-86324770D01*
X148455220Y-86325394D01*
X148461040Y-86323461D01*
X148467144Y-86322908D01*
X148474791Y-86318896D01*
X148482994Y-86316173D01*
X148487631Y-86312160D01*
X148493058Y-86309314D01*
X148498589Y-86302679D01*
X148505124Y-86297026D01*
X148507872Y-86291546D01*
X148511798Y-86286838D01*
X148517529Y-86273299D01*
X148633775Y-85900526D01*
X148636756Y-85886129D01*
X148636172Y-85879697D01*
X148637016Y-85873293D01*
X148634863Y-85865259D01*
X148634113Y-85856985D01*
X148631113Y-85851267D01*
X148629442Y-85845028D01*
X148624382Y-85838433D01*
X148620520Y-85831071D01*
X148615557Y-85826933D01*
X148611627Y-85821811D01*
X148599676Y-85813247D01*
X148269761Y-85622771D01*
X148256369Y-85616703D01*
X148227355Y-85612884D01*
X148199090Y-85620457D01*
X148175873Y-85638272D01*
X148161241Y-85663615D01*
X148157422Y-85692629D01*
X148164995Y-85720894D01*
X148182810Y-85744111D01*
X148194761Y-85752675D01*
X148472714Y-85913151D01*
X148425092Y-86065862D01*
X148414303Y-86058131D01*
X148249346Y-85962893D01*
X148235954Y-85956825D01*
X148232299Y-85956343D01*
X148228944Y-85954820D01*
X148214369Y-85952887D01*
X148133463Y-85950164D01*
X148122546Y-85950869D01*
X148121068Y-85950774D01*
X148119943Y-85951037D01*
X148118791Y-85951112D01*
X148117403Y-85951632D01*
X148106753Y-85954129D01*
X148058837Y-85970454D01*
X148049058Y-85974897D01*
X148047590Y-85975345D01*
X148046569Y-85976028D01*
X148045451Y-85976537D01*
X148044297Y-85977551D01*
X148035375Y-85983529D01*
X147972536Y-86035226D01*
X147962153Y-86045635D01*
X147960541Y-86048658D01*
X147958100Y-86051068D01*
X147951085Y-86063989D01*
X147876465Y-86240852D01*
X147872105Y-86254893D01*
X147872094Y-86256475D01*
X147871541Y-86257957D01*
X147870613Y-86272630D01*
X147317573Y-86272630D01*
X147117035Y-86156849D01*
X147382314Y-86156849D01*
X147382378Y-86171551D01*
X147384047Y-86176969D01*
X147384367Y-86182631D01*
X147388315Y-86190824D01*
X147390994Y-86199518D01*
X147394610Y-86203886D01*
X147397072Y-86208993D01*
X147403855Y-86215051D01*
X147409656Y-86222057D01*
X147414667Y-86224708D01*
X147418898Y-86228486D01*
X147427485Y-86231487D01*
X147435524Y-86235740D01*
X147441168Y-86236271D01*
X147446523Y-86238143D01*
X147455606Y-86237630D01*
X147464659Y-86238482D01*
X147470077Y-86236812D01*
X147475739Y-86236493D01*
X147483932Y-86232544D01*
X147492626Y-86229866D01*
X147496994Y-86226249D01*
X147502101Y-86223788D01*
X147512922Y-86213835D01*
X148057259Y-85604348D01*
X148065931Y-85592475D01*
X148075588Y-85564851D01*
X148073938Y-85535634D01*
X148061233Y-85509272D01*
X148039407Y-85489779D01*
X148011782Y-85480122D01*
X147982566Y-85481772D01*
X147956204Y-85494477D01*
X147945382Y-85504430D01*
X147553033Y-85943738D01*
X147614111Y-85294750D01*
X147614047Y-85280047D01*
X147605431Y-85252081D01*
X147586769Y-85229541D01*
X147560901Y-85215858D01*
X147531766Y-85213116D01*
X147503799Y-85221733D01*
X147481260Y-85240395D01*
X147467577Y-85266263D01*
X147464771Y-85280695D01*
X147382314Y-86156849D01*
X147117035Y-86156849D01*
X146916387Y-86041005D01*
X147480276Y-85064321D01*
X149696193Y-86343681D01*
G37*
D13*
%TO.C,REF\u002A\u002A*%
X154932829Y-90151097D02*
X154992753Y-90173355D01*
X155017673Y-90190080D01*
X155042910Y-90214043D01*
X155060912Y-90244526D01*
X155072858Y-90286023D01*
X155079930Y-90343032D01*
X155083308Y-90420047D01*
X155084171Y-90521565D01*
X155084002Y-90574027D01*
X155083153Y-90645715D01*
X155081711Y-90702925D01*
X155079814Y-90740809D01*
X155077597Y-90754514D01*
X155063172Y-90749981D01*
X155034054Y-90737670D01*
X155033181Y-90737272D01*
X155018060Y-90729356D01*
X155007891Y-90718495D01*
X155001691Y-90699471D01*
X154998478Y-90667069D01*
X154997270Y-90616071D01*
X154997086Y-90541261D01*
X154996714Y-90493804D01*
X154992750Y-90404615D01*
X154983673Y-90339287D01*
X154968524Y-90294393D01*
X154946345Y-90266507D01*
X154916175Y-90252203D01*
X154911990Y-90251206D01*
X154855480Y-90250427D01*
X154811410Y-90275744D01*
X154780972Y-90326502D01*
X154775544Y-90341175D01*
X154763171Y-90373649D01*
X154756905Y-90388572D01*
X154744036Y-90386516D01*
X154715933Y-90375357D01*
X154689721Y-90356927D01*
X154677771Y-90322098D01*
X154681336Y-90297151D01*
X154703235Y-90246547D01*
X154738644Y-90199128D01*
X154780052Y-90166334D01*
X154797400Y-90158752D01*
X154863089Y-90146076D01*
X154932829Y-90151097D01*
G36*
X154932829Y-90151097D02*
G01*
X154992753Y-90173355D01*
X155017673Y-90190080D01*
X155042910Y-90214043D01*
X155060912Y-90244526D01*
X155072858Y-90286023D01*
X155079930Y-90343032D01*
X155083308Y-90420047D01*
X155084171Y-90521565D01*
X155084002Y-90574027D01*
X155083153Y-90645715D01*
X155081711Y-90702925D01*
X155079814Y-90740809D01*
X155077597Y-90754514D01*
X155063172Y-90749981D01*
X155034054Y-90737670D01*
X155033181Y-90737272D01*
X155018060Y-90729356D01*
X155007891Y-90718495D01*
X155001691Y-90699471D01*
X154998478Y-90667069D01*
X154997270Y-90616071D01*
X154997086Y-90541261D01*
X154996714Y-90493804D01*
X154992750Y-90404615D01*
X154983673Y-90339287D01*
X154968524Y-90294393D01*
X154946345Y-90266507D01*
X154916175Y-90252203D01*
X154911990Y-90251206D01*
X154855480Y-90250427D01*
X154811410Y-90275744D01*
X154780972Y-90326502D01*
X154775544Y-90341175D01*
X154763171Y-90373649D01*
X154756905Y-90388572D01*
X154744036Y-90386516D01*
X154715933Y-90375357D01*
X154689721Y-90356927D01*
X154677771Y-90322098D01*
X154681336Y-90297151D01*
X154703235Y-90246547D01*
X154738644Y-90199128D01*
X154780052Y-90166334D01*
X154797400Y-90158752D01*
X154863089Y-90146076D01*
X154932829Y-90151097D01*
G37*
X158881020Y-90117822D02*
X158948810Y-90149680D01*
X159004366Y-90204770D01*
X159015881Y-90222016D01*
X159025432Y-90241562D01*
X159032206Y-90266198D01*
X159036819Y-90300711D01*
X159039888Y-90349889D01*
X159042029Y-90418519D01*
X159043859Y-90511389D01*
X159048404Y-90769007D01*
X159010225Y-90754491D01*
X158975268Y-90741156D01*
X158949097Y-90728323D01*
X158932013Y-90711780D01*
X158922086Y-90686465D01*
X158917386Y-90647316D01*
X158915982Y-90589268D01*
X158915943Y-90507261D01*
X158915744Y-90441895D01*
X158914559Y-90379173D01*
X158911729Y-90336334D01*
X158906609Y-90308220D01*
X158898553Y-90289675D01*
X158886914Y-90275543D01*
X158858303Y-90255600D01*
X158810239Y-90248083D01*
X158762688Y-90267079D01*
X158759550Y-90269511D01*
X158749769Y-90280748D01*
X158742553Y-90298770D01*
X158737299Y-90328026D01*
X158733402Y-90372962D01*
X158730256Y-90438028D01*
X158727257Y-90527670D01*
X158720000Y-90767697D01*
X158658314Y-90740044D01*
X158596629Y-90712391D01*
X158596629Y-90493246D01*
X158596884Y-90433711D01*
X158599086Y-90350892D01*
X158604661Y-90289227D01*
X158614941Y-90243748D01*
X158631258Y-90209484D01*
X158654943Y-90181466D01*
X158687328Y-90154723D01*
X158733907Y-90127780D01*
X158807287Y-90110191D01*
X158881020Y-90117822D01*
G36*
X158881020Y-90117822D02*
G01*
X158948810Y-90149680D01*
X159004366Y-90204770D01*
X159015881Y-90222016D01*
X159025432Y-90241562D01*
X159032206Y-90266198D01*
X159036819Y-90300711D01*
X159039888Y-90349889D01*
X159042029Y-90418519D01*
X159043859Y-90511389D01*
X159048404Y-90769007D01*
X159010225Y-90754491D01*
X158975268Y-90741156D01*
X158949097Y-90728323D01*
X158932013Y-90711780D01*
X158922086Y-90686465D01*
X158917386Y-90647316D01*
X158915982Y-90589268D01*
X158915943Y-90507261D01*
X158915744Y-90441895D01*
X158914559Y-90379173D01*
X158911729Y-90336334D01*
X158906609Y-90308220D01*
X158898553Y-90289675D01*
X158886914Y-90275543D01*
X158858303Y-90255600D01*
X158810239Y-90248083D01*
X158762688Y-90267079D01*
X158759550Y-90269511D01*
X158749769Y-90280748D01*
X158742553Y-90298770D01*
X158737299Y-90328026D01*
X158733402Y-90372962D01*
X158730256Y-90438028D01*
X158727257Y-90527670D01*
X158720000Y-90767697D01*
X158658314Y-90740044D01*
X158596629Y-90712391D01*
X158596629Y-90493246D01*
X158596884Y-90433711D01*
X158599086Y-90350892D01*
X158604661Y-90289227D01*
X158614941Y-90243748D01*
X158631258Y-90209484D01*
X158654943Y-90181466D01*
X158687328Y-90154723D01*
X158733907Y-90127780D01*
X158807287Y-90110191D01*
X158881020Y-90117822D01*
G37*
X157057691Y-90166467D02*
X157062273Y-90169003D01*
X157099704Y-90198057D01*
X157133170Y-90235410D01*
X157139007Y-90243852D01*
X157150165Y-90263553D01*
X157158136Y-90286935D01*
X157163618Y-90319067D01*
X157167307Y-90365019D01*
X157169899Y-90429859D01*
X157172092Y-90518657D01*
X157172402Y-90533669D01*
X157173400Y-90630999D01*
X157171994Y-90699934D01*
X157168164Y-90740948D01*
X157161889Y-90754514D01*
X157142898Y-90750452D01*
X157110638Y-90738144D01*
X157103041Y-90734545D01*
X157091176Y-90726398D01*
X157082994Y-90713004D01*
X157077643Y-90689608D01*
X157074269Y-90651455D01*
X157072019Y-90593790D01*
X157070040Y-90511857D01*
X157069498Y-90487907D01*
X157067403Y-90412266D01*
X157064683Y-90359328D01*
X157060515Y-90324075D01*
X157054079Y-90301487D01*
X157044550Y-90286544D01*
X157031106Y-90274227D01*
X156991305Y-90252634D01*
X156942341Y-90248476D01*
X156898529Y-90264999D01*
X156867008Y-90299210D01*
X156854914Y-90348114D01*
X156854578Y-90361407D01*
X156847972Y-90385472D01*
X156828470Y-90389144D01*
X156790283Y-90374813D01*
X156781438Y-90370217D01*
X156757534Y-90343186D01*
X156757061Y-90302994D01*
X156779836Y-90247409D01*
X156800727Y-90217117D01*
X156854142Y-90174084D01*
X156920074Y-90149755D01*
X156990574Y-90146443D01*
X157057691Y-90166467D01*
G36*
X157057691Y-90166467D02*
G01*
X157062273Y-90169003D01*
X157099704Y-90198057D01*
X157133170Y-90235410D01*
X157139007Y-90243852D01*
X157150165Y-90263553D01*
X157158136Y-90286935D01*
X157163618Y-90319067D01*
X157167307Y-90365019D01*
X157169899Y-90429859D01*
X157172092Y-90518657D01*
X157172402Y-90533669D01*
X157173400Y-90630999D01*
X157171994Y-90699934D01*
X157168164Y-90740948D01*
X157161889Y-90754514D01*
X157142898Y-90750452D01*
X157110638Y-90738144D01*
X157103041Y-90734545D01*
X157091176Y-90726398D01*
X157082994Y-90713004D01*
X157077643Y-90689608D01*
X157074269Y-90651455D01*
X157072019Y-90593790D01*
X157070040Y-90511857D01*
X157069498Y-90487907D01*
X157067403Y-90412266D01*
X157064683Y-90359328D01*
X157060515Y-90324075D01*
X157054079Y-90301487D01*
X157044550Y-90286544D01*
X157031106Y-90274227D01*
X156991305Y-90252634D01*
X156942341Y-90248476D01*
X156898529Y-90264999D01*
X156867008Y-90299210D01*
X156854914Y-90348114D01*
X156854578Y-90361407D01*
X156847972Y-90385472D01*
X156828470Y-90389144D01*
X156790283Y-90374813D01*
X156781438Y-90370217D01*
X156757534Y-90343186D01*
X156757061Y-90302994D01*
X156779836Y-90247409D01*
X156800727Y-90217117D01*
X156854142Y-90174084D01*
X156920074Y-90149755D01*
X156990574Y-90146443D01*
X157057691Y-90166467D01*
G37*
X156103941Y-90149282D02*
X156135774Y-90161758D01*
X156172743Y-90178602D01*
X156172743Y-90665196D01*
X156126812Y-90711127D01*
X156116320Y-90721427D01*
X156087255Y-90744320D01*
X156057943Y-90751735D01*
X156014326Y-90748321D01*
X155996568Y-90746114D01*
X155950767Y-90741445D01*
X155918743Y-90739585D01*
X155909244Y-90739869D01*
X155870274Y-90742948D01*
X155823160Y-90748321D01*
X155808085Y-90750168D01*
X155770110Y-90750893D01*
X155742325Y-90739429D01*
X155710674Y-90711127D01*
X155664743Y-90665196D01*
X155664743Y-90405055D01*
X155665101Y-90328180D01*
X155666216Y-90254886D01*
X155667952Y-90196850D01*
X155670167Y-90158663D01*
X155672721Y-90144914D01*
X155673256Y-90144951D01*
X155691808Y-90151793D01*
X155723153Y-90166868D01*
X155765608Y-90188822D01*
X155769604Y-90417240D01*
X155773600Y-90645657D01*
X155860686Y-90645657D01*
X155864657Y-90395286D01*
X155865916Y-90327227D01*
X155867718Y-90254482D01*
X155869671Y-90196730D01*
X155871612Y-90158648D01*
X155873377Y-90144914D01*
X155873885Y-90144962D01*
X155891482Y-90150015D01*
X155923834Y-90160849D01*
X155969543Y-90176783D01*
X155969765Y-90396706D01*
X155969988Y-90434909D01*
X155971531Y-90509146D01*
X155974292Y-90571145D01*
X155977977Y-90615308D01*
X155982292Y-90636041D01*
X155997732Y-90647131D01*
X156029241Y-90650556D01*
X156063886Y-90645657D01*
X156067857Y-90395286D01*
X156069278Y-90331663D01*
X156072225Y-90256356D01*
X156076079Y-90197286D01*
X156080542Y-90158718D01*
X156085317Y-90144914D01*
X156103941Y-90149282D01*
G36*
X156103941Y-90149282D02*
G01*
X156135774Y-90161758D01*
X156172743Y-90178602D01*
X156172743Y-90665196D01*
X156126812Y-90711127D01*
X156116320Y-90721427D01*
X156087255Y-90744320D01*
X156057943Y-90751735D01*
X156014326Y-90748321D01*
X155996568Y-90746114D01*
X155950767Y-90741445D01*
X155918743Y-90739585D01*
X155909244Y-90739869D01*
X155870274Y-90742948D01*
X155823160Y-90748321D01*
X155808085Y-90750168D01*
X155770110Y-90750893D01*
X155742325Y-90739429D01*
X155710674Y-90711127D01*
X155664743Y-90665196D01*
X155664743Y-90405055D01*
X155665101Y-90328180D01*
X155666216Y-90254886D01*
X155667952Y-90196850D01*
X155670167Y-90158663D01*
X155672721Y-90144914D01*
X155673256Y-90144951D01*
X155691808Y-90151793D01*
X155723153Y-90166868D01*
X155765608Y-90188822D01*
X155769604Y-90417240D01*
X155773600Y-90645657D01*
X155860686Y-90645657D01*
X155864657Y-90395286D01*
X155865916Y-90327227D01*
X155867718Y-90254482D01*
X155869671Y-90196730D01*
X155871612Y-90158648D01*
X155873377Y-90144914D01*
X155873885Y-90144962D01*
X155891482Y-90150015D01*
X155923834Y-90160849D01*
X155969543Y-90176783D01*
X155969765Y-90396706D01*
X155969988Y-90434909D01*
X155971531Y-90509146D01*
X155974292Y-90571145D01*
X155977977Y-90615308D01*
X155982292Y-90636041D01*
X155997732Y-90647131D01*
X156029241Y-90650556D01*
X156063886Y-90645657D01*
X156067857Y-90395286D01*
X156069278Y-90331663D01*
X156072225Y-90256356D01*
X156076079Y-90197286D01*
X156080542Y-90158718D01*
X156085317Y-90144914D01*
X156103941Y-90149282D01*
G37*
X158128543Y-89949444D02*
X158175714Y-89969342D01*
X158175714Y-90366509D01*
X158175519Y-90469498D01*
X158174998Y-90562141D01*
X158174199Y-90640700D01*
X158173172Y-90701439D01*
X158171963Y-90740623D01*
X158170623Y-90754514D01*
X158170099Y-90754468D01*
X158152287Y-90749420D01*
X158119823Y-90738580D01*
X158074114Y-90722646D01*
X158074114Y-90518173D01*
X158073824Y-90437832D01*
X158072474Y-90379562D01*
X158069369Y-90339909D01*
X158063812Y-90313618D01*
X158055107Y-90295436D01*
X158042556Y-90280107D01*
X158033999Y-90271955D01*
X157987728Y-90249375D01*
X157936728Y-90251375D01*
X157889993Y-90278073D01*
X157883189Y-90284698D01*
X157872293Y-90298456D01*
X157864836Y-90316642D01*
X157860169Y-90344177D01*
X157857642Y-90385981D01*
X157856602Y-90446973D01*
X157856400Y-90532073D01*
X157856303Y-90575234D01*
X157855674Y-90646224D01*
X157854556Y-90703076D01*
X157853063Y-90740828D01*
X157851309Y-90754514D01*
X157850785Y-90754468D01*
X157832973Y-90749420D01*
X157800509Y-90738580D01*
X157754800Y-90722646D01*
X157754823Y-90517237D01*
X157754857Y-90498951D01*
X157756778Y-90403626D01*
X157762678Y-90331543D01*
X157774001Y-90277813D01*
X157792187Y-90237549D01*
X157818679Y-90205861D01*
X157854918Y-90177861D01*
X157890263Y-90160333D01*
X157946773Y-90146785D01*
X158002356Y-90146015D01*
X158045086Y-90159195D01*
X158048298Y-90161015D01*
X158058205Y-90160820D01*
X158064975Y-90145572D01*
X158069861Y-90110613D01*
X158074114Y-90051289D01*
X158081371Y-89929547D01*
X158128543Y-89949444D01*
G36*
X158128543Y-89949444D02*
G01*
X158175714Y-89969342D01*
X158175714Y-90366509D01*
X158175519Y-90469498D01*
X158174998Y-90562141D01*
X158174199Y-90640700D01*
X158173172Y-90701439D01*
X158171963Y-90740623D01*
X158170623Y-90754514D01*
X158170099Y-90754468D01*
X158152287Y-90749420D01*
X158119823Y-90738580D01*
X158074114Y-90722646D01*
X158074114Y-90518173D01*
X158073824Y-90437832D01*
X158072474Y-90379562D01*
X158069369Y-90339909D01*
X158063812Y-90313618D01*
X158055107Y-90295436D01*
X158042556Y-90280107D01*
X158033999Y-90271955D01*
X157987728Y-90249375D01*
X157936728Y-90251375D01*
X157889993Y-90278073D01*
X157883189Y-90284698D01*
X157872293Y-90298456D01*
X157864836Y-90316642D01*
X157860169Y-90344177D01*
X157857642Y-90385981D01*
X157856602Y-90446973D01*
X157856400Y-90532073D01*
X157856303Y-90575234D01*
X157855674Y-90646224D01*
X157854556Y-90703076D01*
X157853063Y-90740828D01*
X157851309Y-90754514D01*
X157850785Y-90754468D01*
X157832973Y-90749420D01*
X157800509Y-90738580D01*
X157754800Y-90722646D01*
X157754823Y-90517237D01*
X157754857Y-90498951D01*
X157756778Y-90403626D01*
X157762678Y-90331543D01*
X157774001Y-90277813D01*
X157792187Y-90237549D01*
X157818679Y-90205861D01*
X157854918Y-90177861D01*
X157890263Y-90160333D01*
X157946773Y-90146785D01*
X158002356Y-90146015D01*
X158045086Y-90159195D01*
X158048298Y-90161015D01*
X158058205Y-90160820D01*
X158064975Y-90145572D01*
X158069861Y-90110613D01*
X158074114Y-90051289D01*
X158081371Y-89929547D01*
X158128543Y-89949444D01*
G37*
X160715714Y-90435200D02*
X160715701Y-90450935D01*
X160714914Y-90521119D01*
X160712210Y-90570022D01*
X160706606Y-90604178D01*
X160697119Y-90630124D01*
X160682768Y-90654397D01*
X160679237Y-90659433D01*
X160641878Y-90699143D01*
X160599311Y-90729092D01*
X160577452Y-90738810D01*
X160498908Y-90755020D01*
X160421231Y-90744535D01*
X160349645Y-90708707D01*
X160289374Y-90648887D01*
X160284286Y-90640873D01*
X160267730Y-90594342D01*
X160256573Y-90529552D01*
X160251160Y-90454727D01*
X160251768Y-90385513D01*
X160398248Y-90385513D01*
X160399402Y-90481399D01*
X160399866Y-90487569D01*
X160406629Y-90540478D01*
X160418671Y-90574029D01*
X160439005Y-90597016D01*
X160473097Y-90618548D01*
X160506814Y-90619680D01*
X160541543Y-90594857D01*
X160547584Y-90588325D01*
X160559417Y-90568779D01*
X160566404Y-90540386D01*
X160569727Y-90496430D01*
X160570571Y-90430192D01*
X160569125Y-90368150D01*
X160561907Y-90309042D01*
X160547006Y-90271686D01*
X160522636Y-90252152D01*
X160487008Y-90246514D01*
X160473440Y-90247635D01*
X160435430Y-90268194D01*
X160410312Y-90314299D01*
X160398248Y-90385513D01*
X160251768Y-90385513D01*
X160251833Y-90378096D01*
X160258937Y-90307882D01*
X160272815Y-90252312D01*
X160290649Y-90215301D01*
X160340855Y-90157733D01*
X160408885Y-90121962D01*
X160492158Y-90109665D01*
X160514398Y-90110331D01*
X160579891Y-90123947D01*
X160633687Y-90158249D01*
X160683057Y-90217338D01*
X160685995Y-90221722D01*
X160699287Y-90245299D01*
X160707932Y-90271949D01*
X160712904Y-90308159D01*
X160715174Y-90360413D01*
X160715678Y-90430192D01*
X160715714Y-90435200D01*
G36*
X160715714Y-90435200D02*
G01*
X160715701Y-90450935D01*
X160714914Y-90521119D01*
X160712210Y-90570022D01*
X160706606Y-90604178D01*
X160697119Y-90630124D01*
X160682768Y-90654397D01*
X160679237Y-90659433D01*
X160641878Y-90699143D01*
X160599311Y-90729092D01*
X160577452Y-90738810D01*
X160498908Y-90755020D01*
X160421231Y-90744535D01*
X160349645Y-90708707D01*
X160289374Y-90648887D01*
X160284286Y-90640873D01*
X160267730Y-90594342D01*
X160256573Y-90529552D01*
X160251160Y-90454727D01*
X160251768Y-90385513D01*
X160398248Y-90385513D01*
X160399402Y-90481399D01*
X160399866Y-90487569D01*
X160406629Y-90540478D01*
X160418671Y-90574029D01*
X160439005Y-90597016D01*
X160473097Y-90618548D01*
X160506814Y-90619680D01*
X160541543Y-90594857D01*
X160547584Y-90588325D01*
X160559417Y-90568779D01*
X160566404Y-90540386D01*
X160569727Y-90496430D01*
X160570571Y-90430192D01*
X160569125Y-90368150D01*
X160561907Y-90309042D01*
X160547006Y-90271686D01*
X160522636Y-90252152D01*
X160487008Y-90246514D01*
X160473440Y-90247635D01*
X160435430Y-90268194D01*
X160410312Y-90314299D01*
X160398248Y-90385513D01*
X160251768Y-90385513D01*
X160251833Y-90378096D01*
X160258937Y-90307882D01*
X160272815Y-90252312D01*
X160290649Y-90215301D01*
X160340855Y-90157733D01*
X160408885Y-90121962D01*
X160492158Y-90109665D01*
X160514398Y-90110331D01*
X160579891Y-90123947D01*
X160633687Y-90158249D01*
X160683057Y-90217338D01*
X160685995Y-90221722D01*
X160699287Y-90245299D01*
X160707932Y-90271949D01*
X160712904Y-90308159D01*
X160715174Y-90360413D01*
X160715678Y-90430192D01*
X160715714Y-90435200D01*
G37*
X154590590Y-90452622D02*
X154590307Y-90491305D01*
X154586762Y-90567521D01*
X154577483Y-90623294D01*
X154560375Y-90664613D01*
X154533344Y-90697467D01*
X154494292Y-90727846D01*
X154469445Y-90741660D01*
X154429615Y-90750965D01*
X154373665Y-90750230D01*
X154342385Y-90747283D01*
X154304653Y-90738283D01*
X154274494Y-90718720D01*
X154239408Y-90682267D01*
X154234720Y-90676943D01*
X154203177Y-90635969D01*
X154188128Y-90600283D01*
X154184286Y-90557966D01*
X154184286Y-90495779D01*
X154227742Y-90512182D01*
X154259424Y-90531356D01*
X154286962Y-90576347D01*
X154292711Y-90590752D01*
X154324855Y-90631546D01*
X154368611Y-90652081D01*
X154416254Y-90650235D01*
X154460057Y-90623886D01*
X154475111Y-90607455D01*
X154488763Y-90582667D01*
X154484493Y-90560144D01*
X154459916Y-90536964D01*
X154412651Y-90510202D01*
X154340314Y-90476934D01*
X154191543Y-90411816D01*
X154187595Y-90347308D01*
X154189079Y-90306220D01*
X154286010Y-90306220D01*
X154293368Y-90331657D01*
X154326848Y-90358814D01*
X154387614Y-90389714D01*
X154397669Y-90394190D01*
X154445751Y-90415017D01*
X154481726Y-90429665D01*
X154498444Y-90435200D01*
X154500977Y-90431126D01*
X154501993Y-90406247D01*
X154498369Y-90366257D01*
X154489242Y-90327152D01*
X154460773Y-90277884D01*
X154419678Y-90250122D01*
X154370590Y-90246364D01*
X154318144Y-90269109D01*
X154303609Y-90280481D01*
X154286010Y-90306220D01*
X154189079Y-90306220D01*
X154189338Y-90299064D01*
X154211281Y-90238096D01*
X154238979Y-90204497D01*
X154296405Y-90166966D01*
X154364527Y-90148006D01*
X154434947Y-90149507D01*
X154499267Y-90173355D01*
X154513426Y-90182513D01*
X154545904Y-90210849D01*
X154568116Y-90246695D01*
X154581804Y-90295384D01*
X154588715Y-90362249D01*
X154589628Y-90406247D01*
X154590590Y-90452622D01*
G36*
X154590590Y-90452622D02*
G01*
X154590307Y-90491305D01*
X154586762Y-90567521D01*
X154577483Y-90623294D01*
X154560375Y-90664613D01*
X154533344Y-90697467D01*
X154494292Y-90727846D01*
X154469445Y-90741660D01*
X154429615Y-90750965D01*
X154373665Y-90750230D01*
X154342385Y-90747283D01*
X154304653Y-90738283D01*
X154274494Y-90718720D01*
X154239408Y-90682267D01*
X154234720Y-90676943D01*
X154203177Y-90635969D01*
X154188128Y-90600283D01*
X154184286Y-90557966D01*
X154184286Y-90495779D01*
X154227742Y-90512182D01*
X154259424Y-90531356D01*
X154286962Y-90576347D01*
X154292711Y-90590752D01*
X154324855Y-90631546D01*
X154368611Y-90652081D01*
X154416254Y-90650235D01*
X154460057Y-90623886D01*
X154475111Y-90607455D01*
X154488763Y-90582667D01*
X154484493Y-90560144D01*
X154459916Y-90536964D01*
X154412651Y-90510202D01*
X154340314Y-90476934D01*
X154191543Y-90411816D01*
X154187595Y-90347308D01*
X154189079Y-90306220D01*
X154286010Y-90306220D01*
X154293368Y-90331657D01*
X154326848Y-90358814D01*
X154387614Y-90389714D01*
X154397669Y-90394190D01*
X154445751Y-90415017D01*
X154481726Y-90429665D01*
X154498444Y-90435200D01*
X154500977Y-90431126D01*
X154501993Y-90406247D01*
X154498369Y-90366257D01*
X154489242Y-90327152D01*
X154460773Y-90277884D01*
X154419678Y-90250122D01*
X154370590Y-90246364D01*
X154318144Y-90269109D01*
X154303609Y-90280481D01*
X154286010Y-90306220D01*
X154189079Y-90306220D01*
X154189338Y-90299064D01*
X154211281Y-90238096D01*
X154238979Y-90204497D01*
X154296405Y-90166966D01*
X154364527Y-90148006D01*
X154434947Y-90149507D01*
X154499267Y-90173355D01*
X154513426Y-90182513D01*
X154545904Y-90210849D01*
X154568116Y-90246695D01*
X154581804Y-90295384D01*
X154588715Y-90362249D01*
X154589628Y-90406247D01*
X154590590Y-90452622D01*
G37*
X156680698Y-90449714D02*
X156679537Y-90506313D01*
X156671345Y-90583462D01*
X156653519Y-90641276D01*
X156623975Y-90685422D01*
X156580625Y-90721568D01*
X156539332Y-90742463D01*
X156469987Y-90754090D01*
X156400736Y-90741377D01*
X156338145Y-90705945D01*
X156288779Y-90649418D01*
X156282818Y-90638995D01*
X156274945Y-90620733D01*
X156269106Y-90597429D01*
X156264999Y-90565085D01*
X156262325Y-90519704D01*
X156260781Y-90457287D01*
X156260734Y-90451748D01*
X156361429Y-90451748D01*
X156361772Y-90504577D01*
X156363942Y-90552362D01*
X156369307Y-90583209D01*
X156379217Y-90603935D01*
X156395021Y-90621356D01*
X156398724Y-90624705D01*
X156446299Y-90649419D01*
X156496635Y-90646890D01*
X156543517Y-90617288D01*
X156557477Y-90601953D01*
X156569160Y-90581622D01*
X156575686Y-90553514D01*
X156578524Y-90510550D01*
X156579143Y-90445647D01*
X156578837Y-90396122D01*
X156576722Y-90347782D01*
X156571390Y-90316587D01*
X156561460Y-90295647D01*
X156545550Y-90278073D01*
X156536204Y-90270159D01*
X156487776Y-90248843D01*
X156437040Y-90252198D01*
X156392987Y-90280107D01*
X156383504Y-90291173D01*
X156371939Y-90312009D01*
X156365252Y-90341106D01*
X156362173Y-90385381D01*
X156361429Y-90451748D01*
X156260734Y-90451748D01*
X156260067Y-90373837D01*
X156259883Y-90265358D01*
X156259829Y-89928601D01*
X156307000Y-89948362D01*
X156319472Y-89953770D01*
X156339324Y-89965985D01*
X156350687Y-89984482D01*
X156356933Y-90016829D01*
X156361429Y-90070593D01*
X156365535Y-90118866D01*
X156370963Y-90150557D01*
X156378739Y-90162383D01*
X156390457Y-90159212D01*
X156420318Y-90148067D01*
X156473684Y-90145304D01*
X156531093Y-90155625D01*
X156580625Y-90177861D01*
X156607876Y-90198443D01*
X156642865Y-90238600D01*
X156665274Y-90290086D01*
X156677190Y-90358568D01*
X156680542Y-90445647D01*
X156680698Y-90449714D01*
G36*
X156680698Y-90449714D02*
G01*
X156679537Y-90506313D01*
X156671345Y-90583462D01*
X156653519Y-90641276D01*
X156623975Y-90685422D01*
X156580625Y-90721568D01*
X156539332Y-90742463D01*
X156469987Y-90754090D01*
X156400736Y-90741377D01*
X156338145Y-90705945D01*
X156288779Y-90649418D01*
X156282818Y-90638995D01*
X156274945Y-90620733D01*
X156269106Y-90597429D01*
X156264999Y-90565085D01*
X156262325Y-90519704D01*
X156260781Y-90457287D01*
X156260734Y-90451748D01*
X156361429Y-90451748D01*
X156361772Y-90504577D01*
X156363942Y-90552362D01*
X156369307Y-90583209D01*
X156379217Y-90603935D01*
X156395021Y-90621356D01*
X156398724Y-90624705D01*
X156446299Y-90649419D01*
X156496635Y-90646890D01*
X156543517Y-90617288D01*
X156557477Y-90601953D01*
X156569160Y-90581622D01*
X156575686Y-90553514D01*
X156578524Y-90510550D01*
X156579143Y-90445647D01*
X156578837Y-90396122D01*
X156576722Y-90347782D01*
X156571390Y-90316587D01*
X156561460Y-90295647D01*
X156545550Y-90278073D01*
X156536204Y-90270159D01*
X156487776Y-90248843D01*
X156437040Y-90252198D01*
X156392987Y-90280107D01*
X156383504Y-90291173D01*
X156371939Y-90312009D01*
X156365252Y-90341106D01*
X156362173Y-90385381D01*
X156361429Y-90451748D01*
X156260734Y-90451748D01*
X156260067Y-90373837D01*
X156259883Y-90265358D01*
X156259829Y-89928601D01*
X156307000Y-89948362D01*
X156319472Y-89953770D01*
X156339324Y-89965985D01*
X156350687Y-89984482D01*
X156356933Y-90016829D01*
X156361429Y-90070593D01*
X156365535Y-90118866D01*
X156370963Y-90150557D01*
X156378739Y-90162383D01*
X156390457Y-90159212D01*
X156420318Y-90148067D01*
X156473684Y-90145304D01*
X156531093Y-90155625D01*
X156580625Y-90177861D01*
X156607876Y-90198443D01*
X156642865Y-90238600D01*
X156665274Y-90290086D01*
X156677190Y-90358568D01*
X156680542Y-90445647D01*
X156680698Y-90449714D01*
G37*
X159612299Y-90394055D02*
X159607684Y-90504078D01*
X159605078Y-90527387D01*
X159585660Y-90610352D01*
X159550573Y-90673448D01*
X159497212Y-90721808D01*
X159494196Y-90723804D01*
X159426362Y-90752185D01*
X159355535Y-90754711D01*
X159287289Y-90733097D01*
X159227196Y-90689062D01*
X159180829Y-90624322D01*
X159180050Y-90622761D01*
X159164643Y-90582558D01*
X159153357Y-90536866D01*
X159147370Y-90493972D01*
X159147861Y-90462160D01*
X159156007Y-90449714D01*
X159163244Y-90450471D01*
X159197851Y-90464235D01*
X159237078Y-90489546D01*
X159270448Y-90518845D01*
X159287483Y-90544572D01*
X159305192Y-90579471D01*
X159341485Y-90611212D01*
X159383630Y-90623886D01*
X159399077Y-90620221D01*
X159429569Y-90601774D01*
X159456128Y-90576166D01*
X159467486Y-90552934D01*
X159467482Y-90552848D01*
X159454596Y-90542179D01*
X159420241Y-90522933D01*
X159369593Y-90497813D01*
X159307829Y-90469524D01*
X159307489Y-90469374D01*
X159240388Y-90439498D01*
X159195411Y-90417973D01*
X159168145Y-90401437D01*
X159154178Y-90386531D01*
X159149097Y-90369893D01*
X159148490Y-90348162D01*
X159152712Y-90307013D01*
X159296000Y-90307013D01*
X159310791Y-90319949D01*
X159347644Y-90339333D01*
X159348725Y-90339881D01*
X159392205Y-90360587D01*
X159431102Y-90377105D01*
X159455778Y-90384093D01*
X159465676Y-90374753D01*
X159467486Y-90342748D01*
X159459966Y-90302915D01*
X159433897Y-90266717D01*
X159396154Y-90247950D01*
X159354077Y-90249845D01*
X159315005Y-90275632D01*
X159299647Y-90293451D01*
X159296000Y-90307013D01*
X159152712Y-90307013D01*
X159153833Y-90296086D01*
X159180251Y-90225335D01*
X159224473Y-90169735D01*
X159281697Y-90131239D01*
X159347120Y-90111797D01*
X159415937Y-90113359D01*
X159483347Y-90137878D01*
X159544544Y-90187302D01*
X159578450Y-90236212D01*
X159602806Y-90306027D01*
X159606767Y-90342748D01*
X159612299Y-90394055D01*
G36*
X159612299Y-90394055D02*
G01*
X159607684Y-90504078D01*
X159605078Y-90527387D01*
X159585660Y-90610352D01*
X159550573Y-90673448D01*
X159497212Y-90721808D01*
X159494196Y-90723804D01*
X159426362Y-90752185D01*
X159355535Y-90754711D01*
X159287289Y-90733097D01*
X159227196Y-90689062D01*
X159180829Y-90624322D01*
X159180050Y-90622761D01*
X159164643Y-90582558D01*
X159153357Y-90536866D01*
X159147370Y-90493972D01*
X159147861Y-90462160D01*
X159156007Y-90449714D01*
X159163244Y-90450471D01*
X159197851Y-90464235D01*
X159237078Y-90489546D01*
X159270448Y-90518845D01*
X159287483Y-90544572D01*
X159305192Y-90579471D01*
X159341485Y-90611212D01*
X159383630Y-90623886D01*
X159399077Y-90620221D01*
X159429569Y-90601774D01*
X159456128Y-90576166D01*
X159467486Y-90552934D01*
X159467482Y-90552848D01*
X159454596Y-90542179D01*
X159420241Y-90522933D01*
X159369593Y-90497813D01*
X159307829Y-90469524D01*
X159307489Y-90469374D01*
X159240388Y-90439498D01*
X159195411Y-90417973D01*
X159168145Y-90401437D01*
X159154178Y-90386531D01*
X159149097Y-90369893D01*
X159148490Y-90348162D01*
X159152712Y-90307013D01*
X159296000Y-90307013D01*
X159310791Y-90319949D01*
X159347644Y-90339333D01*
X159348725Y-90339881D01*
X159392205Y-90360587D01*
X159431102Y-90377105D01*
X159455778Y-90384093D01*
X159465676Y-90374753D01*
X159467486Y-90342748D01*
X159459966Y-90302915D01*
X159433897Y-90266717D01*
X159396154Y-90247950D01*
X159354077Y-90249845D01*
X159315005Y-90275632D01*
X159299647Y-90293451D01*
X159296000Y-90307013D01*
X159152712Y-90307013D01*
X159153833Y-90296086D01*
X159180251Y-90225335D01*
X159224473Y-90169735D01*
X159281697Y-90131239D01*
X159347120Y-90111797D01*
X159415937Y-90113359D01*
X159483347Y-90137878D01*
X159544544Y-90187302D01*
X159578450Y-90236212D01*
X159602806Y-90306027D01*
X159606767Y-90342748D01*
X159612299Y-90394055D01*
G37*
X157539483Y-90160569D02*
X157589376Y-90189661D01*
X157611325Y-90212327D01*
X157653504Y-90280082D01*
X157667714Y-90353950D01*
X157667714Y-90404770D01*
X157620999Y-90385128D01*
X157588692Y-90365308D01*
X157563231Y-90324160D01*
X157560616Y-90315675D01*
X157532478Y-90272451D01*
X157490067Y-90249103D01*
X157441370Y-90248100D01*
X157394373Y-90271914D01*
X157387357Y-90278056D01*
X157363893Y-90304745D01*
X157360019Y-90328014D01*
X157377768Y-90350862D01*
X157419179Y-90376287D01*
X157486286Y-90407288D01*
X157490824Y-90409252D01*
X157565322Y-90443990D01*
X157616203Y-90474763D01*
X157647525Y-90505488D01*
X157663343Y-90540082D01*
X157667714Y-90582462D01*
X157661986Y-90629446D01*
X157633062Y-90689585D01*
X157582178Y-90732788D01*
X157545374Y-90745759D01*
X157493434Y-90752856D01*
X157442999Y-90751340D01*
X157406983Y-90740632D01*
X157403158Y-90737966D01*
X157392998Y-90719337D01*
X157400048Y-90686505D01*
X157412297Y-90660735D01*
X157431939Y-90650006D01*
X157469191Y-90650539D01*
X157520908Y-90647462D01*
X157554701Y-90626212D01*
X157566114Y-90586877D01*
X157566104Y-90585747D01*
X157559187Y-90562913D01*
X157535659Y-90541963D01*
X157489914Y-90517815D01*
X157427704Y-90488741D01*
X157386499Y-90472925D01*
X157362712Y-90473944D01*
X157351597Y-90494837D01*
X157348408Y-90538641D01*
X157348400Y-90608393D01*
X157348044Y-90651452D01*
X157346413Y-90704626D01*
X157343761Y-90741022D01*
X157340422Y-90754514D01*
X157339530Y-90754423D01*
X157320237Y-90747110D01*
X157288284Y-90731678D01*
X157244124Y-90708842D01*
X157249371Y-90503078D01*
X157249736Y-90489432D01*
X157253904Y-90393651D01*
X157261268Y-90321462D01*
X157273330Y-90268058D01*
X157291593Y-90228633D01*
X157317560Y-90198380D01*
X157352733Y-90172493D01*
X157353384Y-90172087D01*
X157410256Y-90150968D01*
X157476033Y-90147400D01*
X157539483Y-90160569D01*
G36*
X157539483Y-90160569D02*
G01*
X157589376Y-90189661D01*
X157611325Y-90212327D01*
X157653504Y-90280082D01*
X157667714Y-90353950D01*
X157667714Y-90404770D01*
X157620999Y-90385128D01*
X157588692Y-90365308D01*
X157563231Y-90324160D01*
X157560616Y-90315675D01*
X157532478Y-90272451D01*
X157490067Y-90249103D01*
X157441370Y-90248100D01*
X157394373Y-90271914D01*
X157387357Y-90278056D01*
X157363893Y-90304745D01*
X157360019Y-90328014D01*
X157377768Y-90350862D01*
X157419179Y-90376287D01*
X157486286Y-90407288D01*
X157490824Y-90409252D01*
X157565322Y-90443990D01*
X157616203Y-90474763D01*
X157647525Y-90505488D01*
X157663343Y-90540082D01*
X157667714Y-90582462D01*
X157661986Y-90629446D01*
X157633062Y-90689585D01*
X157582178Y-90732788D01*
X157545374Y-90745759D01*
X157493434Y-90752856D01*
X157442999Y-90751340D01*
X157406983Y-90740632D01*
X157403158Y-90737966D01*
X157392998Y-90719337D01*
X157400048Y-90686505D01*
X157412297Y-90660735D01*
X157431939Y-90650006D01*
X157469191Y-90650539D01*
X157520908Y-90647462D01*
X157554701Y-90626212D01*
X157566114Y-90586877D01*
X157566104Y-90585747D01*
X157559187Y-90562913D01*
X157535659Y-90541963D01*
X157489914Y-90517815D01*
X157427704Y-90488741D01*
X157386499Y-90472925D01*
X157362712Y-90473944D01*
X157351597Y-90494837D01*
X157348408Y-90538641D01*
X157348400Y-90608393D01*
X157348044Y-90651452D01*
X157346413Y-90704626D01*
X157343761Y-90741022D01*
X157340422Y-90754514D01*
X157339530Y-90754423D01*
X157320237Y-90747110D01*
X157288284Y-90731678D01*
X157244124Y-90708842D01*
X157249371Y-90503078D01*
X157249736Y-90489432D01*
X157253904Y-90393651D01*
X157261268Y-90321462D01*
X157273330Y-90268058D01*
X157291593Y-90228633D01*
X157317560Y-90198380D01*
X157352733Y-90172493D01*
X157353384Y-90172087D01*
X157410256Y-90150968D01*
X157476033Y-90147400D01*
X157539483Y-90160569D01*
G37*
X155417495Y-90146220D02*
X155448599Y-90154121D01*
X155477559Y-90173817D01*
X155514831Y-90210484D01*
X155538801Y-90236378D01*
X155563770Y-90269997D01*
X155575031Y-90301506D01*
X155577657Y-90341485D01*
X155577657Y-90406917D01*
X155533035Y-90383842D01*
X155497673Y-90355724D01*
X155473451Y-90317848D01*
X155469291Y-90307551D01*
X155437594Y-90267637D01*
X155393554Y-90247624D01*
X155345531Y-90249572D01*
X155301886Y-90275543D01*
X155283420Y-90296635D01*
X155272663Y-90323619D01*
X155284178Y-90347634D01*
X155319981Y-90371791D01*
X155382090Y-90399199D01*
X155391515Y-90402985D01*
X155448058Y-90427759D01*
X155496580Y-90452189D01*
X155527451Y-90471486D01*
X155558371Y-90505953D01*
X155578927Y-90560957D01*
X155576744Y-90619983D01*
X155552424Y-90675845D01*
X155506568Y-90721355D01*
X155469438Y-90740727D01*
X155397711Y-90754292D01*
X155357852Y-90752462D01*
X155320953Y-90742568D01*
X155306797Y-90721806D01*
X155312091Y-90687613D01*
X155313631Y-90683092D01*
X155325842Y-90659116D01*
X155346174Y-90650042D01*
X155384908Y-90650649D01*
X155412257Y-90651474D01*
X155444257Y-90644392D01*
X155466182Y-90623219D01*
X155478670Y-90597152D01*
X155480062Y-90569845D01*
X155479998Y-90569685D01*
X155463807Y-90554930D01*
X155429155Y-90533457D01*
X155384321Y-90509458D01*
X155337582Y-90487125D01*
X155297217Y-90470652D01*
X155271504Y-90464229D01*
X155267679Y-90470518D01*
X155262864Y-90500115D01*
X155259566Y-90548447D01*
X155258343Y-90609372D01*
X155258058Y-90651542D01*
X155256718Y-90704653D01*
X155254528Y-90741025D01*
X155251769Y-90754514D01*
X155237344Y-90749981D01*
X155208226Y-90737670D01*
X155171257Y-90720826D01*
X155171257Y-90504721D01*
X155171493Y-90449327D01*
X155173729Y-90365207D01*
X155179423Y-90302800D01*
X155189903Y-90257358D01*
X155206497Y-90224133D01*
X155230531Y-90198378D01*
X155263333Y-90175344D01*
X155305124Y-90156335D01*
X155382287Y-90144914D01*
X155417495Y-90146220D01*
G36*
X155417495Y-90146220D02*
G01*
X155448599Y-90154121D01*
X155477559Y-90173817D01*
X155514831Y-90210484D01*
X155538801Y-90236378D01*
X155563770Y-90269997D01*
X155575031Y-90301506D01*
X155577657Y-90341485D01*
X155577657Y-90406917D01*
X155533035Y-90383842D01*
X155497673Y-90355724D01*
X155473451Y-90317848D01*
X155469291Y-90307551D01*
X155437594Y-90267637D01*
X155393554Y-90247624D01*
X155345531Y-90249572D01*
X155301886Y-90275543D01*
X155283420Y-90296635D01*
X155272663Y-90323619D01*
X155284178Y-90347634D01*
X155319981Y-90371791D01*
X155382090Y-90399199D01*
X155391515Y-90402985D01*
X155448058Y-90427759D01*
X155496580Y-90452189D01*
X155527451Y-90471486D01*
X155558371Y-90505953D01*
X155578927Y-90560957D01*
X155576744Y-90619983D01*
X155552424Y-90675845D01*
X155506568Y-90721355D01*
X155469438Y-90740727D01*
X155397711Y-90754292D01*
X155357852Y-90752462D01*
X155320953Y-90742568D01*
X155306797Y-90721806D01*
X155312091Y-90687613D01*
X155313631Y-90683092D01*
X155325842Y-90659116D01*
X155346174Y-90650042D01*
X155384908Y-90650649D01*
X155412257Y-90651474D01*
X155444257Y-90644392D01*
X155466182Y-90623219D01*
X155478670Y-90597152D01*
X155480062Y-90569845D01*
X155479998Y-90569685D01*
X155463807Y-90554930D01*
X155429155Y-90533457D01*
X155384321Y-90509458D01*
X155337582Y-90487125D01*
X155297217Y-90470652D01*
X155271504Y-90464229D01*
X155267679Y-90470518D01*
X155262864Y-90500115D01*
X155259566Y-90548447D01*
X155258343Y-90609372D01*
X155258058Y-90651542D01*
X155256718Y-90704653D01*
X155254528Y-90741025D01*
X155251769Y-90754514D01*
X155237344Y-90749981D01*
X155208226Y-90737670D01*
X155171257Y-90720826D01*
X155171257Y-90504721D01*
X155171493Y-90449327D01*
X155173729Y-90365207D01*
X155179423Y-90302800D01*
X155189903Y-90257358D01*
X155206497Y-90224133D01*
X155230531Y-90198378D01*
X155263333Y-90175344D01*
X155305124Y-90156335D01*
X155382287Y-90144914D01*
X155417495Y-90146220D01*
G37*
X160159815Y-90501524D02*
X160161252Y-90613000D01*
X160161651Y-90645339D01*
X160162929Y-90753455D01*
X160163185Y-90836186D01*
X160161634Y-90896426D01*
X160157490Y-90937073D01*
X160149964Y-90961023D01*
X160138271Y-90971171D01*
X160121624Y-90970414D01*
X160099236Y-90961648D01*
X160070321Y-90947769D01*
X160064142Y-90944808D01*
X160038413Y-90930311D01*
X160024976Y-90913065D01*
X160019834Y-90884308D01*
X160018990Y-90835283D01*
X160018952Y-90747257D01*
X159928276Y-90747257D01*
X159872498Y-90744815D01*
X159828640Y-90734908D01*
X159792218Y-90714886D01*
X159789503Y-90712929D01*
X159752546Y-90679869D01*
X159726826Y-90639931D01*
X159710606Y-90587657D01*
X159702148Y-90517588D01*
X159700083Y-90438430D01*
X159844857Y-90438430D01*
X159844882Y-90451697D01*
X159846261Y-90511584D01*
X159850687Y-90550732D01*
X159859461Y-90576153D01*
X159873886Y-90594857D01*
X159874784Y-90595750D01*
X159910237Y-90619952D01*
X159944596Y-90617567D01*
X159983403Y-90588260D01*
X159992895Y-90578244D01*
X160006876Y-90557708D01*
X160014760Y-90530997D01*
X160018245Y-90490499D01*
X160019029Y-90428603D01*
X160018350Y-90391130D01*
X160010983Y-90322980D01*
X159994168Y-90278330D01*
X159966234Y-90253926D01*
X159925509Y-90246514D01*
X159908350Y-90248094D01*
X159878660Y-90263766D01*
X159859031Y-90298691D01*
X159848188Y-90355901D01*
X159844857Y-90438430D01*
X159700083Y-90438430D01*
X159699714Y-90424267D01*
X159700253Y-90356169D01*
X159702707Y-90304587D01*
X159708158Y-90268816D01*
X159717686Y-90242015D01*
X159732371Y-90217338D01*
X159745852Y-90198480D01*
X159794799Y-90147568D01*
X159850256Y-90119918D01*
X159919928Y-90111165D01*
X159999664Y-90119890D01*
X160068595Y-90151185D01*
X160123113Y-90206381D01*
X160127223Y-90212224D01*
X160136808Y-90227753D01*
X160144151Y-90245498D01*
X160149612Y-90269290D01*
X160153550Y-90302958D01*
X160156323Y-90350333D01*
X160158292Y-90415245D01*
X160158528Y-90428603D01*
X160159815Y-90501524D01*
G36*
X160159815Y-90501524D02*
G01*
X160161252Y-90613000D01*
X160161651Y-90645339D01*
X160162929Y-90753455D01*
X160163185Y-90836186D01*
X160161634Y-90896426D01*
X160157490Y-90937073D01*
X160149964Y-90961023D01*
X160138271Y-90971171D01*
X160121624Y-90970414D01*
X160099236Y-90961648D01*
X160070321Y-90947769D01*
X160064142Y-90944808D01*
X160038413Y-90930311D01*
X160024976Y-90913065D01*
X160019834Y-90884308D01*
X160018990Y-90835283D01*
X160018952Y-90747257D01*
X159928276Y-90747257D01*
X159872498Y-90744815D01*
X159828640Y-90734908D01*
X159792218Y-90714886D01*
X159789503Y-90712929D01*
X159752546Y-90679869D01*
X159726826Y-90639931D01*
X159710606Y-90587657D01*
X159702148Y-90517588D01*
X159700083Y-90438430D01*
X159844857Y-90438430D01*
X159844882Y-90451697D01*
X159846261Y-90511584D01*
X159850687Y-90550732D01*
X159859461Y-90576153D01*
X159873886Y-90594857D01*
X159874784Y-90595750D01*
X159910237Y-90619952D01*
X159944596Y-90617567D01*
X159983403Y-90588260D01*
X159992895Y-90578244D01*
X160006876Y-90557708D01*
X160014760Y-90530997D01*
X160018245Y-90490499D01*
X160019029Y-90428603D01*
X160018350Y-90391130D01*
X160010983Y-90322980D01*
X159994168Y-90278330D01*
X159966234Y-90253926D01*
X159925509Y-90246514D01*
X159908350Y-90248094D01*
X159878660Y-90263766D01*
X159859031Y-90298691D01*
X159848188Y-90355901D01*
X159844857Y-90438430D01*
X159700083Y-90438430D01*
X159699714Y-90424267D01*
X159700253Y-90356169D01*
X159702707Y-90304587D01*
X159708158Y-90268816D01*
X159717686Y-90242015D01*
X159732371Y-90217338D01*
X159745852Y-90198480D01*
X159794799Y-90147568D01*
X159850256Y-90119918D01*
X159919928Y-90111165D01*
X159999664Y-90119890D01*
X160068595Y-90151185D01*
X160123113Y-90206381D01*
X160127223Y-90212224D01*
X160136808Y-90227753D01*
X160144151Y-90245498D01*
X160149612Y-90269290D01*
X160153550Y-90302958D01*
X160156323Y-90350333D01*
X160158292Y-90415245D01*
X160158528Y-90428603D01*
X160159815Y-90501524D01*
G37*
X157563933Y-85442371D02*
X157639856Y-85442865D01*
X157694491Y-85444135D01*
X157731500Y-85446547D01*
X157754547Y-85450467D01*
X157767296Y-85456262D01*
X157773411Y-85464299D01*
X157776556Y-85474943D01*
X157776646Y-85475325D01*
X157781814Y-85500347D01*
X157791209Y-85548681D01*
X157803867Y-85615260D01*
X157818825Y-85695014D01*
X157835119Y-85782875D01*
X157836448Y-85790064D01*
X157852691Y-85875340D01*
X157867805Y-85950242D01*
X157880808Y-86010219D01*
X157890715Y-86050717D01*
X157896544Y-86067184D01*
X157896575Y-86067210D01*
X157914943Y-86076320D01*
X157952640Y-86091457D01*
X158001543Y-86109358D01*
X158004297Y-86110330D01*
X158066817Y-86133959D01*
X158139543Y-86163595D01*
X158207294Y-86193062D01*
X158318703Y-86243626D01*
X158565399Y-86075160D01*
X158582775Y-86063311D01*
X158657202Y-86012947D01*
X158723614Y-85968612D01*
X158778039Y-85932916D01*
X158816506Y-85908471D01*
X158835042Y-85897889D01*
X158847743Y-85900315D01*
X158876579Y-85919110D01*
X158921143Y-85956330D01*
X158982670Y-86013020D01*
X159062398Y-86090227D01*
X159069532Y-86097255D01*
X159132796Y-86160222D01*
X159188990Y-86217268D01*
X159234677Y-86264817D01*
X159266414Y-86299297D01*
X159280764Y-86317131D01*
X159280810Y-86317217D01*
X159282633Y-86330795D01*
X159275910Y-86352820D01*
X159258946Y-86386304D01*
X159230044Y-86434261D01*
X159187508Y-86499704D01*
X159129644Y-86585645D01*
X159119783Y-86600151D01*
X159069913Y-86673635D01*
X159025905Y-86738687D01*
X158990380Y-86791417D01*
X158965959Y-86827936D01*
X158955264Y-86844356D01*
X158954458Y-86847834D01*
X158959518Y-86873785D01*
X158974677Y-86916159D01*
X158997463Y-86967728D01*
X159028429Y-87035170D01*
X159063004Y-87115195D01*
X159092366Y-87187629D01*
X159099645Y-87206377D01*
X159118710Y-87254246D01*
X159132715Y-87287596D01*
X159139041Y-87300114D01*
X159146025Y-87301050D01*
X159177413Y-87306461D01*
X159228787Y-87315806D01*
X159294802Y-87328069D01*
X159370113Y-87342232D01*
X159449375Y-87357280D01*
X159527243Y-87372195D01*
X159598370Y-87385961D01*
X159657412Y-87397562D01*
X159699022Y-87405980D01*
X159717857Y-87410199D01*
X159720980Y-87411389D01*
X159728591Y-87417805D01*
X159734254Y-87431465D01*
X159738251Y-87455999D01*
X159740866Y-87495038D01*
X159742384Y-87552213D01*
X159743086Y-87631154D01*
X159743257Y-87735492D01*
X159743257Y-88052799D01*
X159667057Y-88067839D01*
X159657840Y-88069642D01*
X159608891Y-88078980D01*
X159541205Y-88091669D01*
X159462478Y-88106273D01*
X159380400Y-88121355D01*
X159348078Y-88127422D01*
X159275855Y-88142181D01*
X159215666Y-88156137D01*
X159173040Y-88167952D01*
X159153510Y-88176287D01*
X159144660Y-88189905D01*
X159128548Y-88225938D01*
X159112065Y-88272572D01*
X159106263Y-88290034D01*
X159084906Y-88347358D01*
X159057359Y-88415201D01*
X159028107Y-88482355D01*
X159012463Y-88517430D01*
X158990174Y-88569822D01*
X158974857Y-88609058D01*
X158969162Y-88628563D01*
X158969478Y-88630036D01*
X158980281Y-88650729D01*
X159004638Y-88690665D01*
X159040081Y-88745972D01*
X159084136Y-88812781D01*
X159134332Y-88887220D01*
X159299501Y-89129623D01*
X159082503Y-89346983D01*
X159061516Y-89367899D01*
X158997342Y-89430505D01*
X158939990Y-89484495D01*
X158892820Y-89526826D01*
X158859192Y-89554457D01*
X158842467Y-89564343D01*
X158824303Y-89556821D01*
X158786265Y-89535227D01*
X158732726Y-89502151D01*
X158667884Y-89460191D01*
X158595940Y-89411943D01*
X158525275Y-89364291D01*
X158461526Y-89322328D01*
X158409513Y-89289165D01*
X158373279Y-89267378D01*
X158356867Y-89259543D01*
X158355905Y-89259614D01*
X158334103Y-89267338D01*
X158295440Y-89285323D01*
X158247612Y-89310013D01*
X158247110Y-89310284D01*
X158183587Y-89342099D01*
X158140060Y-89357642D01*
X158113052Y-89357685D01*
X158099090Y-89343000D01*
X158093180Y-89328544D01*
X158077229Y-89289831D01*
X158052660Y-89230316D01*
X158020779Y-89153165D01*
X157982893Y-89061541D01*
X157940310Y-88958607D01*
X157894337Y-88847526D01*
X157852667Y-88746472D01*
X157810268Y-88642780D01*
X157772756Y-88550119D01*
X157741388Y-88471642D01*
X157717425Y-88410500D01*
X157702123Y-88369843D01*
X157696743Y-88352825D01*
X157707018Y-88337219D01*
X157735563Y-88311162D01*
X157775971Y-88280887D01*
X157872979Y-88201684D01*
X157959793Y-88100475D01*
X158023322Y-87989116D01*
X158063177Y-87870893D01*
X158078965Y-87749095D01*
X158070296Y-87627010D01*
X158036778Y-87507925D01*
X157978021Y-87395129D01*
X157893632Y-87291911D01*
X157849631Y-87251713D01*
X157744211Y-87180638D01*
X157631410Y-87134301D01*
X157514525Y-87111599D01*
X157396853Y-87111428D01*
X157281690Y-87132687D01*
X157172335Y-87174270D01*
X157072083Y-87235076D01*
X156984233Y-87314001D01*
X156912080Y-87409941D01*
X156858922Y-87521795D01*
X156828057Y-87648457D01*
X156822392Y-87709507D01*
X156830185Y-87841776D01*
X156865284Y-87967266D01*
X156926649Y-88083759D01*
X157013243Y-88189039D01*
X157124029Y-88280887D01*
X157162931Y-88309930D01*
X157192104Y-88336272D01*
X157203257Y-88352800D01*
X157198810Y-88367209D01*
X157184378Y-88405815D01*
X157161173Y-88465201D01*
X157130452Y-88542215D01*
X157093474Y-88633703D01*
X157051496Y-88736516D01*
X157005778Y-88847502D01*
X156964178Y-88948072D01*
X156921222Y-89051947D01*
X156882829Y-89144819D01*
X156850305Y-89223525D01*
X156824958Y-89284899D01*
X156808095Y-89325779D01*
X156801025Y-89343000D01*
X156800943Y-89343204D01*
X156786798Y-89357745D01*
X156759659Y-89357579D01*
X156716023Y-89341927D01*
X156652388Y-89310013D01*
X156647379Y-89307326D01*
X156600125Y-89283150D01*
X156562811Y-89266037D01*
X156543133Y-89259543D01*
X156527005Y-89267218D01*
X156490959Y-89288871D01*
X156439092Y-89321928D01*
X156375445Y-89363810D01*
X156304060Y-89411943D01*
X156233724Y-89459131D01*
X156168670Y-89501267D01*
X156114820Y-89534578D01*
X156076374Y-89556469D01*
X156057534Y-89564343D01*
X156054325Y-89563343D01*
X156031954Y-89547584D01*
X155993733Y-89515033D01*
X155943021Y-89468733D01*
X155883181Y-89411726D01*
X155817571Y-89347058D01*
X155600648Y-89129772D01*
X155769601Y-88881253D01*
X155938553Y-88632733D01*
X155887183Y-88521595D01*
X155887031Y-88521266D01*
X155856183Y-88450418D01*
X155824661Y-88371523D01*
X155799266Y-88301600D01*
X155795423Y-88290322D01*
X155776047Y-88237967D01*
X155758574Y-88197283D01*
X155746388Y-88176287D01*
X155741426Y-88173322D01*
X155711634Y-88163375D01*
X155661047Y-88150505D01*
X155595194Y-88136053D01*
X155519600Y-88121355D01*
X155496957Y-88117210D01*
X155415038Y-88102116D01*
X155338600Y-88087899D01*
X155275337Y-88075995D01*
X155232943Y-88067839D01*
X155156743Y-88052799D01*
X155156743Y-87735492D01*
X155156760Y-87696476D01*
X155157082Y-87601292D01*
X155158033Y-87530255D01*
X155159896Y-87479734D01*
X155162955Y-87446098D01*
X155167494Y-87425718D01*
X155173795Y-87414962D01*
X155182143Y-87410199D01*
X155190224Y-87408270D01*
X155223172Y-87401445D01*
X155275736Y-87391022D01*
X155342569Y-87378018D01*
X155418328Y-87363449D01*
X155497665Y-87348333D01*
X155575237Y-87333685D01*
X155645698Y-87320523D01*
X155703702Y-87309863D01*
X155743904Y-87302721D01*
X155760959Y-87300114D01*
X155762112Y-87298541D01*
X155771385Y-87278119D01*
X155787432Y-87239045D01*
X155807635Y-87187629D01*
X155835672Y-87118353D01*
X155870186Y-87038290D01*
X155902538Y-86967728D01*
X155909952Y-86951889D01*
X155930755Y-86902293D01*
X155943219Y-86864038D01*
X155944863Y-86844356D01*
X155944015Y-86842962D01*
X155930548Y-86822420D01*
X155903850Y-86782516D01*
X155866539Y-86727140D01*
X155821234Y-86660177D01*
X155770552Y-86585517D01*
X155713445Y-86500692D01*
X155670607Y-86434800D01*
X155641460Y-86386478D01*
X155624317Y-86352733D01*
X155617495Y-86330572D01*
X155619306Y-86317002D01*
X155619915Y-86315984D01*
X155636297Y-86296210D01*
X155669695Y-86260175D01*
X155716671Y-86211451D01*
X155773786Y-86153612D01*
X155837603Y-86090227D01*
X155903802Y-86025905D01*
X155968648Y-85965447D01*
X156016299Y-85924655D01*
X156047990Y-85902484D01*
X156064958Y-85897889D01*
X156067175Y-85898921D01*
X156090524Y-85912837D01*
X156132912Y-85940030D01*
X156190369Y-85977889D01*
X156258923Y-86023803D01*
X156334601Y-86075160D01*
X156581298Y-86243626D01*
X156692706Y-86193062D01*
X156695943Y-86191597D01*
X156764343Y-86161965D01*
X156836907Y-86132493D01*
X156898457Y-86109358D01*
X156898729Y-86109262D01*
X156947595Y-86091367D01*
X156985212Y-86076253D01*
X157003457Y-86067184D01*
X157003752Y-86066855D01*
X157009946Y-86048282D01*
X157020139Y-86006045D01*
X157033348Y-85944696D01*
X157048590Y-85868789D01*
X157064881Y-85782875D01*
X157065449Y-85779796D01*
X157081713Y-85692128D01*
X157096608Y-85612741D01*
X157109171Y-85546701D01*
X157118438Y-85499079D01*
X157123444Y-85474943D01*
X157123764Y-85473605D01*
X157127060Y-85463273D01*
X157133738Y-85455506D01*
X157147462Y-85449940D01*
X157171895Y-85446207D01*
X157210702Y-85443942D01*
X157267546Y-85442778D01*
X157346090Y-85442348D01*
X157450000Y-85442286D01*
X157463056Y-85442286D01*
X157563933Y-85442371D01*
G36*
X157563933Y-85442371D02*
G01*
X157639856Y-85442865D01*
X157694491Y-85444135D01*
X157731500Y-85446547D01*
X157754547Y-85450467D01*
X157767296Y-85456262D01*
X157773411Y-85464299D01*
X157776556Y-85474943D01*
X157776646Y-85475325D01*
X157781814Y-85500347D01*
X157791209Y-85548681D01*
X157803867Y-85615260D01*
X157818825Y-85695014D01*
X157835119Y-85782875D01*
X157836448Y-85790064D01*
X157852691Y-85875340D01*
X157867805Y-85950242D01*
X157880808Y-86010219D01*
X157890715Y-86050717D01*
X157896544Y-86067184D01*
X157896575Y-86067210D01*
X157914943Y-86076320D01*
X157952640Y-86091457D01*
X158001543Y-86109358D01*
X158004297Y-86110330D01*
X158066817Y-86133959D01*
X158139543Y-86163595D01*
X158207294Y-86193062D01*
X158318703Y-86243626D01*
X158565399Y-86075160D01*
X158582775Y-86063311D01*
X158657202Y-86012947D01*
X158723614Y-85968612D01*
X158778039Y-85932916D01*
X158816506Y-85908471D01*
X158835042Y-85897889D01*
X158847743Y-85900315D01*
X158876579Y-85919110D01*
X158921143Y-85956330D01*
X158982670Y-86013020D01*
X159062398Y-86090227D01*
X159069532Y-86097255D01*
X159132796Y-86160222D01*
X159188990Y-86217268D01*
X159234677Y-86264817D01*
X159266414Y-86299297D01*
X159280764Y-86317131D01*
X159280810Y-86317217D01*
X159282633Y-86330795D01*
X159275910Y-86352820D01*
X159258946Y-86386304D01*
X159230044Y-86434261D01*
X159187508Y-86499704D01*
X159129644Y-86585645D01*
X159119783Y-86600151D01*
X159069913Y-86673635D01*
X159025905Y-86738687D01*
X158990380Y-86791417D01*
X158965959Y-86827936D01*
X158955264Y-86844356D01*
X158954458Y-86847834D01*
X158959518Y-86873785D01*
X158974677Y-86916159D01*
X158997463Y-86967728D01*
X159028429Y-87035170D01*
X159063004Y-87115195D01*
X159092366Y-87187629D01*
X159099645Y-87206377D01*
X159118710Y-87254246D01*
X159132715Y-87287596D01*
X159139041Y-87300114D01*
X159146025Y-87301050D01*
X159177413Y-87306461D01*
X159228787Y-87315806D01*
X159294802Y-87328069D01*
X159370113Y-87342232D01*
X159449375Y-87357280D01*
X159527243Y-87372195D01*
X159598370Y-87385961D01*
X159657412Y-87397562D01*
X159699022Y-87405980D01*
X159717857Y-87410199D01*
X159720980Y-87411389D01*
X159728591Y-87417805D01*
X159734254Y-87431465D01*
X159738251Y-87455999D01*
X159740866Y-87495038D01*
X159742384Y-87552213D01*
X159743086Y-87631154D01*
X159743257Y-87735492D01*
X159743257Y-88052799D01*
X159667057Y-88067839D01*
X159657840Y-88069642D01*
X159608891Y-88078980D01*
X159541205Y-88091669D01*
X159462478Y-88106273D01*
X159380400Y-88121355D01*
X159348078Y-88127422D01*
X159275855Y-88142181D01*
X159215666Y-88156137D01*
X159173040Y-88167952D01*
X159153510Y-88176287D01*
X159144660Y-88189905D01*
X159128548Y-88225938D01*
X159112065Y-88272572D01*
X159106263Y-88290034D01*
X159084906Y-88347358D01*
X159057359Y-88415201D01*
X159028107Y-88482355D01*
X159012463Y-88517430D01*
X158990174Y-88569822D01*
X158974857Y-88609058D01*
X158969162Y-88628563D01*
X158969478Y-88630036D01*
X158980281Y-88650729D01*
X159004638Y-88690665D01*
X159040081Y-88745972D01*
X159084136Y-88812781D01*
X159134332Y-88887220D01*
X159299501Y-89129623D01*
X159082503Y-89346983D01*
X159061516Y-89367899D01*
X158997342Y-89430505D01*
X158939990Y-89484495D01*
X158892820Y-89526826D01*
X158859192Y-89554457D01*
X158842467Y-89564343D01*
X158824303Y-89556821D01*
X158786265Y-89535227D01*
X158732726Y-89502151D01*
X158667884Y-89460191D01*
X158595940Y-89411943D01*
X158525275Y-89364291D01*
X158461526Y-89322328D01*
X158409513Y-89289165D01*
X158373279Y-89267378D01*
X158356867Y-89259543D01*
X158355905Y-89259614D01*
X158334103Y-89267338D01*
X158295440Y-89285323D01*
X158247612Y-89310013D01*
X158247110Y-89310284D01*
X158183587Y-89342099D01*
X158140060Y-89357642D01*
X158113052Y-89357685D01*
X158099090Y-89343000D01*
X158093180Y-89328544D01*
X158077229Y-89289831D01*
X158052660Y-89230316D01*
X158020779Y-89153165D01*
X157982893Y-89061541D01*
X157940310Y-88958607D01*
X157894337Y-88847526D01*
X157852667Y-88746472D01*
X157810268Y-88642780D01*
X157772756Y-88550119D01*
X157741388Y-88471642D01*
X157717425Y-88410500D01*
X157702123Y-88369843D01*
X157696743Y-88352825D01*
X157707018Y-88337219D01*
X157735563Y-88311162D01*
X157775971Y-88280887D01*
X157872979Y-88201684D01*
X157959793Y-88100475D01*
X158023322Y-87989116D01*
X158063177Y-87870893D01*
X158078965Y-87749095D01*
X158070296Y-87627010D01*
X158036778Y-87507925D01*
X157978021Y-87395129D01*
X157893632Y-87291911D01*
X157849631Y-87251713D01*
X157744211Y-87180638D01*
X157631410Y-87134301D01*
X157514525Y-87111599D01*
X157396853Y-87111428D01*
X157281690Y-87132687D01*
X157172335Y-87174270D01*
X157072083Y-87235076D01*
X156984233Y-87314001D01*
X156912080Y-87409941D01*
X156858922Y-87521795D01*
X156828057Y-87648457D01*
X156822392Y-87709507D01*
X156830185Y-87841776D01*
X156865284Y-87967266D01*
X156926649Y-88083759D01*
X157013243Y-88189039D01*
X157124029Y-88280887D01*
X157162931Y-88309930D01*
X157192104Y-88336272D01*
X157203257Y-88352800D01*
X157198810Y-88367209D01*
X157184378Y-88405815D01*
X157161173Y-88465201D01*
X157130452Y-88542215D01*
X157093474Y-88633703D01*
X157051496Y-88736516D01*
X157005778Y-88847502D01*
X156964178Y-88948072D01*
X156921222Y-89051947D01*
X156882829Y-89144819D01*
X156850305Y-89223525D01*
X156824958Y-89284899D01*
X156808095Y-89325779D01*
X156801025Y-89343000D01*
X156800943Y-89343204D01*
X156786798Y-89357745D01*
X156759659Y-89357579D01*
X156716023Y-89341927D01*
X156652388Y-89310013D01*
X156647379Y-89307326D01*
X156600125Y-89283150D01*
X156562811Y-89266037D01*
X156543133Y-89259543D01*
X156527005Y-89267218D01*
X156490959Y-89288871D01*
X156439092Y-89321928D01*
X156375445Y-89363810D01*
X156304060Y-89411943D01*
X156233724Y-89459131D01*
X156168670Y-89501267D01*
X156114820Y-89534578D01*
X156076374Y-89556469D01*
X156057534Y-89564343D01*
X156054325Y-89563343D01*
X156031954Y-89547584D01*
X155993733Y-89515033D01*
X155943021Y-89468733D01*
X155883181Y-89411726D01*
X155817571Y-89347058D01*
X155600648Y-89129772D01*
X155769601Y-88881253D01*
X155938553Y-88632733D01*
X155887183Y-88521595D01*
X155887031Y-88521266D01*
X155856183Y-88450418D01*
X155824661Y-88371523D01*
X155799266Y-88301600D01*
X155795423Y-88290322D01*
X155776047Y-88237967D01*
X155758574Y-88197283D01*
X155746388Y-88176287D01*
X155741426Y-88173322D01*
X155711634Y-88163375D01*
X155661047Y-88150505D01*
X155595194Y-88136053D01*
X155519600Y-88121355D01*
X155496957Y-88117210D01*
X155415038Y-88102116D01*
X155338600Y-88087899D01*
X155275337Y-88075995D01*
X155232943Y-88067839D01*
X155156743Y-88052799D01*
X155156743Y-87735492D01*
X155156760Y-87696476D01*
X155157082Y-87601292D01*
X155158033Y-87530255D01*
X155159896Y-87479734D01*
X155162955Y-87446098D01*
X155167494Y-87425718D01*
X155173795Y-87414962D01*
X155182143Y-87410199D01*
X155190224Y-87408270D01*
X155223172Y-87401445D01*
X155275736Y-87391022D01*
X155342569Y-87378018D01*
X155418328Y-87363449D01*
X155497665Y-87348333D01*
X155575237Y-87333685D01*
X155645698Y-87320523D01*
X155703702Y-87309863D01*
X155743904Y-87302721D01*
X155760959Y-87300114D01*
X155762112Y-87298541D01*
X155771385Y-87278119D01*
X155787432Y-87239045D01*
X155807635Y-87187629D01*
X155835672Y-87118353D01*
X155870186Y-87038290D01*
X155902538Y-86967728D01*
X155909952Y-86951889D01*
X155930755Y-86902293D01*
X155943219Y-86864038D01*
X155944863Y-86844356D01*
X155944015Y-86842962D01*
X155930548Y-86822420D01*
X155903850Y-86782516D01*
X155866539Y-86727140D01*
X155821234Y-86660177D01*
X155770552Y-86585517D01*
X155713445Y-86500692D01*
X155670607Y-86434800D01*
X155641460Y-86386478D01*
X155624317Y-86352733D01*
X155617495Y-86330572D01*
X155619306Y-86317002D01*
X155619915Y-86315984D01*
X155636297Y-86296210D01*
X155669695Y-86260175D01*
X155716671Y-86211451D01*
X155773786Y-86153612D01*
X155837603Y-86090227D01*
X155903802Y-86025905D01*
X155968648Y-85965447D01*
X156016299Y-85924655D01*
X156047990Y-85902484D01*
X156064958Y-85897889D01*
X156067175Y-85898921D01*
X156090524Y-85912837D01*
X156132912Y-85940030D01*
X156190369Y-85977889D01*
X156258923Y-86023803D01*
X156334601Y-86075160D01*
X156581298Y-86243626D01*
X156692706Y-86193062D01*
X156695943Y-86191597D01*
X156764343Y-86161965D01*
X156836907Y-86132493D01*
X156898457Y-86109358D01*
X156898729Y-86109262D01*
X156947595Y-86091367D01*
X156985212Y-86076253D01*
X157003457Y-86067184D01*
X157003752Y-86066855D01*
X157009946Y-86048282D01*
X157020139Y-86006045D01*
X157033348Y-85944696D01*
X157048590Y-85868789D01*
X157064881Y-85782875D01*
X157065449Y-85779796D01*
X157081713Y-85692128D01*
X157096608Y-85612741D01*
X157109171Y-85546701D01*
X157118438Y-85499079D01*
X157123444Y-85474943D01*
X157123764Y-85473605D01*
X157127060Y-85463273D01*
X157133738Y-85455506D01*
X157147462Y-85449940D01*
X157171895Y-85446207D01*
X157210702Y-85443942D01*
X157267546Y-85442778D01*
X157346090Y-85442348D01*
X157450000Y-85442286D01*
X157463056Y-85442286D01*
X157563933Y-85442371D01*
G37*
%TD*%
M02*
