%TF.GenerationSoftware,KiCad,Pcbnew,9.0.1*%
%TF.CreationDate,2025-10-15T21:57:33+02:00*%
%TF.ProjectId,Air_pump_controler,4169725f-7075-46d7-905f-636f6e74726f,0.1*%
%TF.SameCoordinates,Original*%
%TF.FileFunction,Legend,Top*%
%TF.FilePolarity,Positive*%
%FSLAX46Y46*%
G04 Gerber Fmt 4.6, Leading zero omitted, Abs format (unit mm)*
G04 Created by KiCad (PCBNEW 9.0.1) date 2025-10-15 21:57:33*
%MOMM*%
%LPD*%
G01*
G04 APERTURE LIST*
%ADD10C,0.400000*%
%ADD11C,0.150000*%
%ADD12C,0.300000*%
%ADD13C,0.120000*%
%ADD14C,0.100000*%
G04 APERTURE END LIST*
D10*
X146717918Y-91923534D02*
X148013157Y-91923534D01*
X147365537Y-92571153D02*
X147365537Y-91275915D01*
D11*
X162639160Y-87139533D02*
X163248684Y-87139533D01*
X163591540Y-87215723D02*
X163972493Y-87215723D01*
X163515350Y-87444295D02*
X163782017Y-86644295D01*
X163782017Y-86644295D02*
X164048683Y-87444295D01*
X164315350Y-87444295D02*
X164315350Y-86644295D01*
X164315350Y-86644295D02*
X164505826Y-86644295D01*
X164505826Y-86644295D02*
X164620112Y-86682390D01*
X164620112Y-86682390D02*
X164696302Y-86758580D01*
X164696302Y-86758580D02*
X164734397Y-86834771D01*
X164734397Y-86834771D02*
X164772493Y-86987152D01*
X164772493Y-86987152D02*
X164772493Y-87101438D01*
X164772493Y-87101438D02*
X164734397Y-87253819D01*
X164734397Y-87253819D02*
X164696302Y-87330009D01*
X164696302Y-87330009D02*
X164620112Y-87406200D01*
X164620112Y-87406200D02*
X164505826Y-87444295D01*
X164505826Y-87444295D02*
X164315350Y-87444295D01*
X165343921Y-86644295D02*
X165343921Y-87215723D01*
X165343921Y-87215723D02*
X165305826Y-87330009D01*
X165305826Y-87330009D02*
X165229635Y-87406200D01*
X165229635Y-87406200D02*
X165115350Y-87444295D01*
X165115350Y-87444295D02*
X165039159Y-87444295D01*
X165724874Y-87139533D02*
X166334398Y-87139533D01*
D12*
X166952129Y-87428734D02*
X168247368Y-87428734D01*
D11*
X156166667Y-87662295D02*
X155900000Y-87281342D01*
X155709524Y-87662295D02*
X155709524Y-86862295D01*
X155709524Y-86862295D02*
X156014286Y-86862295D01*
X156014286Y-86862295D02*
X156090476Y-86900390D01*
X156090476Y-86900390D02*
X156128571Y-86938485D01*
X156128571Y-86938485D02*
X156166667Y-87014676D01*
X156166667Y-87014676D02*
X156166667Y-87128961D01*
X156166667Y-87128961D02*
X156128571Y-87205152D01*
X156128571Y-87205152D02*
X156090476Y-87243247D01*
X156090476Y-87243247D02*
X156014286Y-87281342D01*
X156014286Y-87281342D02*
X155709524Y-87281342D01*
X156433333Y-86862295D02*
X156966667Y-87662295D01*
X156966667Y-86862295D02*
X156433333Y-87662295D01*
X150340476Y-86862295D02*
X150797619Y-86862295D01*
X150569047Y-87662295D02*
X150569047Y-86862295D01*
X150988095Y-86862295D02*
X151521429Y-87662295D01*
X151521429Y-86862295D02*
X150988095Y-87662295D01*
X158090476Y-86562295D02*
X158090476Y-87209914D01*
X158090476Y-87209914D02*
X158128571Y-87286104D01*
X158128571Y-87286104D02*
X158166666Y-87324200D01*
X158166666Y-87324200D02*
X158242857Y-87362295D01*
X158242857Y-87362295D02*
X158395238Y-87362295D01*
X158395238Y-87362295D02*
X158471428Y-87324200D01*
X158471428Y-87324200D02*
X158509523Y-87286104D01*
X158509523Y-87286104D02*
X158547619Y-87209914D01*
X158547619Y-87209914D02*
X158547619Y-86562295D01*
X159347618Y-87362295D02*
X158890475Y-87362295D01*
X159119047Y-87362295D02*
X159119047Y-86562295D01*
X159119047Y-86562295D02*
X159042856Y-86676580D01*
X159042856Y-86676580D02*
X158966666Y-86752771D01*
X158966666Y-86752771D02*
X158890475Y-86790866D01*
X160509524Y-80162295D02*
X160509524Y-79362295D01*
X160509524Y-79362295D02*
X160700000Y-79362295D01*
X160700000Y-79362295D02*
X160814286Y-79400390D01*
X160814286Y-79400390D02*
X160890476Y-79476580D01*
X160890476Y-79476580D02*
X160928571Y-79552771D01*
X160928571Y-79552771D02*
X160966667Y-79705152D01*
X160966667Y-79705152D02*
X160966667Y-79819438D01*
X160966667Y-79819438D02*
X160928571Y-79971819D01*
X160928571Y-79971819D02*
X160890476Y-80048009D01*
X160890476Y-80048009D02*
X160814286Y-80124200D01*
X160814286Y-80124200D02*
X160700000Y-80162295D01*
X160700000Y-80162295D02*
X160509524Y-80162295D01*
X161271428Y-79438485D02*
X161309524Y-79400390D01*
X161309524Y-79400390D02*
X161385714Y-79362295D01*
X161385714Y-79362295D02*
X161576190Y-79362295D01*
X161576190Y-79362295D02*
X161652381Y-79400390D01*
X161652381Y-79400390D02*
X161690476Y-79438485D01*
X161690476Y-79438485D02*
X161728571Y-79514676D01*
X161728571Y-79514676D02*
X161728571Y-79590866D01*
X161728571Y-79590866D02*
X161690476Y-79705152D01*
X161690476Y-79705152D02*
X161233333Y-80162295D01*
X161233333Y-80162295D02*
X161728571Y-80162295D01*
X165166667Y-82136104D02*
X165128571Y-82174200D01*
X165128571Y-82174200D02*
X165014286Y-82212295D01*
X165014286Y-82212295D02*
X164938095Y-82212295D01*
X164938095Y-82212295D02*
X164823809Y-82174200D01*
X164823809Y-82174200D02*
X164747619Y-82098009D01*
X164747619Y-82098009D02*
X164709524Y-82021819D01*
X164709524Y-82021819D02*
X164671428Y-81869438D01*
X164671428Y-81869438D02*
X164671428Y-81755152D01*
X164671428Y-81755152D02*
X164709524Y-81602771D01*
X164709524Y-81602771D02*
X164747619Y-81526580D01*
X164747619Y-81526580D02*
X164823809Y-81450390D01*
X164823809Y-81450390D02*
X164938095Y-81412295D01*
X164938095Y-81412295D02*
X165014286Y-81412295D01*
X165014286Y-81412295D02*
X165128571Y-81450390D01*
X165128571Y-81450390D02*
X165166667Y-81488485D01*
X165547619Y-82212295D02*
X165700000Y-82212295D01*
X165700000Y-82212295D02*
X165776190Y-82174200D01*
X165776190Y-82174200D02*
X165814286Y-82136104D01*
X165814286Y-82136104D02*
X165890476Y-82021819D01*
X165890476Y-82021819D02*
X165928571Y-81869438D01*
X165928571Y-81869438D02*
X165928571Y-81564676D01*
X165928571Y-81564676D02*
X165890476Y-81488485D01*
X165890476Y-81488485D02*
X165852381Y-81450390D01*
X165852381Y-81450390D02*
X165776190Y-81412295D01*
X165776190Y-81412295D02*
X165623809Y-81412295D01*
X165623809Y-81412295D02*
X165547619Y-81450390D01*
X165547619Y-81450390D02*
X165509524Y-81488485D01*
X165509524Y-81488485D02*
X165471428Y-81564676D01*
X165471428Y-81564676D02*
X165471428Y-81755152D01*
X165471428Y-81755152D02*
X165509524Y-81831342D01*
X165509524Y-81831342D02*
X165547619Y-81869438D01*
X165547619Y-81869438D02*
X165623809Y-81907533D01*
X165623809Y-81907533D02*
X165776190Y-81907533D01*
X165776190Y-81907533D02*
X165852381Y-81869438D01*
X165852381Y-81869438D02*
X165890476Y-81831342D01*
X165890476Y-81831342D02*
X165928571Y-81755152D01*
X153266667Y-80162295D02*
X153000000Y-79781342D01*
X152809524Y-80162295D02*
X152809524Y-79362295D01*
X152809524Y-79362295D02*
X153114286Y-79362295D01*
X153114286Y-79362295D02*
X153190476Y-79400390D01*
X153190476Y-79400390D02*
X153228571Y-79438485D01*
X153228571Y-79438485D02*
X153266667Y-79514676D01*
X153266667Y-79514676D02*
X153266667Y-79628961D01*
X153266667Y-79628961D02*
X153228571Y-79705152D01*
X153228571Y-79705152D02*
X153190476Y-79743247D01*
X153190476Y-79743247D02*
X153114286Y-79781342D01*
X153114286Y-79781342D02*
X152809524Y-79781342D01*
X153647619Y-80162295D02*
X153800000Y-80162295D01*
X153800000Y-80162295D02*
X153876190Y-80124200D01*
X153876190Y-80124200D02*
X153914286Y-80086104D01*
X153914286Y-80086104D02*
X153990476Y-79971819D01*
X153990476Y-79971819D02*
X154028571Y-79819438D01*
X154028571Y-79819438D02*
X154028571Y-79514676D01*
X154028571Y-79514676D02*
X153990476Y-79438485D01*
X153990476Y-79438485D02*
X153952381Y-79400390D01*
X153952381Y-79400390D02*
X153876190Y-79362295D01*
X153876190Y-79362295D02*
X153723809Y-79362295D01*
X153723809Y-79362295D02*
X153647619Y-79400390D01*
X153647619Y-79400390D02*
X153609524Y-79438485D01*
X153609524Y-79438485D02*
X153571428Y-79514676D01*
X153571428Y-79514676D02*
X153571428Y-79705152D01*
X153571428Y-79705152D02*
X153609524Y-79781342D01*
X153609524Y-79781342D02*
X153647619Y-79819438D01*
X153647619Y-79819438D02*
X153723809Y-79857533D01*
X153723809Y-79857533D02*
X153876190Y-79857533D01*
X153876190Y-79857533D02*
X153952381Y-79819438D01*
X153952381Y-79819438D02*
X153990476Y-79781342D01*
X153990476Y-79781342D02*
X154028571Y-79705152D01*
X160862295Y-99633332D02*
X160481342Y-99899999D01*
X160862295Y-100090475D02*
X160062295Y-100090475D01*
X160062295Y-100090475D02*
X160062295Y-99785713D01*
X160062295Y-99785713D02*
X160100390Y-99709523D01*
X160100390Y-99709523D02*
X160138485Y-99671428D01*
X160138485Y-99671428D02*
X160214676Y-99633332D01*
X160214676Y-99633332D02*
X160328961Y-99633332D01*
X160328961Y-99633332D02*
X160405152Y-99671428D01*
X160405152Y-99671428D02*
X160443247Y-99709523D01*
X160443247Y-99709523D02*
X160481342Y-99785713D01*
X160481342Y-99785713D02*
X160481342Y-100090475D01*
X160405152Y-99176190D02*
X160367057Y-99252380D01*
X160367057Y-99252380D02*
X160328961Y-99290475D01*
X160328961Y-99290475D02*
X160252771Y-99328571D01*
X160252771Y-99328571D02*
X160214676Y-99328571D01*
X160214676Y-99328571D02*
X160138485Y-99290475D01*
X160138485Y-99290475D02*
X160100390Y-99252380D01*
X160100390Y-99252380D02*
X160062295Y-99176190D01*
X160062295Y-99176190D02*
X160062295Y-99023809D01*
X160062295Y-99023809D02*
X160100390Y-98947618D01*
X160100390Y-98947618D02*
X160138485Y-98909523D01*
X160138485Y-98909523D02*
X160214676Y-98871428D01*
X160214676Y-98871428D02*
X160252771Y-98871428D01*
X160252771Y-98871428D02*
X160328961Y-98909523D01*
X160328961Y-98909523D02*
X160367057Y-98947618D01*
X160367057Y-98947618D02*
X160405152Y-99023809D01*
X160405152Y-99023809D02*
X160405152Y-99176190D01*
X160405152Y-99176190D02*
X160443247Y-99252380D01*
X160443247Y-99252380D02*
X160481342Y-99290475D01*
X160481342Y-99290475D02*
X160557533Y-99328571D01*
X160557533Y-99328571D02*
X160709914Y-99328571D01*
X160709914Y-99328571D02*
X160786104Y-99290475D01*
X160786104Y-99290475D02*
X160824200Y-99252380D01*
X160824200Y-99252380D02*
X160862295Y-99176190D01*
X160862295Y-99176190D02*
X160862295Y-99023809D01*
X160862295Y-99023809D02*
X160824200Y-98947618D01*
X160824200Y-98947618D02*
X160786104Y-98909523D01*
X160786104Y-98909523D02*
X160709914Y-98871428D01*
X160709914Y-98871428D02*
X160557533Y-98871428D01*
X160557533Y-98871428D02*
X160481342Y-98909523D01*
X160481342Y-98909523D02*
X160443247Y-98947618D01*
X160443247Y-98947618D02*
X160405152Y-99023809D01*
X160786104Y-97933332D02*
X160824200Y-97971428D01*
X160824200Y-97971428D02*
X160862295Y-98085713D01*
X160862295Y-98085713D02*
X160862295Y-98161904D01*
X160862295Y-98161904D02*
X160824200Y-98276190D01*
X160824200Y-98276190D02*
X160748009Y-98352380D01*
X160748009Y-98352380D02*
X160671819Y-98390475D01*
X160671819Y-98390475D02*
X160519438Y-98428571D01*
X160519438Y-98428571D02*
X160405152Y-98428571D01*
X160405152Y-98428571D02*
X160252771Y-98390475D01*
X160252771Y-98390475D02*
X160176580Y-98352380D01*
X160176580Y-98352380D02*
X160100390Y-98276190D01*
X160100390Y-98276190D02*
X160062295Y-98161904D01*
X160062295Y-98161904D02*
X160062295Y-98085713D01*
X160062295Y-98085713D02*
X160100390Y-97971428D01*
X160100390Y-97971428D02*
X160138485Y-97933332D01*
X160062295Y-97247618D02*
X160062295Y-97399999D01*
X160062295Y-97399999D02*
X160100390Y-97476190D01*
X160100390Y-97476190D02*
X160138485Y-97514285D01*
X160138485Y-97514285D02*
X160252771Y-97590475D01*
X160252771Y-97590475D02*
X160405152Y-97628571D01*
X160405152Y-97628571D02*
X160709914Y-97628571D01*
X160709914Y-97628571D02*
X160786104Y-97590475D01*
X160786104Y-97590475D02*
X160824200Y-97552380D01*
X160824200Y-97552380D02*
X160862295Y-97476190D01*
X160862295Y-97476190D02*
X160862295Y-97323809D01*
X160862295Y-97323809D02*
X160824200Y-97247618D01*
X160824200Y-97247618D02*
X160786104Y-97209523D01*
X160786104Y-97209523D02*
X160709914Y-97171428D01*
X160709914Y-97171428D02*
X160519438Y-97171428D01*
X160519438Y-97171428D02*
X160443247Y-97209523D01*
X160443247Y-97209523D02*
X160405152Y-97247618D01*
X160405152Y-97247618D02*
X160367057Y-97323809D01*
X160367057Y-97323809D02*
X160367057Y-97476190D01*
X160367057Y-97476190D02*
X160405152Y-97552380D01*
X160405152Y-97552380D02*
X160443247Y-97590475D01*
X160443247Y-97590475D02*
X160519438Y-97628571D01*
X156266667Y-81736104D02*
X156228571Y-81774200D01*
X156228571Y-81774200D02*
X156114286Y-81812295D01*
X156114286Y-81812295D02*
X156038095Y-81812295D01*
X156038095Y-81812295D02*
X155923809Y-81774200D01*
X155923809Y-81774200D02*
X155847619Y-81698009D01*
X155847619Y-81698009D02*
X155809524Y-81621819D01*
X155809524Y-81621819D02*
X155771428Y-81469438D01*
X155771428Y-81469438D02*
X155771428Y-81355152D01*
X155771428Y-81355152D02*
X155809524Y-81202771D01*
X155809524Y-81202771D02*
X155847619Y-81126580D01*
X155847619Y-81126580D02*
X155923809Y-81050390D01*
X155923809Y-81050390D02*
X156038095Y-81012295D01*
X156038095Y-81012295D02*
X156114286Y-81012295D01*
X156114286Y-81012295D02*
X156228571Y-81050390D01*
X156228571Y-81050390D02*
X156266667Y-81088485D01*
X156990476Y-81012295D02*
X156609524Y-81012295D01*
X156609524Y-81012295D02*
X156571428Y-81393247D01*
X156571428Y-81393247D02*
X156609524Y-81355152D01*
X156609524Y-81355152D02*
X156685714Y-81317057D01*
X156685714Y-81317057D02*
X156876190Y-81317057D01*
X156876190Y-81317057D02*
X156952381Y-81355152D01*
X156952381Y-81355152D02*
X156990476Y-81393247D01*
X156990476Y-81393247D02*
X157028571Y-81469438D01*
X157028571Y-81469438D02*
X157028571Y-81659914D01*
X157028571Y-81659914D02*
X156990476Y-81736104D01*
X156990476Y-81736104D02*
X156952381Y-81774200D01*
X156952381Y-81774200D02*
X156876190Y-81812295D01*
X156876190Y-81812295D02*
X156685714Y-81812295D01*
X156685714Y-81812295D02*
X156609524Y-81774200D01*
X156609524Y-81774200D02*
X156571428Y-81736104D01*
X150036104Y-94633332D02*
X150074200Y-94671428D01*
X150074200Y-94671428D02*
X150112295Y-94785713D01*
X150112295Y-94785713D02*
X150112295Y-94861904D01*
X150112295Y-94861904D02*
X150074200Y-94976190D01*
X150074200Y-94976190D02*
X149998009Y-95052380D01*
X149998009Y-95052380D02*
X149921819Y-95090475D01*
X149921819Y-95090475D02*
X149769438Y-95128571D01*
X149769438Y-95128571D02*
X149655152Y-95128571D01*
X149655152Y-95128571D02*
X149502771Y-95090475D01*
X149502771Y-95090475D02*
X149426580Y-95052380D01*
X149426580Y-95052380D02*
X149350390Y-94976190D01*
X149350390Y-94976190D02*
X149312295Y-94861904D01*
X149312295Y-94861904D02*
X149312295Y-94785713D01*
X149312295Y-94785713D02*
X149350390Y-94671428D01*
X149350390Y-94671428D02*
X149388485Y-94633332D01*
X150112295Y-93871428D02*
X150112295Y-94328571D01*
X150112295Y-94099999D02*
X149312295Y-94099999D01*
X149312295Y-94099999D02*
X149426580Y-94176190D01*
X149426580Y-94176190D02*
X149502771Y-94252380D01*
X149502771Y-94252380D02*
X149540866Y-94328571D01*
X161359524Y-89962295D02*
X161359524Y-89162295D01*
X161359524Y-89162295D02*
X161550000Y-89162295D01*
X161550000Y-89162295D02*
X161664286Y-89200390D01*
X161664286Y-89200390D02*
X161740476Y-89276580D01*
X161740476Y-89276580D02*
X161778571Y-89352771D01*
X161778571Y-89352771D02*
X161816667Y-89505152D01*
X161816667Y-89505152D02*
X161816667Y-89619438D01*
X161816667Y-89619438D02*
X161778571Y-89771819D01*
X161778571Y-89771819D02*
X161740476Y-89848009D01*
X161740476Y-89848009D02*
X161664286Y-89924200D01*
X161664286Y-89924200D02*
X161550000Y-89962295D01*
X161550000Y-89962295D02*
X161359524Y-89962295D01*
X162578571Y-89962295D02*
X162121428Y-89962295D01*
X162350000Y-89962295D02*
X162350000Y-89162295D01*
X162350000Y-89162295D02*
X162273809Y-89276580D01*
X162273809Y-89276580D02*
X162197619Y-89352771D01*
X162197619Y-89352771D02*
X162121428Y-89390866D01*
X166666667Y-93962295D02*
X166400000Y-93581342D01*
X166209524Y-93962295D02*
X166209524Y-93162295D01*
X166209524Y-93162295D02*
X166514286Y-93162295D01*
X166514286Y-93162295D02*
X166590476Y-93200390D01*
X166590476Y-93200390D02*
X166628571Y-93238485D01*
X166628571Y-93238485D02*
X166666667Y-93314676D01*
X166666667Y-93314676D02*
X166666667Y-93428961D01*
X166666667Y-93428961D02*
X166628571Y-93505152D01*
X166628571Y-93505152D02*
X166590476Y-93543247D01*
X166590476Y-93543247D02*
X166514286Y-93581342D01*
X166514286Y-93581342D02*
X166209524Y-93581342D01*
X166933333Y-93162295D02*
X167466667Y-93162295D01*
X167466667Y-93162295D02*
X167123809Y-93962295D01*
X156816666Y-91612295D02*
X156435714Y-91612295D01*
X156435714Y-91612295D02*
X156435714Y-90812295D01*
X157502380Y-91612295D02*
X157045237Y-91612295D01*
X157273809Y-91612295D02*
X157273809Y-90812295D01*
X157273809Y-90812295D02*
X157197618Y-90926580D01*
X157197618Y-90926580D02*
X157121428Y-91002771D01*
X157121428Y-91002771D02*
X157045237Y-91040866D01*
X150036104Y-92783332D02*
X150074200Y-92821428D01*
X150074200Y-92821428D02*
X150112295Y-92935713D01*
X150112295Y-92935713D02*
X150112295Y-93011904D01*
X150112295Y-93011904D02*
X150074200Y-93126190D01*
X150074200Y-93126190D02*
X149998009Y-93202380D01*
X149998009Y-93202380D02*
X149921819Y-93240475D01*
X149921819Y-93240475D02*
X149769438Y-93278571D01*
X149769438Y-93278571D02*
X149655152Y-93278571D01*
X149655152Y-93278571D02*
X149502771Y-93240475D01*
X149502771Y-93240475D02*
X149426580Y-93202380D01*
X149426580Y-93202380D02*
X149350390Y-93126190D01*
X149350390Y-93126190D02*
X149312295Y-93011904D01*
X149312295Y-93011904D02*
X149312295Y-92935713D01*
X149312295Y-92935713D02*
X149350390Y-92821428D01*
X149350390Y-92821428D02*
X149388485Y-92783332D01*
X149578961Y-92097618D02*
X150112295Y-92097618D01*
X149274200Y-92288094D02*
X149845628Y-92478571D01*
X149845628Y-92478571D02*
X149845628Y-91983332D01*
X148986104Y-91933332D02*
X149024200Y-91971428D01*
X149024200Y-91971428D02*
X149062295Y-92085713D01*
X149062295Y-92085713D02*
X149062295Y-92161904D01*
X149062295Y-92161904D02*
X149024200Y-92276190D01*
X149024200Y-92276190D02*
X148948009Y-92352380D01*
X148948009Y-92352380D02*
X148871819Y-92390475D01*
X148871819Y-92390475D02*
X148719438Y-92428571D01*
X148719438Y-92428571D02*
X148605152Y-92428571D01*
X148605152Y-92428571D02*
X148452771Y-92390475D01*
X148452771Y-92390475D02*
X148376580Y-92352380D01*
X148376580Y-92352380D02*
X148300390Y-92276190D01*
X148300390Y-92276190D02*
X148262295Y-92161904D01*
X148262295Y-92161904D02*
X148262295Y-92085713D01*
X148262295Y-92085713D02*
X148300390Y-91971428D01*
X148300390Y-91971428D02*
X148338485Y-91933332D01*
X148262295Y-91666666D02*
X148262295Y-91171428D01*
X148262295Y-91171428D02*
X148567057Y-91438094D01*
X148567057Y-91438094D02*
X148567057Y-91323809D01*
X148567057Y-91323809D02*
X148605152Y-91247618D01*
X148605152Y-91247618D02*
X148643247Y-91209523D01*
X148643247Y-91209523D02*
X148719438Y-91171428D01*
X148719438Y-91171428D02*
X148909914Y-91171428D01*
X148909914Y-91171428D02*
X148986104Y-91209523D01*
X148986104Y-91209523D02*
X149024200Y-91247618D01*
X149024200Y-91247618D02*
X149062295Y-91323809D01*
X149062295Y-91323809D02*
X149062295Y-91552380D01*
X149062295Y-91552380D02*
X149024200Y-91628571D01*
X149024200Y-91628571D02*
X148986104Y-91666666D01*
X159588485Y-95576190D02*
X159550390Y-95652380D01*
X159550390Y-95652380D02*
X159474200Y-95728571D01*
X159474200Y-95728571D02*
X159359914Y-95842857D01*
X159359914Y-95842857D02*
X159321819Y-95919047D01*
X159321819Y-95919047D02*
X159321819Y-95995238D01*
X159512295Y-95957142D02*
X159474200Y-96033333D01*
X159474200Y-96033333D02*
X159398009Y-96109523D01*
X159398009Y-96109523D02*
X159245628Y-96147619D01*
X159245628Y-96147619D02*
X158978961Y-96147619D01*
X158978961Y-96147619D02*
X158826580Y-96109523D01*
X158826580Y-96109523D02*
X158750390Y-96033333D01*
X158750390Y-96033333D02*
X158712295Y-95957142D01*
X158712295Y-95957142D02*
X158712295Y-95804761D01*
X158712295Y-95804761D02*
X158750390Y-95728571D01*
X158750390Y-95728571D02*
X158826580Y-95652380D01*
X158826580Y-95652380D02*
X158978961Y-95614285D01*
X158978961Y-95614285D02*
X159245628Y-95614285D01*
X159245628Y-95614285D02*
X159398009Y-95652380D01*
X159398009Y-95652380D02*
X159474200Y-95728571D01*
X159474200Y-95728571D02*
X159512295Y-95804761D01*
X159512295Y-95804761D02*
X159512295Y-95957142D01*
X159512295Y-94852381D02*
X159512295Y-95309524D01*
X159512295Y-95080952D02*
X158712295Y-95080952D01*
X158712295Y-95080952D02*
X158826580Y-95157143D01*
X158826580Y-95157143D02*
X158902771Y-95233333D01*
X158902771Y-95233333D02*
X158940866Y-95309524D01*
X166021428Y-90962295D02*
X166478571Y-90962295D01*
X166249999Y-91762295D02*
X166249999Y-90962295D01*
X166745238Y-91762295D02*
X166745238Y-90962295D01*
X166745238Y-91343247D02*
X167202381Y-91343247D01*
X167202381Y-91762295D02*
X167202381Y-90962295D01*
X168002380Y-91762295D02*
X167545237Y-91762295D01*
X167773809Y-91762295D02*
X167773809Y-90962295D01*
X167773809Y-90962295D02*
X167697618Y-91076580D01*
X167697618Y-91076580D02*
X167621428Y-91152771D01*
X167621428Y-91152771D02*
X167545237Y-91190866D01*
X160886104Y-82614285D02*
X160924200Y-82652381D01*
X160924200Y-82652381D02*
X160962295Y-82766666D01*
X160962295Y-82766666D02*
X160962295Y-82842857D01*
X160962295Y-82842857D02*
X160924200Y-82957143D01*
X160924200Y-82957143D02*
X160848009Y-83033333D01*
X160848009Y-83033333D02*
X160771819Y-83071428D01*
X160771819Y-83071428D02*
X160619438Y-83109524D01*
X160619438Y-83109524D02*
X160505152Y-83109524D01*
X160505152Y-83109524D02*
X160352771Y-83071428D01*
X160352771Y-83071428D02*
X160276580Y-83033333D01*
X160276580Y-83033333D02*
X160200390Y-82957143D01*
X160200390Y-82957143D02*
X160162295Y-82842857D01*
X160162295Y-82842857D02*
X160162295Y-82766666D01*
X160162295Y-82766666D02*
X160200390Y-82652381D01*
X160200390Y-82652381D02*
X160238485Y-82614285D01*
X160962295Y-81852381D02*
X160962295Y-82309524D01*
X160962295Y-82080952D02*
X160162295Y-82080952D01*
X160162295Y-82080952D02*
X160276580Y-82157143D01*
X160276580Y-82157143D02*
X160352771Y-82233333D01*
X160352771Y-82233333D02*
X160390866Y-82309524D01*
X160162295Y-81357142D02*
X160162295Y-81280952D01*
X160162295Y-81280952D02*
X160200390Y-81204761D01*
X160200390Y-81204761D02*
X160238485Y-81166666D01*
X160238485Y-81166666D02*
X160314676Y-81128571D01*
X160314676Y-81128571D02*
X160467057Y-81090476D01*
X160467057Y-81090476D02*
X160657533Y-81090476D01*
X160657533Y-81090476D02*
X160809914Y-81128571D01*
X160809914Y-81128571D02*
X160886104Y-81166666D01*
X160886104Y-81166666D02*
X160924200Y-81204761D01*
X160924200Y-81204761D02*
X160962295Y-81280952D01*
X160962295Y-81280952D02*
X160962295Y-81357142D01*
X160962295Y-81357142D02*
X160924200Y-81433333D01*
X160924200Y-81433333D02*
X160886104Y-81471428D01*
X160886104Y-81471428D02*
X160809914Y-81509523D01*
X160809914Y-81509523D02*
X160657533Y-81547619D01*
X160657533Y-81547619D02*
X160467057Y-81547619D01*
X160467057Y-81547619D02*
X160314676Y-81509523D01*
X160314676Y-81509523D02*
X160238485Y-81471428D01*
X160238485Y-81471428D02*
X160200390Y-81433333D01*
X160200390Y-81433333D02*
X160162295Y-81357142D01*
X167662295Y-85776189D02*
X167281342Y-86042856D01*
X167662295Y-86233332D02*
X166862295Y-86233332D01*
X166862295Y-86233332D02*
X166862295Y-85928570D01*
X166862295Y-85928570D02*
X166900390Y-85852380D01*
X166900390Y-85852380D02*
X166938485Y-85814285D01*
X166938485Y-85814285D02*
X167014676Y-85776189D01*
X167014676Y-85776189D02*
X167128961Y-85776189D01*
X167128961Y-85776189D02*
X167205152Y-85814285D01*
X167205152Y-85814285D02*
X167243247Y-85852380D01*
X167243247Y-85852380D02*
X167281342Y-85928570D01*
X167281342Y-85928570D02*
X167281342Y-86233332D01*
X166862295Y-85547618D02*
X167662295Y-85280951D01*
X167662295Y-85280951D02*
X166862295Y-85014285D01*
X167662295Y-84328571D02*
X167662295Y-84785714D01*
X167662295Y-84557142D02*
X166862295Y-84557142D01*
X166862295Y-84557142D02*
X166976580Y-84633333D01*
X166976580Y-84633333D02*
X167052771Y-84709523D01*
X167052771Y-84709523D02*
X167090866Y-84785714D01*
X166666667Y-92862295D02*
X166400000Y-92481342D01*
X166209524Y-92862295D02*
X166209524Y-92062295D01*
X166209524Y-92062295D02*
X166514286Y-92062295D01*
X166514286Y-92062295D02*
X166590476Y-92100390D01*
X166590476Y-92100390D02*
X166628571Y-92138485D01*
X166628571Y-92138485D02*
X166666667Y-92214676D01*
X166666667Y-92214676D02*
X166666667Y-92328961D01*
X166666667Y-92328961D02*
X166628571Y-92405152D01*
X166628571Y-92405152D02*
X166590476Y-92443247D01*
X166590476Y-92443247D02*
X166514286Y-92481342D01*
X166514286Y-92481342D02*
X166209524Y-92481342D01*
X167352381Y-92062295D02*
X167200000Y-92062295D01*
X167200000Y-92062295D02*
X167123809Y-92100390D01*
X167123809Y-92100390D02*
X167085714Y-92138485D01*
X167085714Y-92138485D02*
X167009524Y-92252771D01*
X167009524Y-92252771D02*
X166971428Y-92405152D01*
X166971428Y-92405152D02*
X166971428Y-92709914D01*
X166971428Y-92709914D02*
X167009524Y-92786104D01*
X167009524Y-92786104D02*
X167047619Y-92824200D01*
X167047619Y-92824200D02*
X167123809Y-92862295D01*
X167123809Y-92862295D02*
X167276190Y-92862295D01*
X167276190Y-92862295D02*
X167352381Y-92824200D01*
X167352381Y-92824200D02*
X167390476Y-92786104D01*
X167390476Y-92786104D02*
X167428571Y-92709914D01*
X167428571Y-92709914D02*
X167428571Y-92519438D01*
X167428571Y-92519438D02*
X167390476Y-92443247D01*
X167390476Y-92443247D02*
X167352381Y-92405152D01*
X167352381Y-92405152D02*
X167276190Y-92367057D01*
X167276190Y-92367057D02*
X167123809Y-92367057D01*
X167123809Y-92367057D02*
X167047619Y-92405152D01*
X167047619Y-92405152D02*
X167009524Y-92443247D01*
X167009524Y-92443247D02*
X166971428Y-92519438D01*
X167012295Y-94983332D02*
X166631342Y-95249999D01*
X167012295Y-95440475D02*
X166212295Y-95440475D01*
X166212295Y-95440475D02*
X166212295Y-95135713D01*
X166212295Y-95135713D02*
X166250390Y-95059523D01*
X166250390Y-95059523D02*
X166288485Y-95021428D01*
X166288485Y-95021428D02*
X166364676Y-94983332D01*
X166364676Y-94983332D02*
X166478961Y-94983332D01*
X166478961Y-94983332D02*
X166555152Y-95021428D01*
X166555152Y-95021428D02*
X166593247Y-95059523D01*
X166593247Y-95059523D02*
X166631342Y-95135713D01*
X166631342Y-95135713D02*
X166631342Y-95440475D01*
X166212295Y-94259523D02*
X166212295Y-94640475D01*
X166212295Y-94640475D02*
X166593247Y-94678571D01*
X166593247Y-94678571D02*
X166555152Y-94640475D01*
X166555152Y-94640475D02*
X166517057Y-94564285D01*
X166517057Y-94564285D02*
X166517057Y-94373809D01*
X166517057Y-94373809D02*
X166555152Y-94297618D01*
X166555152Y-94297618D02*
X166593247Y-94259523D01*
X166593247Y-94259523D02*
X166669438Y-94221428D01*
X166669438Y-94221428D02*
X166859914Y-94221428D01*
X166859914Y-94221428D02*
X166936104Y-94259523D01*
X166936104Y-94259523D02*
X166974200Y-94297618D01*
X166974200Y-94297618D02*
X167012295Y-94373809D01*
X167012295Y-94373809D02*
X167012295Y-94564285D01*
X167012295Y-94564285D02*
X166974200Y-94640475D01*
X166974200Y-94640475D02*
X166936104Y-94678571D01*
X149062295Y-93733332D02*
X148681342Y-93999999D01*
X149062295Y-94190475D02*
X148262295Y-94190475D01*
X148262295Y-94190475D02*
X148262295Y-93885713D01*
X148262295Y-93885713D02*
X148300390Y-93809523D01*
X148300390Y-93809523D02*
X148338485Y-93771428D01*
X148338485Y-93771428D02*
X148414676Y-93733332D01*
X148414676Y-93733332D02*
X148528961Y-93733332D01*
X148528961Y-93733332D02*
X148605152Y-93771428D01*
X148605152Y-93771428D02*
X148643247Y-93809523D01*
X148643247Y-93809523D02*
X148681342Y-93885713D01*
X148681342Y-93885713D02*
X148681342Y-94190475D01*
X148528961Y-93047618D02*
X149062295Y-93047618D01*
X148224200Y-93238094D02*
X148795628Y-93428571D01*
X148795628Y-93428571D02*
X148795628Y-92933332D01*
X149062295Y-95533332D02*
X148681342Y-95799999D01*
X149062295Y-95990475D02*
X148262295Y-95990475D01*
X148262295Y-95990475D02*
X148262295Y-95685713D01*
X148262295Y-95685713D02*
X148300390Y-95609523D01*
X148300390Y-95609523D02*
X148338485Y-95571428D01*
X148338485Y-95571428D02*
X148414676Y-95533332D01*
X148414676Y-95533332D02*
X148528961Y-95533332D01*
X148528961Y-95533332D02*
X148605152Y-95571428D01*
X148605152Y-95571428D02*
X148643247Y-95609523D01*
X148643247Y-95609523D02*
X148681342Y-95685713D01*
X148681342Y-95685713D02*
X148681342Y-95990475D01*
X148262295Y-95266666D02*
X148262295Y-94771428D01*
X148262295Y-94771428D02*
X148567057Y-95038094D01*
X148567057Y-95038094D02*
X148567057Y-94923809D01*
X148567057Y-94923809D02*
X148605152Y-94847618D01*
X148605152Y-94847618D02*
X148643247Y-94809523D01*
X148643247Y-94809523D02*
X148719438Y-94771428D01*
X148719438Y-94771428D02*
X148909914Y-94771428D01*
X148909914Y-94771428D02*
X148986104Y-94809523D01*
X148986104Y-94809523D02*
X149024200Y-94847618D01*
X149024200Y-94847618D02*
X149062295Y-94923809D01*
X149062295Y-94923809D02*
X149062295Y-95152380D01*
X149062295Y-95152380D02*
X149024200Y-95228571D01*
X149024200Y-95228571D02*
X148986104Y-95266666D01*
X153286104Y-82683332D02*
X153324200Y-82721428D01*
X153324200Y-82721428D02*
X153362295Y-82835713D01*
X153362295Y-82835713D02*
X153362295Y-82911904D01*
X153362295Y-82911904D02*
X153324200Y-83026190D01*
X153324200Y-83026190D02*
X153248009Y-83102380D01*
X153248009Y-83102380D02*
X153171819Y-83140475D01*
X153171819Y-83140475D02*
X153019438Y-83178571D01*
X153019438Y-83178571D02*
X152905152Y-83178571D01*
X152905152Y-83178571D02*
X152752771Y-83140475D01*
X152752771Y-83140475D02*
X152676580Y-83102380D01*
X152676580Y-83102380D02*
X152600390Y-83026190D01*
X152600390Y-83026190D02*
X152562295Y-82911904D01*
X152562295Y-82911904D02*
X152562295Y-82835713D01*
X152562295Y-82835713D02*
X152600390Y-82721428D01*
X152600390Y-82721428D02*
X152638485Y-82683332D01*
X152905152Y-82226190D02*
X152867057Y-82302380D01*
X152867057Y-82302380D02*
X152828961Y-82340475D01*
X152828961Y-82340475D02*
X152752771Y-82378571D01*
X152752771Y-82378571D02*
X152714676Y-82378571D01*
X152714676Y-82378571D02*
X152638485Y-82340475D01*
X152638485Y-82340475D02*
X152600390Y-82302380D01*
X152600390Y-82302380D02*
X152562295Y-82226190D01*
X152562295Y-82226190D02*
X152562295Y-82073809D01*
X152562295Y-82073809D02*
X152600390Y-81997618D01*
X152600390Y-81997618D02*
X152638485Y-81959523D01*
X152638485Y-81959523D02*
X152714676Y-81921428D01*
X152714676Y-81921428D02*
X152752771Y-81921428D01*
X152752771Y-81921428D02*
X152828961Y-81959523D01*
X152828961Y-81959523D02*
X152867057Y-81997618D01*
X152867057Y-81997618D02*
X152905152Y-82073809D01*
X152905152Y-82073809D02*
X152905152Y-82226190D01*
X152905152Y-82226190D02*
X152943247Y-82302380D01*
X152943247Y-82302380D02*
X152981342Y-82340475D01*
X152981342Y-82340475D02*
X153057533Y-82378571D01*
X153057533Y-82378571D02*
X153209914Y-82378571D01*
X153209914Y-82378571D02*
X153286104Y-82340475D01*
X153286104Y-82340475D02*
X153324200Y-82302380D01*
X153324200Y-82302380D02*
X153362295Y-82226190D01*
X153362295Y-82226190D02*
X153362295Y-82073809D01*
X153362295Y-82073809D02*
X153324200Y-81997618D01*
X153324200Y-81997618D02*
X153286104Y-81959523D01*
X153286104Y-81959523D02*
X153209914Y-81921428D01*
X153209914Y-81921428D02*
X153057533Y-81921428D01*
X153057533Y-81921428D02*
X152981342Y-81959523D01*
X152981342Y-81959523D02*
X152943247Y-81997618D01*
X152943247Y-81997618D02*
X152905152Y-82073809D01*
X146542964Y-87363860D02*
X147037836Y-87649574D01*
X147037836Y-87649574D02*
X147117762Y-87739709D01*
X147117762Y-87739709D02*
X147145650Y-87843787D01*
X147145650Y-87843787D02*
X147121498Y-87961809D01*
X147121498Y-87961809D02*
X147083403Y-88027792D01*
X147635784Y-87071039D02*
X147407213Y-87466937D01*
X147521499Y-87268988D02*
X146828678Y-86868988D01*
X146828678Y-86868988D02*
X146889557Y-86992114D01*
X146889557Y-86992114D02*
X146917445Y-87096192D01*
X146917445Y-87096192D02*
X146912341Y-87181223D01*
D13*
%TO.C,RX*%
X155250000Y-87300000D02*
G75*
G02*
X153850000Y-87300000I-700000J0D01*
G01*
X153850000Y-87300000D02*
G75*
G02*
X155250000Y-87300000I700000J0D01*
G01*
%TO.C,TX*%
X153050000Y-87300000D02*
G75*
G02*
X151650000Y-87300000I-700000J0D01*
G01*
X151650000Y-87300000D02*
G75*
G02*
X153050000Y-87300000I700000J0D01*
G01*
%TO.C,U1*%
X159050000Y-86140000D02*
X158570000Y-86140000D01*
X158810000Y-85810000D01*
X159050000Y-86140000D01*
G36*
X159050000Y-86140000D02*
G01*
X158570000Y-86140000D01*
X158810000Y-85810000D01*
X159050000Y-86140000D01*
G37*
X155590000Y-82590000D02*
X155590000Y-83040000D01*
X155590000Y-85810000D02*
X155590000Y-85360000D01*
X156040000Y-82590000D02*
X155590000Y-82590000D01*
X156040000Y-85810000D02*
X155590000Y-85810000D01*
X158360000Y-82590000D02*
X158810000Y-82590000D01*
X158360000Y-85810000D02*
X158510000Y-85810000D01*
X158810000Y-82590000D02*
X158810000Y-83040000D01*
X158810000Y-85360000D02*
X158810000Y-85570000D01*
%TO.C,D2*%
X160235000Y-80535000D02*
X160235000Y-79065000D01*
X160235000Y-79065000D02*
X157950000Y-79065000D01*
X157950000Y-80535000D02*
X160235000Y-80535000D01*
%TO.C,C9*%
X162859420Y-82360000D02*
X163140580Y-82360000D01*
X162859420Y-81340000D02*
X163140580Y-81340000D01*
%TO.C,R9*%
X155887258Y-80322500D02*
X155412742Y-80322500D01*
X155887258Y-79277500D02*
X155412742Y-79277500D01*
%TO.C,R8*%
X160922500Y-95262742D02*
X160922500Y-95737258D01*
X159877500Y-95262742D02*
X159877500Y-95737258D01*
%TO.C,C6*%
X160910000Y-92259420D02*
X160910000Y-92540580D01*
X159890000Y-92259420D02*
X159890000Y-92540580D01*
%TO.C,C5*%
X158392164Y-81090000D02*
X158607836Y-81090000D01*
X158392164Y-81810000D02*
X158607836Y-81810000D01*
%TO.C,C1*%
X154060000Y-96161252D02*
X154060000Y-94738748D01*
X152240000Y-96161252D02*
X152240000Y-94738748D01*
%TO.C,D1*%
X159590000Y-88600000D02*
X159590000Y-90600000D01*
X159590000Y-88600000D02*
X163600000Y-88600000D01*
X159590000Y-90600000D02*
X163600000Y-90600000D01*
%TO.C,R7*%
X163137258Y-96522500D02*
X162662742Y-96522500D01*
X163137258Y-95477500D02*
X162662742Y-95477500D01*
%TO.C,L1*%
X154590000Y-93610000D02*
X155440000Y-93610000D01*
X154590000Y-93610000D02*
X154590000Y-88890000D01*
X159310000Y-93610000D02*
X158460000Y-93610000D01*
X159310000Y-93610000D02*
X159310000Y-88890000D01*
X154590000Y-88890000D02*
X155440000Y-88890000D01*
X159310000Y-88890000D02*
X158460000Y-88890000D01*
%TO.C,C4*%
X154060000Y-89988748D02*
X154060000Y-91411252D01*
X152240000Y-89988748D02*
X152240000Y-91411252D01*
%TO.C,C3*%
X151610000Y-89759420D02*
X151610000Y-90040580D01*
X150590000Y-89759420D02*
X150590000Y-90040580D01*
%TO.C,J2*%
X158330000Y-97420000D02*
X158330000Y-100069999D01*
X155570000Y-100070000D02*
X158330000Y-100069999D01*
X155569999Y-97420000D02*
X158330000Y-97420000D01*
X155569999Y-97420000D02*
X155570000Y-100070000D01*
X155570000Y-96150000D02*
X155570000Y-94769999D01*
X155570000Y-94769999D02*
X156950000Y-94770000D01*
D14*
%TO.C,Q1*%
X164150000Y-94150000D02*
X164150000Y-94950000D01*
X164150000Y-94950000D02*
X163650000Y-94950000D01*
D13*
%TO.C,TH1*%
X165822500Y-92162742D02*
X165822500Y-92637258D01*
X164777500Y-92162742D02*
X164777500Y-92637258D01*
%TO.C,C10*%
X161060000Y-84709419D02*
X161060000Y-84990581D01*
X160040000Y-84709419D02*
X160040000Y-84990581D01*
%TO.C,RV1*%
X166550000Y-86300000D02*
X166550000Y-85600000D01*
X166050000Y-84700000D02*
X166050000Y-84300000D01*
X165850000Y-86300000D02*
X166550000Y-86300000D01*
X164950000Y-86100000D02*
X162050000Y-86100000D01*
X164950000Y-82900000D02*
X162050000Y-82900000D01*
X162050000Y-86100000D02*
X162050000Y-85500000D01*
X162050000Y-82900000D02*
X162050000Y-83500000D01*
%TO.C,R6*%
X164777500Y-95737258D02*
X164777500Y-95262742D01*
X165822500Y-95737258D02*
X165822500Y-95262742D01*
%TO.C,R5*%
X163137258Y-98122500D02*
X162662742Y-98122500D01*
X163137258Y-97077500D02*
X162662742Y-97077500D01*
%TO.C,R4*%
X151622500Y-92812742D02*
X151622500Y-93287258D01*
X150577500Y-92812742D02*
X150577500Y-93287258D01*
%TO.C,R3*%
X151622500Y-96012742D02*
X151622500Y-96487258D01*
X150577500Y-96012742D02*
X150577500Y-96487258D01*
%TO.C,C8*%
X153740000Y-82690581D02*
X153740000Y-82409419D01*
X154760000Y-82690581D02*
X154760000Y-82409419D01*
%TD*%
M02*
