M48
; DRILL file {KiCad 9.0.1} date 2025-11-06T23:09:52+0100
; FORMAT={-:-/ absolute / metric / decimal}
; #@! TF.CreationDate,2025-11-06T23:09:52+01:00
; #@! TF.GenerationSoftware,Kicad,Pcbnew,9.0.1
; #@! TF.FileFunction,Plated,1,2,PTH
FMAT,2
METRIC
; #@! TA.AperFunction,Plated,PTH,ViaDrill
T1C0.300
; #@! TA.AperFunction,Plated,PTH,ComponentDrill
T2C1.000
%
G90
G05
T1
X147.55Y-93.35
X147.75Y-87.25
X149.7Y-91.15
X149.7Y-95.85
X150.2Y-93.87
X150.25Y-80.85
X150.3Y-86.55
X151.45Y-85.7
X151.5Y-98.5
X152.5Y-84.1
X153.0Y-85.7
X153.15Y-95.5
X154.25Y-84.1
X155.35Y-91.4
X155.65Y-82.65
X155.65Y-85.7
X155.65Y-94.55
X155.95Y-78.5
X156.4Y-86.5
X156.572Y-80.64
X156.75Y-83.7
X156.75Y-84.65
X156.9Y-91.4
X157.35Y-81.45
X157.7Y-83.7
X157.7Y-84.65
X158.15Y-94.6
X158.4Y-91.4
X158.75Y-82.65
X158.75Y-85.7
X159.15Y-98.7
X159.19Y-94.61
X160.55Y-78.75
X160.55Y-83.35
X161.1Y-87.85
X161.95Y-95.2
X162.85Y-98.7
X162.9Y-95.2
X162.9Y-96.8
X163.1Y-86.45
X164.33Y-85.75
X164.61Y-93.96
X166.1Y-91.6
X167.95Y-92.45
X168.0Y-86.7
T2
X156.95Y-96.15
X156.95Y-98.69
T2
G00X147.4Y-89.3
M15
G01X148.9Y-89.3
M16
G05
G00X165.9Y-89.3
M15
G01X167.4Y-89.3
M16
G05
M30
