%TF.GenerationSoftware,KiCad,Pcbnew,9.0.1*%
%TF.CreationDate,2025-11-06T23:09:58+01:00*%
%TF.ProjectId,Air_pump_controler,4169725f-7075-46d7-905f-636f6e74726f,0.2*%
%TF.SameCoordinates,Original*%
%TF.FileFunction,Copper,L2,Bot*%
%TF.FilePolarity,Positive*%
%FSLAX46Y46*%
G04 Gerber Fmt 4.6, Leading zero omitted, Abs format (unit mm)*
G04 Created by KiCad (PCBNEW 9.0.1) date 2025-11-06 23:09:58*
%MOMM*%
%LPD*%
G01*
G04 APERTURE LIST*
%TA.AperFunction,ComponentPad*%
%ADD10O,3.600000X2.100000*%
%TD*%
%TA.AperFunction,ComponentPad*%
%ADD11R,1.700000X1.700000*%
%TD*%
%TA.AperFunction,ComponentPad*%
%ADD12C,1.700000*%
%TD*%
%TA.AperFunction,ViaPad*%
%ADD13C,0.500000*%
%TD*%
%TA.AperFunction,ViaPad*%
%ADD14C,0.600000*%
%TD*%
%TA.AperFunction,Conductor*%
%ADD15C,0.300000*%
%TD*%
G04 APERTURE END LIST*
D10*
%TO.P,J4,1,Pin_1*%
%TO.N,Net-(D1-A)*%
X166650000Y-89300000D03*
%TO.P,J4,2,Pin_2*%
%TO.N,Net-(D1-K)*%
X148150000Y-89300000D03*
%TD*%
D11*
%TO.P,J2,1,Pin_1*%
%TO.N,+5V*%
X156950000Y-96150000D03*
D12*
%TO.P,J2,2,Pin_2*%
%TO.N,GND*%
X156950001Y-98690000D03*
%TD*%
D13*
%TO.N,/AN_V_IN*%
X154250000Y-84100000D03*
X150200000Y-93870000D03*
%TO.N,+5V*%
X166100000Y-91600000D03*
X164330000Y-85750000D03*
X157350000Y-81450000D03*
X150300000Y-86550000D03*
%TO.N,GND*%
X168000000Y-86700000D03*
X155650000Y-94550000D03*
X158150000Y-94600000D03*
X163100000Y-86450000D03*
X156750000Y-84650000D03*
X162850000Y-98700000D03*
X162900000Y-95200000D03*
X162900000Y-96800000D03*
X155350000Y-91400000D03*
X161950000Y-95200000D03*
X158750000Y-85700000D03*
X147750000Y-87250000D03*
X167950000Y-92450000D03*
X156900000Y-91400000D03*
X157700000Y-84650000D03*
X147550000Y-93350000D03*
X156750000Y-83700000D03*
X150250000Y-80850000D03*
X155650000Y-85700000D03*
X151450000Y-85700000D03*
X153150000Y-95500000D03*
X149700000Y-91150000D03*
X152500000Y-84100000D03*
X155950000Y-78500000D03*
X149700000Y-95850000D03*
X151500000Y-98500000D03*
X157700000Y-83700000D03*
X161100000Y-87850000D03*
X158750000Y-82650000D03*
X153000000Y-85700000D03*
X159150000Y-98700000D03*
X158400000Y-91400000D03*
X155650000Y-82650000D03*
D14*
X156572101Y-80640000D03*
D13*
X160550000Y-78750000D03*
%TO.N,/AN_TEMP*%
X164610000Y-93960000D03*
X160550000Y-83350000D03*
%TO.N,/LS_SW*%
X159190000Y-94610000D03*
X156400000Y-86500000D03*
%TD*%
D15*
%TO.N,/AN_V_IN*%
X154250000Y-84100000D02*
X154250000Y-87650000D01*
X150200000Y-91700000D02*
X150200000Y-93870000D01*
X154250000Y-87650000D02*
X150200000Y-91700000D01*
%TO.N,+5V*%
X166100000Y-95200000D02*
X165150000Y-96150000D01*
X164330000Y-85750000D02*
X164330000Y-89830000D01*
X165150000Y-96150000D02*
X156950000Y-96150000D01*
X164330000Y-84930000D02*
X164330000Y-85750000D01*
X150250000Y-86500000D02*
X150250000Y-84400000D01*
X157350000Y-81450000D02*
X160850000Y-81450000D01*
X166100000Y-91600000D02*
X166100000Y-95200000D01*
X160850000Y-81450000D02*
X164330000Y-84930000D01*
X164330000Y-89830000D02*
X166100000Y-91600000D01*
X153200000Y-81450000D02*
X159692356Y-81450000D01*
X150250000Y-84400000D02*
X153200000Y-81450000D01*
X150300000Y-86550000D02*
X150250000Y-86500000D01*
%TO.N,/AN_TEMP*%
X163829000Y-89979000D02*
X163829000Y-90037521D01*
X160550000Y-83350000D02*
X160550000Y-85150000D01*
X163829000Y-90037521D02*
X164610000Y-90818520D01*
X163790000Y-89940000D02*
X163829000Y-89979000D01*
X164610000Y-90818520D02*
X164610000Y-93960000D01*
X163790000Y-88390000D02*
X163790000Y-89940000D01*
X160550000Y-85150000D02*
X163790000Y-88390000D01*
%TO.N,/LS_SW*%
X156400000Y-86500000D02*
X156400000Y-87750000D01*
X159190000Y-90540000D02*
X159190000Y-94610000D01*
X156400000Y-87750000D02*
X159190000Y-90540000D01*
%TD*%
%TA.AperFunction,Conductor*%
%TO.N,GND*%
G36*
X157725010Y-77805163D02*
G01*
X158364063Y-77841051D01*
X158369015Y-77841470D01*
X159005049Y-77913133D01*
X159009966Y-77913828D01*
X159640981Y-78021043D01*
X159645876Y-78022015D01*
X160269886Y-78164441D01*
X160274690Y-78165681D01*
X160889751Y-78342876D01*
X160894462Y-78344377D01*
X161498645Y-78555790D01*
X161503263Y-78557554D01*
X162094613Y-78802499D01*
X162099136Y-78804523D01*
X162675809Y-79082234D01*
X162680244Y-79084525D01*
X163240432Y-79394130D01*
X163244729Y-79396665D01*
X163786674Y-79737192D01*
X163790793Y-79739943D01*
X164312824Y-80110344D01*
X164316783Y-80113323D01*
X164671051Y-80395843D01*
X164817206Y-80512398D01*
X164821020Y-80515619D01*
X165298249Y-80942097D01*
X165301877Y-80945526D01*
X165754473Y-81398122D01*
X165757902Y-81401750D01*
X166184380Y-81878979D01*
X166187601Y-81882793D01*
X166562069Y-82352361D01*
X166586664Y-82383201D01*
X166589659Y-82387181D01*
X166960045Y-82909190D01*
X166962813Y-82913333D01*
X167063381Y-83073387D01*
X167303332Y-83455267D01*
X167305869Y-83459567D01*
X167615474Y-84019755D01*
X167617765Y-84024190D01*
X167895468Y-84600846D01*
X167897507Y-84605403D01*
X168107366Y-85112048D01*
X168142436Y-85196713D01*
X168144215Y-85201373D01*
X168240570Y-85476738D01*
X168355614Y-85805514D01*
X168357130Y-85810271D01*
X168534314Y-86425294D01*
X168535561Y-86430128D01*
X168677983Y-87054122D01*
X168678956Y-87059018D01*
X168786171Y-87690033D01*
X168786869Y-87694976D01*
X168858528Y-88330972D01*
X168858948Y-88335947D01*
X168894836Y-88974989D01*
X168894976Y-88979979D01*
X168894976Y-89620020D01*
X168894836Y-89625010D01*
X168858948Y-90264052D01*
X168858528Y-90269027D01*
X168786869Y-90905023D01*
X168786171Y-90909966D01*
X168678956Y-91540981D01*
X168677983Y-91545877D01*
X168535561Y-92169871D01*
X168534314Y-92174705D01*
X168357130Y-92789728D01*
X168355614Y-92794485D01*
X168144217Y-93398622D01*
X168142436Y-93403286D01*
X167897507Y-93994596D01*
X167895468Y-93999153D01*
X167617765Y-94575809D01*
X167615474Y-94580244D01*
X167305869Y-95140432D01*
X167303332Y-95144732D01*
X166962818Y-95686658D01*
X166960045Y-95690809D01*
X166589666Y-96212809D01*
X166586664Y-96216798D01*
X166187601Y-96717206D01*
X166184380Y-96721020D01*
X165757902Y-97198249D01*
X165754473Y-97201877D01*
X165301877Y-97654473D01*
X165298249Y-97657902D01*
X164821020Y-98084380D01*
X164817206Y-98087601D01*
X164316798Y-98486664D01*
X164312809Y-98489666D01*
X163790809Y-98860045D01*
X163786658Y-98862818D01*
X163244732Y-99203332D01*
X163240432Y-99205869D01*
X162680244Y-99515474D01*
X162675809Y-99517765D01*
X162099153Y-99795468D01*
X162094596Y-99797507D01*
X161503286Y-100042436D01*
X161498622Y-100044217D01*
X160894485Y-100255614D01*
X160889728Y-100257130D01*
X160274705Y-100434314D01*
X160269871Y-100435561D01*
X159645877Y-100577983D01*
X159640981Y-100578956D01*
X159009966Y-100686171D01*
X159005023Y-100686869D01*
X158369027Y-100758528D01*
X158364052Y-100758948D01*
X157725011Y-100794836D01*
X157720021Y-100794976D01*
X157079979Y-100794976D01*
X157074989Y-100794836D01*
X156435947Y-100758948D01*
X156430972Y-100758528D01*
X155794976Y-100686869D01*
X155790033Y-100686171D01*
X155159018Y-100578956D01*
X155154122Y-100577983D01*
X154530128Y-100435561D01*
X154525294Y-100434314D01*
X153910271Y-100257130D01*
X153905514Y-100255614D01*
X153301377Y-100044217D01*
X153296713Y-100042436D01*
X153210576Y-100006757D01*
X152705403Y-99797507D01*
X152700846Y-99795468D01*
X152124190Y-99517765D01*
X152119755Y-99515474D01*
X151559567Y-99205869D01*
X151555267Y-99203332D01*
X151226902Y-98997007D01*
X151013333Y-98862813D01*
X151009198Y-98860050D01*
X150487181Y-98489659D01*
X150483211Y-98486671D01*
X150236346Y-98289803D01*
X149982793Y-98087601D01*
X149978979Y-98084380D01*
X149501750Y-97657902D01*
X149498122Y-97654473D01*
X149045526Y-97201877D01*
X149042097Y-97198249D01*
X148615619Y-96721020D01*
X148612398Y-96717206D01*
X148383733Y-96430470D01*
X148213323Y-96216783D01*
X148210344Y-96212824D01*
X147839943Y-95690793D01*
X147837192Y-95686674D01*
X147496665Y-95144729D01*
X147494130Y-95140432D01*
X147477936Y-95111132D01*
X147184525Y-94580244D01*
X147182234Y-94575809D01*
X147170138Y-94550691D01*
X146904523Y-93999136D01*
X146902499Y-93994613D01*
X146826316Y-93810691D01*
X149749500Y-93810691D01*
X149749500Y-93929309D01*
X149766994Y-93994596D01*
X149780200Y-94043885D01*
X149780201Y-94043886D01*
X149839511Y-94146613D01*
X149923387Y-94230489D01*
X150026114Y-94289799D01*
X150140691Y-94320500D01*
X150140694Y-94320500D01*
X150259306Y-94320500D01*
X150259309Y-94320500D01*
X150373886Y-94289799D01*
X150476613Y-94230489D01*
X150560489Y-94146613D01*
X150619799Y-94043886D01*
X150650500Y-93929309D01*
X150650500Y-93810691D01*
X150619799Y-93696114D01*
X150562424Y-93596738D01*
X150550500Y-93552238D01*
X150550500Y-91882047D01*
X150571322Y-91824839D01*
X150576556Y-91819125D01*
X154530470Y-87865212D01*
X154576614Y-87785288D01*
X154600500Y-87696144D01*
X154600500Y-86440691D01*
X155949500Y-86440691D01*
X155949500Y-86559309D01*
X155962898Y-86609309D01*
X155980200Y-86673885D01*
X155980201Y-86673886D01*
X156037576Y-86773262D01*
X156049500Y-86817761D01*
X156049500Y-87796140D01*
X156049501Y-87796150D01*
X156068006Y-87865210D01*
X156068006Y-87865211D01*
X156073384Y-87885284D01*
X156073385Y-87885287D01*
X156073386Y-87885288D01*
X156119530Y-87965212D01*
X158813433Y-90659115D01*
X158839161Y-90714290D01*
X158839500Y-90722047D01*
X158839500Y-94292238D01*
X158827576Y-94336738D01*
X158770202Y-94436111D01*
X158770201Y-94436114D01*
X158739500Y-94550691D01*
X158739500Y-94669309D01*
X158757741Y-94737385D01*
X158770200Y-94783885D01*
X158770201Y-94783886D01*
X158829511Y-94886613D01*
X158913387Y-94970489D01*
X159016114Y-95029799D01*
X159130691Y-95060500D01*
X159130694Y-95060500D01*
X159249306Y-95060500D01*
X159249309Y-95060500D01*
X159363886Y-95029799D01*
X159466613Y-94970489D01*
X159550489Y-94886613D01*
X159609799Y-94783886D01*
X159640500Y-94669309D01*
X159640500Y-94550691D01*
X159609799Y-94436114D01*
X159552424Y-94336738D01*
X159540500Y-94292238D01*
X159540500Y-90493858D01*
X159540500Y-90493856D01*
X159516614Y-90404712D01*
X159496298Y-90369524D01*
X159496297Y-90369522D01*
X159496297Y-90369521D01*
X159470472Y-90324790D01*
X159470470Y-90324788D01*
X156776567Y-87630884D01*
X156750839Y-87575709D01*
X156750500Y-87567952D01*
X156750500Y-86817761D01*
X156762423Y-86773262D01*
X156819799Y-86673886D01*
X156850500Y-86559309D01*
X156850500Y-86440691D01*
X156819799Y-86326114D01*
X156760489Y-86223387D01*
X156676613Y-86139511D01*
X156617302Y-86105267D01*
X156573885Y-86080200D01*
X156519273Y-86065567D01*
X156459309Y-86049500D01*
X156340691Y-86049500D01*
X156289633Y-86063180D01*
X156226114Y-86080200D01*
X156123387Y-86139511D01*
X156039511Y-86223387D01*
X155980200Y-86326114D01*
X155966804Y-86376113D01*
X155949500Y-86440691D01*
X154600500Y-86440691D01*
X154600500Y-84417761D01*
X154612423Y-84373262D01*
X154669799Y-84273886D01*
X154700500Y-84159309D01*
X154700500Y-84040691D01*
X154669799Y-83926114D01*
X154610489Y-83823387D01*
X154526613Y-83739511D01*
X154467302Y-83705267D01*
X154423885Y-83680200D01*
X154369273Y-83665567D01*
X154309309Y-83649500D01*
X154190691Y-83649500D01*
X154139633Y-83663180D01*
X154076114Y-83680200D01*
X153973387Y-83739511D01*
X153889511Y-83823387D01*
X153830200Y-83926114D01*
X153813180Y-83989633D01*
X153799500Y-84040691D01*
X153799500Y-84159309D01*
X153817741Y-84227385D01*
X153830200Y-84273885D01*
X153830201Y-84273886D01*
X153887576Y-84373262D01*
X153899500Y-84417761D01*
X153899500Y-87467952D01*
X153878678Y-87525160D01*
X153873433Y-87530884D01*
X149919529Y-91484788D01*
X149879656Y-91553853D01*
X149879655Y-91553854D01*
X149873385Y-91564712D01*
X149873385Y-91564713D01*
X149859594Y-91616180D01*
X149849500Y-91653856D01*
X149849500Y-91653858D01*
X149849500Y-93552238D01*
X149837576Y-93596738D01*
X149780202Y-93696111D01*
X149780201Y-93696114D01*
X149749500Y-93810691D01*
X146826316Y-93810691D01*
X146657554Y-93403263D01*
X146655790Y-93398645D01*
X146444377Y-92794462D01*
X146442876Y-92789751D01*
X146265681Y-92174690D01*
X146264438Y-92169871D01*
X146198744Y-91882047D01*
X146122015Y-91545876D01*
X146121043Y-91540981D01*
X146013828Y-90909966D01*
X146013133Y-90905049D01*
X145941470Y-90269015D01*
X145941051Y-90264052D01*
X145940415Y-90252733D01*
X145905164Y-89625010D01*
X145905024Y-89620020D01*
X145905024Y-89201583D01*
X146149500Y-89201583D01*
X146149500Y-89398416D01*
X146180291Y-89592828D01*
X146190748Y-89625010D01*
X146241116Y-89780025D01*
X146327257Y-89949087D01*
X146330477Y-89955407D01*
X146330479Y-89955410D01*
X146446167Y-90114640D01*
X146446169Y-90114642D01*
X146446172Y-90114646D01*
X146585354Y-90253828D01*
X146585357Y-90253830D01*
X146585359Y-90253832D01*
X146744589Y-90369520D01*
X146744592Y-90369522D01*
X146744595Y-90369524D01*
X146919975Y-90458884D01*
X147107174Y-90519709D01*
X147301583Y-90550500D01*
X148998417Y-90550500D01*
X149192826Y-90519709D01*
X149380025Y-90458884D01*
X149555405Y-90369524D01*
X149714646Y-90253828D01*
X149853828Y-90114646D01*
X149969524Y-89955405D01*
X150058884Y-89780025D01*
X150119709Y-89592826D01*
X150150500Y-89398417D01*
X150150500Y-89201583D01*
X150119709Y-89007174D01*
X150058884Y-88819975D01*
X149969524Y-88644595D01*
X149969520Y-88644589D01*
X149853832Y-88485359D01*
X149853830Y-88485357D01*
X149853828Y-88485354D01*
X149714646Y-88346172D01*
X149714642Y-88346169D01*
X149714640Y-88346167D01*
X149555410Y-88230479D01*
X149555407Y-88230477D01*
X149549087Y-88227257D01*
X149380025Y-88141116D01*
X149317625Y-88120841D01*
X149192828Y-88080291D01*
X148998417Y-88049500D01*
X147301583Y-88049500D01*
X147107171Y-88080291D01*
X146919975Y-88141116D01*
X146744592Y-88230477D01*
X146744589Y-88230479D01*
X146585359Y-88346167D01*
X146446167Y-88485359D01*
X146330479Y-88644589D01*
X146330477Y-88644592D01*
X146241116Y-88819975D01*
X146180291Y-89007171D01*
X146149500Y-89201583D01*
X145905024Y-89201583D01*
X145905024Y-88979979D01*
X145905164Y-88974989D01*
X145923718Y-88644592D01*
X145941052Y-88335933D01*
X145941471Y-88330972D01*
X145952794Y-88230477D01*
X146013134Y-87694945D01*
X146013828Y-87690033D01*
X146121043Y-87059018D01*
X146122016Y-87054122D01*
X146141262Y-86969799D01*
X146250616Y-86490691D01*
X149849500Y-86490691D01*
X149849500Y-86609309D01*
X149867741Y-86677385D01*
X149880200Y-86723885D01*
X149880201Y-86723886D01*
X149939511Y-86826613D01*
X150023387Y-86910489D01*
X150126114Y-86969799D01*
X150240691Y-87000500D01*
X150240694Y-87000500D01*
X150359306Y-87000500D01*
X150359309Y-87000500D01*
X150473886Y-86969799D01*
X150576613Y-86910489D01*
X150660489Y-86826613D01*
X150719799Y-86723886D01*
X150750500Y-86609309D01*
X150750500Y-86490691D01*
X150719799Y-86376114D01*
X150660489Y-86273387D01*
X150660486Y-86273384D01*
X150626567Y-86239464D01*
X150600839Y-86184288D01*
X150600500Y-86176532D01*
X150600500Y-84582048D01*
X150621322Y-84524840D01*
X150626567Y-84519115D01*
X153319115Y-81826567D01*
X153374291Y-81800839D01*
X153382048Y-81800500D01*
X157032239Y-81800500D01*
X157076737Y-81812423D01*
X157176114Y-81869799D01*
X157290691Y-81900500D01*
X157290694Y-81900500D01*
X157409306Y-81900500D01*
X157409309Y-81900500D01*
X157523886Y-81869799D01*
X157623262Y-81812423D01*
X157667761Y-81800500D01*
X160667952Y-81800500D01*
X160725160Y-81821322D01*
X160730885Y-81826567D01*
X163953433Y-85049115D01*
X163979161Y-85104291D01*
X163979500Y-85112048D01*
X163979500Y-85432238D01*
X163967576Y-85476738D01*
X163910202Y-85576111D01*
X163910201Y-85576114D01*
X163879500Y-85690691D01*
X163879500Y-85809309D01*
X163897741Y-85877385D01*
X163910200Y-85923885D01*
X163910201Y-85923886D01*
X163967576Y-86023262D01*
X163979500Y-86067761D01*
X163979500Y-87868952D01*
X163958678Y-87926160D01*
X163905955Y-87956600D01*
X163846000Y-87946028D01*
X163827567Y-87931885D01*
X160926567Y-85030885D01*
X160900839Y-84975709D01*
X160900500Y-84967952D01*
X160900500Y-83667761D01*
X160912423Y-83623262D01*
X160969799Y-83523886D01*
X161000500Y-83409309D01*
X161000500Y-83290691D01*
X160969799Y-83176114D01*
X160910489Y-83073387D01*
X160826613Y-82989511D01*
X160751779Y-82946305D01*
X160723885Y-82930200D01*
X160653048Y-82911220D01*
X160609309Y-82899500D01*
X160490691Y-82899500D01*
X160446952Y-82911220D01*
X160376114Y-82930200D01*
X160273387Y-82989511D01*
X160189511Y-83073387D01*
X160130200Y-83176114D01*
X160113180Y-83239633D01*
X160099500Y-83290691D01*
X160099500Y-83409309D01*
X160112383Y-83457388D01*
X160130200Y-83523885D01*
X160130201Y-83523886D01*
X160187576Y-83623262D01*
X160199500Y-83667761D01*
X160199500Y-85196146D01*
X160203338Y-85210466D01*
X160203338Y-85210469D01*
X160223384Y-85285283D01*
X160223384Y-85285284D01*
X160223385Y-85285287D01*
X160223386Y-85285288D01*
X160269530Y-85365212D01*
X163413433Y-88509115D01*
X163439161Y-88564290D01*
X163439500Y-88572047D01*
X163439500Y-89986144D01*
X163456744Y-90050500D01*
X163463386Y-90075288D01*
X163484088Y-90111146D01*
X163486121Y-90115834D01*
X163486258Y-90118122D01*
X163490433Y-90128201D01*
X163497670Y-90155209D01*
X163497670Y-90155211D01*
X163502384Y-90172803D01*
X163502384Y-90172805D01*
X163548530Y-90252733D01*
X164233432Y-90937634D01*
X164259161Y-90992810D01*
X164259500Y-91000567D01*
X164259500Y-93642238D01*
X164247576Y-93686738D01*
X164190202Y-93786111D01*
X164190201Y-93786114D01*
X164159500Y-93900691D01*
X164159500Y-94019309D01*
X164177741Y-94087385D01*
X164190200Y-94133885D01*
X164190201Y-94133886D01*
X164249511Y-94236613D01*
X164333387Y-94320489D01*
X164436114Y-94379799D01*
X164550691Y-94410500D01*
X164550694Y-94410500D01*
X164669306Y-94410500D01*
X164669309Y-94410500D01*
X164783886Y-94379799D01*
X164886613Y-94320489D01*
X164970489Y-94236613D01*
X165029799Y-94133886D01*
X165060500Y-94019309D01*
X165060500Y-93900691D01*
X165029799Y-93786114D01*
X164977837Y-93696114D01*
X164972424Y-93686738D01*
X164960500Y-93642238D01*
X164960500Y-91171048D01*
X164981322Y-91113840D01*
X165034045Y-91083400D01*
X165094000Y-91093972D01*
X165112433Y-91108115D01*
X165627467Y-91623149D01*
X165650501Y-91663047D01*
X165680198Y-91773878D01*
X165680200Y-91773884D01*
X165680201Y-91773886D01*
X165737576Y-91873262D01*
X165749500Y-91917761D01*
X165749500Y-95017952D01*
X165728678Y-95075160D01*
X165723433Y-95080885D01*
X165030885Y-95773433D01*
X164975709Y-95799161D01*
X164967952Y-95799500D01*
X158089500Y-95799500D01*
X158032292Y-95778678D01*
X158001852Y-95725955D01*
X158000500Y-95710500D01*
X158000500Y-95280255D01*
X158000499Y-95280247D01*
X157988867Y-95221768D01*
X157944554Y-95155451D01*
X157944552Y-95155448D01*
X157928515Y-95144732D01*
X157878231Y-95111132D01*
X157819752Y-95099500D01*
X157819748Y-95099500D01*
X156080252Y-95099500D01*
X156080247Y-95099500D01*
X156021768Y-95111132D01*
X155955451Y-95155445D01*
X155955445Y-95155451D01*
X155911132Y-95221768D01*
X155899500Y-95280247D01*
X155899500Y-97019752D01*
X155911132Y-97078231D01*
X155955445Y-97144548D01*
X155955448Y-97144552D01*
X155955451Y-97144554D01*
X156021768Y-97188867D01*
X156068935Y-97198249D01*
X156080252Y-97200500D01*
X156080256Y-97200500D01*
X156603595Y-97200500D01*
X156660803Y-97221322D01*
X156691243Y-97274045D01*
X156680671Y-97334000D01*
X156634035Y-97373133D01*
X156631098Y-97374144D01*
X156431775Y-97438908D01*
X156431771Y-97438910D01*
X156242454Y-97535372D01*
X156242440Y-97535380D01*
X156188283Y-97574728D01*
X156188283Y-97574729D01*
X156820592Y-98207037D01*
X156757008Y-98224075D01*
X156642994Y-98289901D01*
X156549902Y-98382993D01*
X156484076Y-98497007D01*
X156467038Y-98560590D01*
X155834730Y-97928282D01*
X155834729Y-97928282D01*
X155795381Y-97982439D01*
X155795373Y-97982453D01*
X155698911Y-98171770D01*
X155698909Y-98171774D01*
X155633243Y-98373872D01*
X155600001Y-98583753D01*
X155600001Y-98796246D01*
X155633243Y-99006127D01*
X155698909Y-99208225D01*
X155698911Y-99208229D01*
X155795373Y-99397546D01*
X155795381Y-99397560D01*
X155834729Y-99451716D01*
X156467038Y-98819407D01*
X156484076Y-98882993D01*
X156549902Y-98997007D01*
X156642994Y-99090099D01*
X156757008Y-99155925D01*
X156820590Y-99172962D01*
X156188283Y-99805269D01*
X156242447Y-99844623D01*
X156242454Y-99844627D01*
X156431771Y-99941089D01*
X156431775Y-99941091D01*
X156633873Y-100006757D01*
X156843754Y-100040000D01*
X157056248Y-100040000D01*
X157266128Y-100006757D01*
X157468226Y-99941091D01*
X157468230Y-99941089D01*
X157657541Y-99844630D01*
X157657557Y-99844620D01*
X157711717Y-99805270D01*
X157079409Y-99172962D01*
X157142994Y-99155925D01*
X157257008Y-99090099D01*
X157350100Y-98997007D01*
X157415926Y-98882993D01*
X157432963Y-98819408D01*
X158065271Y-99451716D01*
X158104621Y-99397556D01*
X158104631Y-99397540D01*
X158201090Y-99208229D01*
X158201092Y-99208225D01*
X158266758Y-99006127D01*
X158300001Y-98796246D01*
X158300001Y-98583753D01*
X158266758Y-98373872D01*
X158201092Y-98171774D01*
X158201090Y-98171770D01*
X158104628Y-97982453D01*
X158104624Y-97982446D01*
X158065270Y-97928282D01*
X157432963Y-98560589D01*
X157415926Y-98497007D01*
X157350100Y-98382993D01*
X157257008Y-98289901D01*
X157142994Y-98224075D01*
X157079408Y-98207036D01*
X157711717Y-97574728D01*
X157657561Y-97535380D01*
X157657547Y-97535372D01*
X157468230Y-97438910D01*
X157468226Y-97438908D01*
X157268904Y-97374144D01*
X157220931Y-97336663D01*
X157208273Y-97277113D01*
X157236855Y-97223360D01*
X157293301Y-97200554D01*
X157296407Y-97200500D01*
X157819744Y-97200500D01*
X157819748Y-97200500D01*
X157878231Y-97188867D01*
X157944552Y-97144552D01*
X157988867Y-97078231D01*
X158000500Y-97019748D01*
X158000500Y-96589500D01*
X158021322Y-96532292D01*
X158074045Y-96501852D01*
X158089500Y-96500500D01*
X165196142Y-96500500D01*
X165196144Y-96500500D01*
X165285288Y-96476614D01*
X165365212Y-96430470D01*
X166380470Y-95415212D01*
X166426614Y-95335288D01*
X166450500Y-95246144D01*
X166450500Y-91917761D01*
X166462423Y-91873262D01*
X166519799Y-91773886D01*
X166550500Y-91659309D01*
X166550500Y-91540691D01*
X166519799Y-91426114D01*
X166460489Y-91323387D01*
X166376613Y-91239511D01*
X166273886Y-91180201D01*
X166273885Y-91180200D01*
X166273884Y-91180200D01*
X166273878Y-91180198D01*
X166163047Y-91150501D01*
X166123149Y-91127467D01*
X165691804Y-90696122D01*
X165666076Y-90640946D01*
X165681832Y-90582141D01*
X165731702Y-90547222D01*
X165768657Y-90545285D01*
X165801583Y-90550500D01*
X165801585Y-90550500D01*
X167498417Y-90550500D01*
X167692826Y-90519709D01*
X167880025Y-90458884D01*
X168055405Y-90369524D01*
X168214646Y-90253828D01*
X168353828Y-90114646D01*
X168469524Y-89955405D01*
X168558884Y-89780025D01*
X168619709Y-89592826D01*
X168650500Y-89398417D01*
X168650500Y-89201583D01*
X168619709Y-89007174D01*
X168558884Y-88819975D01*
X168469524Y-88644595D01*
X168469520Y-88644589D01*
X168353832Y-88485359D01*
X168353830Y-88485357D01*
X168353828Y-88485354D01*
X168214646Y-88346172D01*
X168214642Y-88346169D01*
X168214640Y-88346167D01*
X168055410Y-88230479D01*
X168055407Y-88230477D01*
X168049087Y-88227257D01*
X167880025Y-88141116D01*
X167817625Y-88120841D01*
X167692828Y-88080291D01*
X167498417Y-88049500D01*
X165801583Y-88049500D01*
X165607171Y-88080291D01*
X165419975Y-88141116D01*
X165244592Y-88230477D01*
X165244589Y-88230479D01*
X165085359Y-88346167D01*
X164946167Y-88485359D01*
X164841502Y-88629418D01*
X164791031Y-88663461D01*
X164730485Y-88657097D01*
X164688194Y-88613304D01*
X164680500Y-88577105D01*
X164680500Y-86067761D01*
X164692423Y-86023262D01*
X164749799Y-85923886D01*
X164780500Y-85809309D01*
X164780500Y-85690691D01*
X164749799Y-85576114D01*
X164692424Y-85476738D01*
X164680500Y-85432238D01*
X164680500Y-84883858D01*
X164680500Y-84883856D01*
X164656614Y-84794712D01*
X164610470Y-84714788D01*
X161065212Y-81169530D01*
X160985288Y-81123386D01*
X160985287Y-81123385D01*
X160985286Y-81123385D01*
X160943914Y-81112299D01*
X160896144Y-81099500D01*
X160896142Y-81099500D01*
X157667761Y-81099500D01*
X157623262Y-81087576D01*
X157556300Y-81048915D01*
X157523885Y-81030200D01*
X157469273Y-81015567D01*
X157409309Y-80999500D01*
X157290691Y-80999500D01*
X157239633Y-81013180D01*
X157176114Y-81030200D01*
X157123059Y-81060832D01*
X157076737Y-81087576D01*
X157032239Y-81099500D01*
X153153856Y-81099500D01*
X153116180Y-81109594D01*
X153064713Y-81123385D01*
X152984789Y-81169529D01*
X149969527Y-84184791D01*
X149929234Y-84254584D01*
X149929232Y-84254587D01*
X149923387Y-84264710D01*
X149923385Y-84264713D01*
X149899500Y-84353855D01*
X149899500Y-86318839D01*
X149887577Y-86363338D01*
X149880201Y-86376113D01*
X149880201Y-86376114D01*
X149849500Y-86490691D01*
X146250616Y-86490691D01*
X146264439Y-86430127D01*
X146265678Y-86425317D01*
X146442879Y-85810238D01*
X146444374Y-85805547D01*
X146655795Y-85201342D01*
X146657549Y-85196748D01*
X146902505Y-84605373D01*
X146904517Y-84600877D01*
X147182241Y-84024175D01*
X147184517Y-84019768D01*
X147494141Y-83459548D01*
X147496656Y-83455285D01*
X147837202Y-82913308D01*
X147839932Y-82909222D01*
X148210357Y-82387157D01*
X148213310Y-82383233D01*
X148612407Y-81882781D01*
X148615609Y-81878990D01*
X149042114Y-81401731D01*
X149045508Y-81398140D01*
X149498140Y-80945508D01*
X149501731Y-80942114D01*
X149978990Y-80515609D01*
X149982781Y-80512407D01*
X150483233Y-80113310D01*
X150487157Y-80110357D01*
X151009222Y-79739932D01*
X151013308Y-79737202D01*
X151555285Y-79396656D01*
X151559548Y-79394141D01*
X152119768Y-79084517D01*
X152124175Y-79082241D01*
X152700877Y-78804517D01*
X152705373Y-78802505D01*
X153296748Y-78557549D01*
X153301342Y-78555795D01*
X153905547Y-78344374D01*
X153910238Y-78342879D01*
X154525317Y-78165678D01*
X154530104Y-78164443D01*
X155154129Y-78022014D01*
X155159018Y-78021043D01*
X155790033Y-77913828D01*
X155794945Y-77913134D01*
X156430987Y-77841469D01*
X156435933Y-77841052D01*
X157074989Y-77805163D01*
X157079979Y-77805024D01*
X157720021Y-77805024D01*
X157725010Y-77805163D01*
G37*
%TD.AperFunction*%
%TD*%
M02*
